<?xml version="1.0" encoding="utf-8"?>
<!-- Generator: Adobe Illustrator 16.0.0, SVG Export Plug-In . SVG Version: 6.00 Build 0)  -->
<!DOCTYPE svg PUBLIC "-//W3C//DTD SVG 1.1//EN" "http://www.w3.org/Graphics/SVG/1.1/DTD/svg11.dtd">
<svg version="1.1" id="Layer_1" xmlns="http://www.w3.org/2000/svg" xmlns:xlink="http://www.w3.org/1999/xlink" x="0px" y="0px"
	 width="800px" height="600px" viewBox="0 0 800 600" enable-background="new 0 0 800 600" xml:space="preserve">
<rect fill="#F5F6F6" width="800" height="600"/>
<g>
	<g>
		<g>
			<path fill="#F5F6F6" d="M570.729,350.771c0.083-0.665,0.154-1.331,0.199-2.008c1.217-18.156-12.276-33.841-30.139-35.038
				c-17.86-1.195-33.323,12.554-34.538,30.707c-0.046,0.679-0.063,1.35-0.068,2.018c0,0,13.004,3.566,32.948,4.899
				C559.076,352.686,570.729,350.771,570.729,350.771z"/>
			<path fill="#3E3B3B" d="M552.885,354.649c-0.002,0-0.002,0-0.004,0c-4.496,0-9.186-0.159-13.938-0.479
				c-19.998-1.335-32.965-4.848-33.508-4.993c-1.237-0.343-2.091-1.471-2.079-2.752c0.006-0.724,0.025-1.454,0.076-2.189
				c1.308-19.52,18.051-34.628,37.546-33.332c19.39,1.3,34.089,18.366,32.771,38.048c-0.048,0.73-0.125,1.45-0.217,2.172
				c-0.154,1.24-1.109,2.232-2.346,2.438C570.917,353.606,564.423,354.649,552.885,354.649z M509.1,344.253
				c4.449,1.036,15.445,3.287,30.221,4.273c4.629,0.312,9.19,0.47,13.561,0.47c7.299,0,12.526-0.44,15.246-0.742
				c0.928-16.438-11.355-30.625-27.526-31.708C524.34,315.47,510.38,327.988,509.1,344.253z"/>
		</g>
		<g>
			<path fill="#F5F6F6" d="M531.384,364.251c7.288,3.457,23.519,2.482,30.312-2.31"/>
			<path fill="#3E3B3B" d="M543.294,369.884c-5.073,0-9.933-0.786-13.424-2.44c-1.764-0.837-2.516-2.942-1.679-4.706
				c0.836-1.762,2.943-2.519,4.708-1.68c6.417,3.041,21.171,1.938,26.758-2.003c1.597-1.128,3.801-0.742,4.927,0.851
				c1.125,1.594,0.744,3.8-0.853,4.926C559.104,368.096,550.959,369.884,543.294,369.884z"/>
		</g>
		<g>
			<path fill="#F5F6F6" d="M536.427,377.53c5.976,3.537,19.185,2.741,24.667-1.971"/>
			<path fill="#3E3B3B" d="M546.543,383.275c-4.482,0-8.82-0.873-11.917-2.704c-1.68-0.993-2.235-3.16-1.241-4.84
				c0.994-1.684,3.166-2.237,4.842-1.242c4.864,2.875,16.395,1.975,20.564-1.61c1.476-1.271,3.707-1.109,4.982,0.378
				c1.272,1.48,1.104,3.711-0.377,4.982C559.592,381.51,552.918,383.275,546.543,383.275z"/>
		</g>
		<g>
			<path fill="#F5F6F6" d="M540.071,391.035c4.608,2.728,14.801,2.118,19.027-1.518"/>
			<path fill="#3E3B3B" d="M547.847,396.25c-3.604,0-7.087-0.699-9.576-2.174c-1.679-0.99-2.234-3.16-1.241-4.84
				c0.996-1.686,3.165-2.236,4.843-1.24c3.454,2.042,11.966,1.382,14.922-1.158c1.477-1.275,3.71-1.105,4.982,0.373
				c1.273,1.48,1.106,3.711-0.374,4.986C558.342,394.831,552.976,396.25,547.847,396.25z"/>
		</g>
		<g>
			<path fill="#F5F6F6" d="M541.598,404.124c3.703,2.694,12.019,2.426,15.53-0.854"/>
			<path fill="#3E3B3B" d="M548.57,409.517c-3.378,0-6.703-0.828-9.051-2.534c-1.579-1.148-1.928-3.361-0.779-4.938
				c1.147-1.577,3.357-1.93,4.938-0.777c2.463,1.792,8.86,1.456,11.039-0.58c1.424-1.335,3.662-1.256,4.994,0.172
				c1.332,1.427,1.256,3.66-0.173,4.993C556.959,408.264,552.726,409.517,548.57,409.517z"/>
		</g>
		<g>
			<path fill="#F5F6F6" d="M543.059,416.562c3.19,2.008,10.369,1.778,13.415-0.695"/>
			<path fill="#3E3B3B" d="M548.983,421.443c-2.92,0-5.783-0.615-7.807-1.891c-1.651-1.038-2.149-3.22-1.11-4.873
				c1.039-1.65,3.218-2.152,4.875-1.106c2.029,1.273,7.507,1.009,9.306-0.449c1.513-1.234,3.74-0.999,4.971,0.515
				c1.23,1.516,0.999,3.742-0.517,4.973C556.409,420.471,552.651,421.443,548.983,421.443z"/>
		</g>
		<g>
			<g>
				<path fill="#F5F6F6" d="M536.459,451.117c-6.104-28.497,39.624-21.283,29.79-2.522"/>
				<path fill="#3E3B3B" d="M533.695,451.709c-1.934-9.028,0.793-16.322,7.484-20.005c7.73-4.257,19.41-2.808,25.507,3.166
					c4.177,4.093,4.931,9.572,2.067,15.039l-5.009-2.629c1.694-3.234,1.354-6.05-1.016-8.373
					c-4.314-4.226-13.283-5.296-18.822-2.251c-4.478,2.469-6.098,7.263-4.683,13.868L533.695,451.709z"/>
			</g>
			<g>
				<path fill="#F5F6F6" d="M536.311,455.354c-1.898-0.066-3.584-1.407-4.001-3.353c-2.073-9.679,0.913-17.528,8.188-21.535
					c8.229-4.534,20.674-2.978,27.178,3.397c4.654,4.559,5.502,10.648,2.329,16.702c-1.086,2.073-3.65,2.872-5.724,1.788
					c-2.076-1.091-2.877-3.65-1.788-5.729c1.411-2.688,1.17-4.821-0.753-6.701c-3.465-3.4-11.713-5.02-17.151-2.026
					c-3.933,2.164-5.272,6.31-3.982,12.33c0.49,2.291-0.971,4.546-3.261,5.036C536.998,455.337,536.651,455.365,536.311,455.354z"/>
				<path fill="#3E3B3B" d="M536.454,458.185c-0.029,0-0.205-0.004-0.234-0.004c-3.256-0.116-5.994-2.413-6.674-5.59
					c-2.318-10.82,1.267-20.02,9.589-24.603c3.505-1.93,7.739-2.953,12.25-2.953c7.092,0,13.921,2.547,18.271,6.809
					c5.523,5.415,6.592,12.904,2.854,20.036c-1.225,2.333-3.625,3.785-6.265,3.785c-1.136,0-2.268-0.279-3.276-0.806
					c-3.452-1.813-4.788-6.097-2.979-9.546c1.014-1.932,0.545-2.614-0.228-3.371c-1.676-1.643-5.154-2.791-8.457-2.791
					c-2.051,0-3.901,0.421-5.353,1.223c-1.753,0.964-3.927,2.973-2.581,9.26c0.395,1.846,0.048,3.736-0.979,5.321
					c-1.027,1.585-2.608,2.677-4.454,3.072C537.455,458.132,536.954,458.185,536.454,458.185z M551.385,430.693
					c-3.559,0-6.852,0.774-9.522,2.247c-6.196,3.414-8.607,9.972-6.787,18.468c0.136,0.638,0.684,1.097,1.333,1.121l0.046,2.828
					v-2.828c0.104,0,0.203-0.01,0.3-0.028c0.499-0.108,0.772-0.433,0.892-0.617s0.303-0.568,0.196-1.064
					c-1.969-9.194,1.841-13.449,5.383-15.401c2.285-1.255,5.079-1.92,8.08-1.92c4.812,0,9.686,1.729,12.416,4.405
					c1.971,1.927,3.795,5.236,1.277,10.035c-0.362,0.688-0.095,1.548,0.597,1.911c0.575,0.297,1.454,0.269,1.906-0.599
					c2.591-4.942,1.951-9.689-1.804-13.368C562.38,432.633,557.029,430.693,551.385,430.693z"/>
			</g>
		</g>
	</g>
	<g>
		<path fill="#F5F6F6" d="M236.974,331.436c0.03-0.671,0.075-1.339,0.144-2.012c1.915-18.097,17.897-31.24,35.696-29.358
			c17.805,1.884,30.682,18.076,28.767,36.171c-0.07,0.675-0.167,1.34-0.277,2c0,0-13.423,1.285-33.301-0.816
			C248.125,335.317,236.974,331.436,236.974,331.436z"/>
		<path fill="#3E3B3B" d="M290.265,341.454c-7.309,0-14.9-0.41-22.56-1.222c-19.974-2.112-31.193-5.965-31.662-6.127
			c-1.18-0.412-1.951-1.551-1.894-2.797c0.033-0.727,0.082-1.448,0.155-2.174c1.937-18.289,17.034-32.076,35.117-32.076
			c1.225,0,2.466,0.065,3.69,0.196c19.324,2.045,33.356,19.664,31.281,39.28c-0.075,0.726-0.18,1.451-0.301,2.169
			c-0.212,1.262-1.244,2.224-2.518,2.347C301.402,341.066,297.29,341.454,290.265,341.454z M239.966,329.401
			c4.035,1.166,13.862,3.677,28.334,5.21c7.462,0.788,14.853,1.186,21.965,1.186c3.779,0,6.699-0.117,8.54-0.222
			c1.536-16.372-10.187-30.994-26.289-32.698C256.186,301.182,241.856,313.13,239.966,329.401z"/>
	</g>
	<g>
		<path fill="#F5F6F6" d="M278.094,349.408c-7.29,3.458-23.518,2.481-30.311-2.307"/>
		<path fill="#3E3B3B" d="M266.187,355.039c-7.665,0-15.81-1.786-20.439-5.05c-1.597-1.126-1.978-3.331-0.852-4.926
			c1.122-1.598,3.332-1.979,4.923-0.852c5.591,3.941,20.348,5.045,26.76,2.004c1.764-0.837,3.874-0.086,4.708,1.68
			c0.836,1.763,0.084,3.869-1.678,4.706C276.119,354.256,271.258,355.039,266.187,355.039z"/>
	</g>
	<g>
		<path fill="#F5F6F6" d="M273.049,362.688c-5.976,3.533-19.185,2.742-24.665-1.97"/>
		<path fill="#3E3B3B" d="M262.933,368.434c-6.377,0-13.047-1.766-16.853-5.036c-1.48-1.273-1.648-3.502-0.375-4.982
			c1.275-1.483,3.501-1.649,4.984-0.378c4.164,3.58,15.692,4.484,20.562,1.607c1.678-0.986,3.847-0.438,4.841,1.245
			c0.994,1.68,0.438,3.847-1.244,4.842C271.752,367.561,267.415,368.434,262.933,368.434z"/>
	</g>
	<g>
		<path fill="#F5F6F6" d="M269.407,376.191c-4.611,2.729-14.8,2.118-19.03-1.516"/>
		<path fill="#3E3B3B" d="M261.631,381.403c-5.129,0-10.494-1.415-13.557-4.048c-1.48-1.271-1.649-3.504-0.376-4.982
			c1.271-1.479,3.506-1.653,4.983-0.378c2.96,2.541,11.47,3.197,14.926,1.155c1.675-0.995,3.847-0.438,4.842,1.24
			c0.994,1.68,0.438,3.849-1.241,4.842C268.72,380.706,265.233,381.403,261.631,381.403z"/>
	</g>
	<g>
		<path fill="#F5F6F6" d="M265.76,389.277c-3.705,2.695-12.018,2.426-15.529-0.853"/>
		<path fill="#3E3B3B" d="M258.788,394.673c-4.156,0-8.388-1.253-10.969-3.664c-1.427-1.333-1.503-3.566-0.171-4.995
			c1.333-1.424,3.569-1.508,4.994-0.173c2.18,2.036,8.58,2.368,11.039,0.58c1.58-1.15,3.788-0.802,4.938,0.779
			c1.147,1.579,0.798,3.788-0.78,4.936C265.49,393.845,262.164,394.673,258.788,394.673z"/>
	</g>
	<g>
		<path fill="#F5F6F6" d="M262.179,401.721c-3.19,2.003-10.372,1.773-13.415-0.695"/>
		<path fill="#3E3B3B" d="M256.255,406.599c-3.669,0-7.426-0.97-9.717-2.829c-1.516-1.23-1.747-3.458-0.517-4.969
			c1.229-1.518,3.455-1.749,4.971-0.519c1.796,1.46,7.281,1.727,9.307,0.444c1.654-1.033,3.835-0.539,4.874,1.113
			c1.038,1.653,0.54,3.835-1.112,4.875C262.037,405.983,259.173,406.599,256.255,406.599z"/>
	</g>
	<g>
		<g>
			<path fill="#F5F6F6" d="M301.479,422.922c-1.456-0.046-2.639-1.184-2.739-2.634l-7.572-111.672
				c-0.063-0.955,0.358-1.88,1.125-2.452l18.437-13.809c0.491-0.366,1.087-0.565,1.696-0.565c0.022,0,195.93,4.737,195.93,4.737
				c0.792,0.019,1.541,0.369,2.062,0.967l15.504,17.754c0.531,0.613,0.775,1.425,0.671,2.229l-14.349,109.136
				c-0.186,1.409-1.389,2.461-2.802,2.461C509.414,429.073,301.479,422.922,301.479,422.922z"/>
		</g>
		<g>
			<path fill="#3E3B3B" d="M312.426,294.617l195.862,4.737l15.503,17.759l-14.349,109.135l-207.881-6.153l-7.572-111.67
				L312.426,294.617 M312.426,288.962c-1.222,0-2.411,0.394-3.39,1.129L290.6,303.898c-1.536,1.152-2.384,2.998-2.253,4.909
				l7.575,111.67c0.196,2.903,2.563,5.182,5.473,5.27l207.881,6.147c0.056,0.006,0.111,0.006,0.167,0.006
				c2.829,0,5.231-2.098,5.604-4.919l14.352-109.133c0.211-1.612-0.28-3.234-1.347-4.456l-15.502-17.758
				c-1.042-1.195-2.539-1.896-4.124-1.936l-195.863-4.737C312.518,288.962,312.47,288.962,312.426,288.962L312.426,288.962z"/>
		</g>
	</g>
	<g>
		<g>
			<path fill="#F5F6F6" d="M298.654,449.507c-1.491-0.043-2.694-1.238-2.741-2.733l-4.457-136.278
				c-0.025-0.779,0.275-1.538,0.824-2.088c0.532-0.533,1.252-0.83,2.003-0.83c0.028,0,229.464,6.785,229.464,6.785
				c0.786,0.022,1.529,0.377,2.047,0.97c0.519,0.593,0.767,1.374,0.68,2.159l-14.62,135.715c-0.156,1.439-1.373,2.524-2.811,2.524
				C509.015,455.73,298.654,449.507,298.654,449.507z"/>
		</g>
		<g>
			<path fill="#3E3B3B" d="M294.283,310.404l229.38,6.783L509.04,452.905l-210.303-6.224L294.283,310.404 M294.283,304.749
				c-1.5,0-2.941,0.595-4.004,1.661c-1.101,1.105-1.7,2.616-1.646,4.177l4.454,136.281c0.097,2.985,2.5,5.376,5.485,5.465
				l210.302,6.219c0.059,0.007,0.113,0.007,0.17,0.007c2.876,0,5.311-2.17,5.621-5.051l14.623-135.715
				c0.165-1.566-0.328-3.132-1.361-4.32c-1.036-1.189-2.52-1.891-4.096-1.938l-229.38-6.785
				C294.394,304.749,294.338,304.749,294.283,304.749L294.283,304.749z"/>
		</g>
	</g>
	<g>
		<g>
			<path fill="#F5F6F6" d="M316.062,264.826c-1.561,0-2.827-1.266-2.827-2.827V153.856c0-1.561,1.267-2.826,2.827-2.826h182.356
				c1.561,0,2.827,1.265,2.827,2.826V262c0,1.561-1.267,2.827-2.827,2.827H316.062z"/>
		</g>
		<g>
			<path fill="#3E3B3B" d="M498.419,153.856V262H316.062V153.856H498.419 M498.419,148.202H316.062
				c-3.124,0-5.654,2.532-5.654,5.654V262c0,3.123,2.531,5.653,5.654,5.653h182.356c3.124,0,5.654-2.53,5.654-5.653V153.856
				C504.073,150.733,501.543,148.202,498.419,148.202L498.419,148.202z"/>
		</g>
	</g>
	<g>
		<circle fill="#F5F6F6" cx="360.238" cy="174.001" r="34.988"/>
		<path fill="#3E3B3B" d="M360.239,211.816c-20.852,0-37.816-16.964-37.816-37.815c0-20.851,16.964-37.813,37.816-37.813
			c20.851,0,37.813,16.963,37.813,37.813C398.052,194.853,381.09,211.816,360.239,211.816z M360.239,141.842
			c-17.734,0-32.162,14.426-32.162,32.159c0,17.733,14.428,32.161,32.162,32.161c17.733,0,32.16-14.428,32.16-32.161
			C392.399,156.269,377.972,141.842,360.239,141.842z"/>
	</g>
	<circle fill="#F5F6F6" cx="453.541" cy="174.001" r="34.986"/>
	<path fill="#3E3B3B" d="M453.541,211.816c-20.851,0-37.813-16.964-37.813-37.815c0-20.851,16.963-37.813,37.813-37.813
		s37.812,16.963,37.812,37.813C491.354,194.853,474.392,211.816,453.541,211.816z M453.541,141.842
		c-17.733,0-32.158,14.426-32.158,32.159c0,17.733,14.425,32.161,32.158,32.161s32.159-14.428,32.159-32.161
		C485.7,156.269,471.274,141.842,453.541,141.842z"/>
	<g>
		<circle fill="#3E3B3B" cx="357.587" cy="167.467" r="7.952"/>
	</g>
	<g>
		<circle fill="#3E3B3B" cx="455.132" cy="171.709" r="7.952"/>
	</g>
	<g>
		<path fill="#3E3B3B" d="M405.121,152.091c-0.87,0-1.688-0.542-1.997-1.408l-31.805-89.057c-0.394-1.103,0.181-2.317,1.283-2.71
			c1.097-0.395,2.317,0.182,2.71,1.283l31.805,89.056c0.395,1.104-0.181,2.317-1.282,2.711
			C405.599,152.051,405.357,152.091,405.121,152.091z"/>
	</g>
	<g>
		<path fill="#3E3B3B" d="M406.189,151.906c-0.403,0-0.811-0.113-1.171-0.354c-0.976-0.647-1.242-1.963-0.595-2.939l52.29-78.795
			c0.649-0.977,1.964-1.243,2.938-0.595c0.976,0.648,1.242,1.964,0.595,2.94l-52.29,78.794
			C407.549,151.573,406.876,151.906,406.189,151.906z"/>
	</g>
	<g>
		<circle fill="#F5F6F6" cx="371.548" cy="55.958" r="6.361"/>
		<path fill="#3E3B3B" d="M371.548,64.439c-4.677,0-8.481-3.805-8.481-8.482c0-4.676,3.804-8.479,8.481-8.479
			c4.677,0,8.48,3.804,8.48,8.479C380.028,60.635,376.225,64.439,371.548,64.439z M371.548,51.719c-2.338,0-4.241,1.901-4.241,4.239
			c0,2.338,1.903,4.241,4.241,4.241c2.338,0,4.241-1.903,4.241-4.241C375.789,53.62,373.886,51.719,371.548,51.719z"/>
	</g>
	<g>
		<circle fill="#F5F6F6" cx="460.847" cy="68.21" r="6.361"/>
		<path fill="#3E3B3B" d="M460.848,76.692c-4.678,0-8.481-3.806-8.481-8.482c0-4.677,3.804-8.481,8.481-8.481
			c4.676,0,8.48,3.804,8.48,8.481C469.328,72.887,465.523,76.692,460.848,76.692z M460.848,63.969c-2.338,0-4.241,1.902-4.241,4.241
			c0,2.339,1.903,4.241,4.241,4.241s4.24-1.902,4.24-4.241C465.088,65.872,463.186,63.969,460.848,63.969z"/>
	</g>
	<g>
		<path fill="#3E3B3B" d="M403.74,245.877c-11.068,0-21.37-3.957-26.698-11.454c-0.905-1.272-0.605-3.038,0.667-3.943
			c1.275-0.906,3.038-0.608,3.942,0.667c7.477,10.521,28.322,12.198,42.89,3.455c1.339-0.809,3.077-0.37,3.879,0.969
			c0.804,1.338,0.371,3.076-0.968,3.879C420.222,243.788,411.778,245.877,403.74,245.877z"/>
	</g>
	<g>
		<g>
			<path fill="#F5F6F6" d="M404.358,284.074c-6.501,0-12.936-1.519-17.905-5.061c-1.588-1.134-1.957-3.341-0.826-4.93
				c1.134-1.59,3.343-1.958,4.931-0.827c7.8,5.563,21.894,4.382,30.159-0.21c1.707-0.95,3.858-0.333,4.806,1.372
				c0.947,1.707,0.332,3.858-1.372,4.806C418.735,282.233,411.509,284.074,404.358,284.074z"/>
			<path fill="#3E3B3B" d="M404.358,286.549c-7.585,0-14.274-1.91-19.341-5.521c-2.695-1.924-3.325-5.682-1.407-8.38
				c1.856-2.602,5.779-3.264,8.382-1.407c2.95,2.104,7.335,3.263,12.347,3.263c5.424,0,11.096-1.354,15.175-3.621
				c2.801-1.561,6.614-0.462,8.17,2.331c1.608,2.897,0.563,6.564-2.331,8.17C419.449,284.667,411.798,286.549,404.358,286.549z
				 M388.508,275.074c-0.165,0-0.581,0.043-0.867,0.445c-0.338,0.476-0.228,1.142,0.249,1.481c5.335,3.8,11.9,4.599,16.468,4.599
				c6.624,0,13.4-1.652,18.591-4.538c0.511-0.284,0.695-0.931,0.41-1.442c-0.356-0.641-1.01-0.648-1.44-0.411
				c-4.781,2.658-11.354,4.244-17.579,4.244c-4.268,0-10.374-0.726-15.219-4.181C388.894,275.109,388.662,275.074,388.508,275.074z"
				/>
		</g>
	</g>
	<g>
		<g>
			<path fill="#F5F6F6" d="M404.22,300.332c-7.298,0-14.529-1.707-20.108-5.687c-1.785-1.271-2.2-3.75-0.929-5.538
				c1.275-1.785,3.753-2.198,5.538-0.926c8.761,6.247,24.591,4.922,33.876-0.238c1.917-1.064,4.335-0.373,5.398,1.544
				c1.064,1.914,0.371,4.331-1.544,5.396C420.37,298.262,412.255,300.332,404.22,300.332z"/>
			<path fill="#3E3B3B" d="M404.22,302.808c-8.458,0-15.908-2.127-21.545-6.148c-2.891-2.062-3.567-6.092-1.507-8.988
				c1.994-2.789,6.195-3.498,8.988-1.505c3.364,2.4,8.352,3.719,14.044,3.719c6.141,0,12.568-1.535,17.194-4.104
				c3.012-1.677,7.097-0.49,8.762,2.503c1.725,3.104,0.604,7.034-2.503,8.761C421.064,300.706,412.521,302.808,404.22,302.808z
				 M386.417,289.916c-0.491,0-0.937,0.229-1.221,0.629c-0.477,0.668-0.32,1.604,0.351,2.084c6.058,4.32,13.498,5.227,18.673,5.227
				c7.488,0,15.153-1.87,21.03-5.135c0.349-0.194,0.603-0.513,0.711-0.898c0.111-0.382,0.064-0.787-0.128-1.134
				c-0.387-0.695-1.324-0.975-2.037-0.584c-5.325,2.96-12.651,4.729-19.596,4.729c-4.749,0-11.54-0.804-16.915-4.637
				C386.962,289.966,386.635,289.916,386.417,289.916z"/>
		</g>
	</g>
	<g>
		<g>
			<path fill="#3E3B3B" d="M357.606,469.994c-7.461-0.254-14.804-2.028-20.388-5.769c-1.788-1.193-2.134-3.418-0.779-4.96
				c1.355-1.544,3.906-1.821,5.691-0.63c8.767,5.871,24.997,5.25,34.653,0.993c1.992-0.882,4.443-0.185,5.474,1.556
				c1.028,1.747,0.247,3.874-1.746,4.752C374.189,468.731,365.824,470.279,357.606,469.994z"/>
		</g>
	</g>
	<g>
		<g>
			<path fill="#3E3B3B" d="M358.455,506.804c-7.464-0.26-14.806-2.034-20.391-5.774c-1.785-1.191-2.134-3.414-0.776-4.954
				c1.355-1.546,3.902-1.827,5.69-0.631c8.767,5.868,24.997,5.249,34.651,0.988c1.996-0.88,4.445-0.181,5.477,1.562
				c1.028,1.745,0.247,3.867-1.746,4.749C375.037,505.535,366.673,507.087,358.455,506.804z"/>
		</g>
	</g>
	<g>
		<g>
			<path fill="#3E3B3B" d="M360.35,482.622c-6.804,0.071-13.559-1.28-18.797-4.547c-1.674-1.046-2.082-3.108-0.912-4.611
				c1.172-1.505,3.479-1.872,5.153-0.826c8.223,5.122,22.965,3.863,31.577-0.535c1.776-0.904,4.035-0.353,5.044,1.234
				c1.012,1.591,0.388,3.613-1.389,4.521C375.386,480.737,367.839,482.544,360.35,482.622z"/>
		</g>
	</g>
	<g>
		<g>
			<path fill="#3E3B3B" d="M361.373,494.228c-6.805,0.074-13.556-1.312-18.794-4.66c-1.677-1.066-2.084-3.181-0.915-4.717
				c1.169-1.542,3.476-1.917,5.152-0.849c8.223,5.249,22.965,3.964,31.574-0.537c1.779-0.932,4.038-0.361,5.047,1.267
				c1.009,1.626,0.389,3.699-1.388,4.624C376.409,492.307,368.862,494.152,361.373,494.228z"/>
		</g>
	</g>
	<g>
		<g>
			<path fill="#F5F6F6" d="M348.042,548.265c-20.316,0-30.879-5.504-31.317-5.739c-1.022-0.546-1.61-1.661-1.48-2.808
				c0.066-0.611,1.763-14.981,10.219-21.736c3.722-2.971,10.135-4.48,19.063-4.48c9.183,0,20.225,1.727,28.816,4.505
				c13.634,4.415,13.864,18.273,12.076,24.986c-0.266,1.001-1.056,1.774-2.059,2.024c-0.449,0.104-11.214,2.688-32.495,3.215
				c-0.961,0.022-1.901,0.033-2.821,0.033H348.042z"/>
		</g>
		<g>
			<path fill="#3E3B3B" d="M344.527,516.327c9.183,0,19.822,1.743,27.946,4.372c14.687,4.751,10.214,21.567,10.214,21.567
				s-10.671,2.614-31.891,3.138c-0.939,0.022-1.854,0.034-2.755,0.034c-19.842,0-29.986-5.409-29.986-5.409
				s1.535-13.738,9.171-19.839C330.641,517.467,337.107,516.327,344.527,516.327 M344.527,510.672
				c-9.584,0-16.59,1.716-20.829,5.102c-9.202,7.354-11.081,21.982-11.264,23.627c-0.257,2.3,0.915,4.529,2.96,5.618
				c0.465,0.248,11.632,6.073,32.647,6.073c0.953,0,1.929-0.01,2.896-0.032c21.583-0.535,32.633-3.185,33.096-3.3
				c2.006-0.492,3.586-2.04,4.119-4.041c0.146-0.542,1.394-5.502,0.529-11.291c-1.261-8.422-6.399-14.499-14.468-17.109
				C365.359,512.453,353.984,510.672,344.527,510.672L344.527,510.672z"/>
		</g>
	</g>
	<g>
		<g>
			<g>
				<path fill="#3E3B3B" d="M443.619,472.793c7.466,0,14.866-1.52,20.576-5.061c1.826-1.13,2.25-3.336,0.95-4.928
					c-1.302-1.591-3.839-1.958-5.668-0.826c-8.963,5.56-25.163,4.382-34.665-0.213c-1.959-0.947-4.434-0.33-5.523,1.374
					c-1.089,1.708-0.382,3.858,1.577,4.806C427.091,470.956,435.398,472.793,443.619,472.793z"/>
			</g>
		</g>
		<g>
			<g>
				<path fill="#3E3B3B" d="M441.498,509.552c7.467,0,14.867-1.52,20.577-5.062c1.825-1.137,2.25-3.343,0.95-4.928
					c-1.302-1.591-3.839-1.963-5.668-0.826c-8.963,5.561-25.16,4.38-34.665-0.214c-1.962-0.947-4.435-0.334-5.524,1.372
					c-1.089,1.708-0.381,3.861,1.577,4.807C424.971,507.71,433.277,509.552,441.498,509.552z"/>
			</g>
		</g>
		<g>
			<g>
				<path fill="#3E3B3B" d="M440.442,485.32c6.796,0.306,13.592-0.814,18.941-3.896c1.708-0.986,2.187-3.034,1.07-4.576
					c-1.118-1.542-3.41-1.991-5.122-1.005c-8.394,4.839-23.086,3.065-31.538-1.624c-1.747-0.971-4.02-0.494-5.084,1.058
					c-1.063,1.553-0.512,3.599,1.23,4.564C425.479,482.915,432.959,484.984,440.442,485.32z"/>
			</g>
		</g>
		<g>
			<g>
				<path fill="#3E3B3B" d="M439.018,496.884c6.796,0.305,13.595-0.846,18.943-4.007c1.714-1.014,2.193-3.109,1.079-4.688
					c-1.116-1.577-3.409-2.037-5.121-1.021c-8.399,4.96-23.092,3.164-31.54-1.631c-1.743-0.992-4.019-0.502-5.088,1.089
					c-1.063,1.592-0.513,3.684,1.23,4.676C424.055,494.439,431.535,496.547,439.018,496.884z"/>
			</g>
		</g>
		<g>
			<g>
				<path fill="#F5F6F6" d="M447.669,549.755c-22.058,0-32.606-4.511-33.048-4.699c-0.831-0.369-1.433-1.118-1.604-2.012
					c-1.305-6.77-0.265-20.522,13.005-24.125c6.909-1.874,15.335-2.949,23.115-2.949c7.583,0,17.684,0.997,22.735,5.763
					c7.792,7.343,7.087,20.549,7.052,21.11c-0.053,0.888-0.532,1.693-1.286,2.167c-0.696,0.441-7.342,4.297-26.397,4.709
					C450.019,549.745,448.827,549.755,447.669,549.755z"/>
			</g>
			<g>
				<path fill="#3E3B3B" d="M449.137,518.736c8.95,0,17.093,1.475,20.84,5.01c6.938,6.537,6.187,18.927,6.187,18.927
					s-6.142,3.873-24.98,4.277c-1.203,0.028-2.376,0.041-3.514,0.041c-21.73,0-31.936-4.469-31.936-4.469
					s-3.287-17.054,11.011-20.936C433.321,519.807,441.521,518.736,449.137,518.736 M449.137,513.204L449.137,513.204
					c-8.013,0-16.702,1.109-23.838,3.045c-7.887,2.143-13.157,7.878-14.843,16.158c-1.149,5.658-0.261,10.614-0.155,11.163
					c0.344,1.784,1.547,3.285,3.213,4.018c0.46,0.201,11.527,4.934,34.155,4.934c1.193,0,2.413-0.015,3.633-0.039
					c19.391-0.418,26.571-4.345,27.813-5.133c1.504-0.947,2.461-2.562,2.568-4.343c0.092-1.534,0.66-15.207-7.912-23.286
					C468.059,514.334,457.223,513.204,449.137,513.204L449.137,513.204z"/>
			</g>
		</g>
	</g>
	<g>
		<g>
			<path fill="#F5F6F6" d="M267.138,436.051c9.822-22.31-32.982-27.493-34.781-8.512"/>
			<path fill="#3E3B3B" d="M269.725,437.189l-5.175-2.278c1.934-4.391,1.569-8.094-1.084-11.003
				c-4.225-4.635-13.816-6.533-20.938-4.163c-3.105,1.04-6.904,3.278-7.357,8.059l-5.629-0.531
				c0.569-6.006,4.649-10.704,11.194-12.892c9.333-3.108,21.15-0.601,26.91,5.719C271.822,424.681,272.561,430.75,269.725,437.189z"
				/>
		</g>
		<g>
			<path fill="#F5F6F6" d="M266.628,440.261c-0.405-0.051-0.807-0.155-1.201-0.328c-2.142-0.947-3.115-3.451-2.172-5.592
				c1.712-3.886,1.441-6.986-0.832-9.479c-3.892-4.27-12.794-5.998-19.446-3.775c-2.708,0.906-6.014,2.828-6.397,6.852
				c-0.222,2.333-2.29,4.045-4.623,3.824c-2.361-0.205-4.042-2.289-3.822-4.622c0.623-6.587,5.055-11.726,12.153-14.096
				c9.817-3.283,22.292-0.601,28.404,6.103c4.575,5.021,5.399,11.629,2.325,18.615C270.248,439.513,268.435,440.482,266.628,440.261
				z"/>
			<path fill="#3E3B3B" d="M267.139,443.117c-0.284,0-0.57-0.017-0.855-0.049c-0.69-0.086-1.358-0.269-1.987-0.544
				c-3.574-1.583-5.196-5.762-3.63-9.323c1.589-3.605,0.723-5.278-0.333-6.435c-2.084-2.289-6.515-3.822-11.024-3.822
				c-1.938,0-3.819,0.284-5.436,0.824c-4.19,1.4-4.406,3.687-4.478,4.438c-0.368,3.873-3.755,6.715-7.705,6.373
				c-1.857-0.164-3.556-1.048-4.761-2.494c-1.216-1.455-1.787-3.308-1.608-5.21c0.733-7.751,5.863-13.771,14.072-16.512
				c3.063-1.027,6.377-1.546,9.846-1.546c8.55,0,16.805,3.228,21.543,8.424c5.294,5.81,6.324,13.704,2.823,21.658
				C272.479,441.463,269.939,443.117,267.139,443.117z M249.309,417.286c6.189,0,12.015,2.174,15.204,5.67
				c2.107,2.312,4.045,6.363,1.329,12.523c-0.313,0.711,0.014,1.552,0.729,1.868c0.119,0.053,0.255,0.088,0.403,0.108l0.165,0.008
				c0.56,0,1.065-0.33,1.29-0.843c2.634-5.985,2.002-11.37-1.827-15.57c-3.7-4.058-10.353-6.578-17.364-6.578
				c-2.859,0-5.568,0.421-8.053,1.249c-5.991,2.006-9.722,6.263-10.235,11.685c-0.036,0.39,0.077,0.767,0.323,1.058
				c0.164,0.197,0.458,0.441,0.93,0.482c0.005,0,0.014,0,0.021,0c0.88,0,1.473-0.548,1.542-1.275
				c0.41-4.319,3.363-7.608,8.313-9.265C244.301,417.664,246.731,417.286,249.309,417.286z"/>
		</g>
	</g>
	<g>
		<g>
			<g>
				<path fill="#F5F6F6" d="M454.06,381.252c-3.343,22.339-23.855,37.841-45.933,37.927c-22.079-0.086-42.591-15.588-45.937-37.927
					c-3.364-22.238,17.134-43.719,45.937-43.708C436.931,337.533,457.424,359.014,454.06,381.252z"/>
			</g>
			<g>
				<path fill="#3E3B3B" d="M408.127,422.477c-0.004,0-0.008,0-0.012,0c-24.578-0.095-45.724-17.608-49.187-40.736
					c-1.618-10.69,1.674-21.447,9.27-30.277c9.411-10.941,23.957-17.219,39.907-17.219c15.994,0,30.538,6.277,39.946,17.213
					c7.596,8.834,10.889,19.589,9.269,30.289c-3.459,23.122-24.603,40.636-49.181,40.73
					C408.137,422.477,408.132,422.477,408.127,422.477z M408.15,340.841c-14.071,0-26.794,5.438-34.949,14.925
					c-6.324,7.349-9.076,16.228-7.75,24.994c2.986,19.938,21.331,35.032,42.676,35.12c21.345-0.088,39.688-15.183,42.67-35.116
					c1.327-8.774-1.424-17.651-7.746-25.003C434.896,346.279,422.176,340.841,408.15,340.841z"/>
			</g>
		</g>
		<g>
			<g>
				<path fill="#F5F6F6" d="M440.278,380.385c-2.339,15.635-16.695,26.489-32.151,26.549c-15.454-0.06-29.814-10.914-32.156-26.549
					c-2.355-15.568,11.993-30.605,32.156-30.595C428.289,349.779,442.635,364.816,440.278,380.385z"/>
			</g>
			<g>
				<path fill="#3E3B3B" d="M408.14,409.759c-17.83-0.065-33.15-12.775-35.664-29.557c-0.29-1.932,1.041-3.73,2.971-4.02
					c1.928-0.315,3.731,1.042,4.02,2.972c2,13.365,14.329,23.48,28.675,23.536c6.236-0.022,12.488-2.061,17.573-5.741
					c1.583-1.143,3.791-0.79,4.936,0.789c1.145,1.583,0.79,3.792-0.791,4.936C423.584,407.216,415.87,409.73,408.14,409.759z"/>
			</g>
		</g>
		<g>
			<circle fill="#3E3B3B" cx="407.421" cy="381.642" r="4.947"/>
		</g>
		<g>
			<g>
				<polygon fill="#3E3B3B" points="405.123,358.742 407.421,385.88 410.781,357.683 				"/>
			</g>
			<g>
				<g>
					<path fill="#3E3B3B" d="M401.237,363.869c-0.103,0-0.203-0.045-0.269-0.123c-0.083-0.097-0.108-0.231-0.063-0.354l6.45-17.58
						c0.05-0.137,0.177-0.228,0.319-0.229c0.005-0.004,0.009-0.004,0.014-0.004c0.139,0,0.266,0.084,0.324,0.211l6.626,14.931
						c0.042,0.101,0.039,0.211-0.01,0.308c-0.048,0.096-0.14,0.164-0.244,0.187l-13.076,2.649
						C401.285,363.869,401.26,363.869,401.237,363.869z"/>
				</g>
				<g>
					<path fill="#3E3B3B" d="M407.688,345.933l6.627,14.931l-13.077,2.651L407.688,345.933 M407.688,345.226
						c-0.009,0-0.018,0-0.025,0c-0.288,0.01-0.539,0.194-0.638,0.463l-6.452,17.584c-0.09,0.242-0.039,0.507,0.127,0.703
						c0.135,0.16,0.333,0.248,0.538,0.248c0.044,0,0.093-0.006,0.139-0.017l13.076-2.651c0.21-0.041,0.391-0.176,0.491-0.364
						c0.097-0.193,0.103-0.417,0.017-0.613l-6.628-14.931C408.22,345.392,407.965,345.226,407.688,345.226L407.688,345.226z"/>
				</g>
			</g>
		</g>
		<g>
			<g>
				<polygon fill="#3E3B3B" points="424.675,374.86 402.934,382.427 426.725,379.271 				"/>
			</g>
			<g>
				<g>
					<path fill="#3E3B3B" d="M424.863,383.128c-0.021,0-0.047-0.002-0.066-0.008c-0.089-0.017-0.164-0.078-0.205-0.16l-4.906-10.15
						c-0.051-0.101-0.039-0.215,0.022-0.304c0.055-0.078,0.149-0.129,0.243-0.129c0.012,0,15.779,1.604,15.779,1.604
						c0.123,0.01,0.223,0.092,0.255,0.209c0.036,0.117-0.005,0.244-0.1,0.32l-10.839,8.555
						C424.993,383.107,424.927,383.128,424.863,383.128z"/>
				</g>
				<g>
					<path fill="#3E3B3B" d="M419.951,372.677l15.748,1.599l-10.836,8.558L419.951,372.677 M419.951,372.082
						c-0.193,0-0.376,0.094-0.487,0.252c-0.125,0.176-0.145,0.41-0.05,0.603l4.911,10.156c0.077,0.16,0.228,0.279,0.401,0.322
						c0.045,0.009,0.09,0.013,0.137,0.013c0.132,0,0.264-0.043,0.368-0.13l10.84-8.555c0.188-0.147,0.272-0.399,0.202-0.636
						c-0.068-0.233-0.271-0.401-0.513-0.427l-15.748-1.597C419.993,372.082,419.974,372.082,419.951,372.082L419.951,372.082z"/>
				</g>
			</g>
		</g>
	</g>
	<g>
		<path fill="#F5F6F6" d="M352.085,535.088c-6.247,1.971-19.34,0.438-24.41-3.197"/>
		<path fill="#3E3B3B" d="M344.937,539.476c-6.874,0-14.974-1.595-19.321-4.714c-1.587-1.137-1.95-3.345-0.812-4.93
			c1.139-1.587,3.346-1.956,4.931-0.814c4.005,2.875,15.945,4.389,21.287,2.701c1.863-0.583,3.849,0.446,4.434,2.305
			c0.587,1.864-0.447,3.847-2.308,4.436C350.992,539.138,348.093,539.476,344.937,539.476z"/>
	</g>
	<g>
		<path fill="#F5F6F6" d="M467.967,535.424c-4.528,4.977-18.312,4.271-24.553,2.508"/>
		<path fill="#3E3B3B" d="M454.466,542.769c-4.977,0-9.629-0.763-12.013-1.435c-1.88-0.531-2.972-2.485-2.441-4.364
			c0.531-1.876,2.48-2.976,4.361-2.438c6.168,1.74,18.021,1.771,20.98-1.487c1.312-1.445,3.549-1.552,4.992-0.235
			c1.443,1.314,1.548,3.55,0.235,4.993C467.098,541.633,460.542,542.769,454.466,542.769z"/>
	</g>
</g>
</svg>
