<?xml version="1.0" encoding="utf-8"?>
<!-- Generator: Adobe Illustrator 16.0.4, SVG Export Plug-In . SVG Version: 6.00 Build 0)  -->
<!DOCTYPE svg PUBLIC "-//W3C//DTD SVG 1.1//EN" "http://www.w3.org/Graphics/SVG/1.1/DTD/svg11.dtd">
<svg version="1.1" id="Layer_1" xmlns="http://www.w3.org/2000/svg" xmlns:xlink="http://www.w3.org/1999/xlink" x="0px" y="0px"
	 width="800px" height="600px" viewBox="0 0 800 600" enable-background="new 0 0 800 600" xml:space="preserve">
<rect fill="#F5F6F6" width="800" height="600"/>
<g>
	<g>
		<g>
			<path fill="#F5F5F5" stroke="#3D3A3A" stroke-width="5" stroke-miterlimit="10" d="M527.344,157.712
				c29.363,102.79-35.702,98.538-62.73,91.754l4.768,18.885c22.901,6.773,112.585,14.134,74.932-113.264L527.344,157.712z"/>
			<path fill="#F5F5F5" stroke="#3D3A3A" stroke-width="5" stroke-linejoin="round" stroke-miterlimit="10" d="M531.545,145.136
				c-10.916,2.092-22.108-5.476-26.279-17.238c-1.514,4.205-1.859,8.889-0.746,13.628c3.174,13.491,16.961,22.28,30.794,19.629
				c13.832-2.65,22.474-15.737,19.3-29.228c-1.114-4.739-3.542-8.892-6.816-12.179C549.279,132.025,542.462,143.044,531.545,145.136
				z"/>
		</g>
		<path fill="#F5F5F5" stroke="#3D3A3A" stroke-width="5" stroke-linejoin="round" stroke-miterlimit="10" d="M496.833,251.874
			c-1.333,8,0.001,16,5.334,20"/>
		<path fill="#F5F5F5" stroke="#3D3A3A" stroke-width="5" stroke-linejoin="round" stroke-miterlimit="10" d="M516,244.208
			c1,6,3,17.5,14.5,17"/>
		<path fill="#F5F5F5" stroke="#3D3A3A" stroke-width="5" stroke-linejoin="round" stroke-miterlimit="10" d="M529.693,230.232
			c4.383,6.767,11.234,12.895,19.083,9.954"/>
		<path fill="#F5F5F5" stroke="#3D3A3A" stroke-width="5" stroke-linejoin="round" stroke-miterlimit="10" d="M533.71,208.453
			c3.432,4.497,12.848,5.761,18.964,1.538"/>
		<path fill="#F5F5F5" stroke="#3D3A3A" stroke-width="5" stroke-linejoin="round" stroke-miterlimit="10" d="M533.5,185.208
			c5,3,14.5,3.5,17.5-1.5"/>
	</g>
	<path fill="#3D3A3A" stroke="#3D3A3A" stroke-width="5" stroke-miterlimit="10" d="M414.033,217.781c0,3.146-1.791,5.698-4,5.698
		H382.7c-2.209,0-4-2.551-4-5.698v-11.396c0-3.146,1.791-5.698,4-5.698h27.333c2.209,0,4,2.551,4,5.698V217.781z"/>
	<g>
		<g>
			<path fill="#F5F5F5" stroke="#3D3A3A" stroke-width="5" stroke-miterlimit="10" d="M293.42,374.363
				c-47.854-97.071,10.742-104.869,36.5-103.177l-8.227-17.953c-22.04-2.456-104.359,7.054-43.914,127.127L293.42,374.363z"/>
			<path fill="#F5F5F5" stroke="#3D3A3A" stroke-width="5" stroke-linejoin="round" stroke-miterlimit="10" d="M291.355,387.892
				c9.397-4.139,21.054,1.311,27.261,12.266c0.488-4.479-0.176-9.221-2.166-13.741c-5.667-12.869-19.917-19.049-31.826-13.803
				c-11.909,5.245-16.968,19.93-11.3,32.798c1.99,4.521,5.042,8.21,8.676,10.874C278.108,404.311,281.956,392.031,291.355,387.892z"
				/>
		</g>
		<path fill="#F5F5F5" stroke="#3D3A3A" stroke-width="5" stroke-linejoin="round" stroke-miterlimit="10" d="M292.933,254.725
			c-0.076,6.7-1.551,13.914,5.147,20.026"/>
		<path fill="#F5F5F5" stroke="#3D3A3A" stroke-width="5" stroke-linejoin="round" stroke-miterlimit="10" d="M265.76,275.846
			c1.25,6.847,5.371,12.003,14.573,13.698"/>
		<path fill="#F5F5F5" stroke="#3D3A3A" stroke-width="5" stroke-linejoin="round" stroke-miterlimit="10" d="M255.666,306.249
			c5.373,5.964,13.655,6.887,18.735,3.429"/>
		<path fill="#F5F5F5" stroke="#3D3A3A" stroke-width="5" stroke-linejoin="round" stroke-miterlimit="10" d="M259.891,334.558
			c4.379,4.345,13.692,3.536,17.817-3.382"/>
		<path fill="#F5F5F5" stroke="#3D3A3A" stroke-width="5" stroke-linejoin="round" stroke-miterlimit="10" d="M268.717,360.696
			c5.65,0.461,12.664-3.788,14.727-8.758"/>
	</g>
	<path fill="#3D3A3A" stroke="#3D3A3A" stroke-width="5" stroke-miterlimit="10" d="M356.379,526.459
		c-34.879-87.661-13.879-92.25,36.087-136.678L366.5,375.209c-59,51-60,86.589-29,157.589L356.379,526.459z"/>
	<path fill="#F5F5F5" stroke="#3D3A3A" stroke-width="5" stroke-miterlimit="10" d="M378.981,554.474
		c1,18.476-65.903,22.096-66.903,3.619c-0.999-18.475,13.167-34.261,31.642-35.26C362.195,521.832,377.981,535.999,378.981,554.474z
		"/>
	<path fill="#3D3A3A" stroke="#3D3A3A" stroke-width="5" stroke-miterlimit="10" d="M424.47,521.691
		c43.669-83.63,26.492-84.614-18.663-133.925l27.922-11.062c53.469,56.771,46.978,85.771,8.871,153.225L424.47,521.691z"/>
	<path fill="#F5F5F5" stroke="#3D3A3A" stroke-width="5" stroke-miterlimit="10" d="M399.248,548.618
		c-2.028,18.392,64.568,25.731,66.597,7.341c2.026-18.39-11.239-34.94-29.629-36.969
		C417.824,516.963,401.274,530.229,399.248,548.618z"/>
	<g>
		<path fill="#F5F5F5" d="M396.425,404.709c-14.822,0-30.359-8.731-43.75-24.587c-21.271-25.186-40.378-73.438-30.214-133.332
			c0.051-0.299,0.156-0.586,0.309-0.848c10.695-18.21,46.161-24.672,73.282-24.672c27.358,0,63.16,6.458,74.02,24.657
			c0.153,0.257,0.26,0.54,0.313,0.835c10.679,58.854-8.307,107.123-29.636,132.67C427.141,395.732,411.399,404.709,396.425,404.709z
			"/>
		<path fill="#3D3A3A" d="M396.051,223.771c31.25,0,62.586,7.875,71.874,23.438c15.242,84-31,155-71.5,155s-85.925-70-71.5-155
			C334.138,231.522,365.052,223.771,396.051,223.771 M396.054,218.771v5l-0.001-5c-16.372,0-32.422,2.151-45.196,6.055
			c-15.03,4.594-25.205,11.272-30.243,19.851c-0.307,0.523-0.517,1.098-0.618,1.696c-4.47,26.34-3.54,53.319,2.689,78.021
			c5.668,22.475,15.378,42.303,28.08,57.343c13.874,16.427,30.09,25.474,45.66,25.474c15.729,0,32.151-9.296,46.243-26.174
			c12.699-15.212,22.364-35.078,27.951-57.451c6.155-24.65,6.925-51.369,2.226-77.268c-0.107-0.59-0.319-1.155-0.626-1.67
			c-5.011-8.396-15.572-15.234-30.542-19.777C428.715,220.937,412.513,218.771,396.054,218.771L396.054,218.771z"/>
	</g>
	<g>
		<path fill="#F5F5F5" d="M320.284,176.38c-3.499,0-6.35-2.739-6.493-6.236l-0.742-18.318c-0.146-3.581,2.65-6.612,6.231-6.758
			l9.326-0.378c0.089-0.003,0.178-0.005,0.266-0.005c3.5,0,6.351,2.74,6.492,6.238l0.743,18.317c0.07,1.735-0.539,3.393-1.716,4.67
			c-1.177,1.276-2.781,2.018-4.516,2.088l-9.325,0.378C320.46,176.378,320.372,176.38,320.284,176.38z"/>
		<path fill="#3D3A3A" d="M328.872,147.184c2.134,0,3.907,1.686,3.994,3.838l0.743,18.318c0.09,2.207-1.628,4.069-3.835,4.159
			l-9.325,0.378c-0.055,0.002-0.11,0.003-0.165,0.003c-2.134,0-3.907-1.686-3.995-3.838l-0.742-18.318
			c-0.09-2.208,1.628-4.069,3.835-4.159l9.325-0.378C328.762,147.185,328.817,147.184,328.872,147.184 M328.872,142.184
			L328.872,142.184h-0.001c-0.122,0-0.244,0.002-0.366,0.007l-9.325,0.378c-4.959,0.202-8.83,4.4-8.628,9.358l0.742,18.317
			c0.197,4.842,4.146,8.635,8.991,8.635c0.122,0,0.245-0.002,0.367-0.007l9.325-0.378c2.401-0.098,4.622-1.125,6.252-2.892
			c1.63-1.768,2.474-4.064,2.376-6.466l-0.743-18.317C337.666,145.978,333.718,142.184,328.872,142.184L328.872,142.184z"/>
	</g>
	<g>
		<path fill="#F5F5F5" d="M461.168,170.668c-3.498,0-6.35-2.739-6.492-6.236l-0.742-18.318c-0.07-1.734,0.539-3.393,1.716-4.669
			s2.78-2.018,4.515-2.088l9.326-0.378c0.089-0.003,0.179-0.005,0.267-0.005c3.498,0,6.349,2.739,6.491,6.236l0.742,18.318
			c0.07,1.734-0.539,3.393-1.716,4.669c-1.177,1.277-2.78,2.019-4.515,2.089l-9.325,0.378
			C461.346,170.667,461.256,170.668,461.168,170.668z"/>
		<path fill="#3D3A3A" d="M469.757,141.473c2.134,0,3.905,1.686,3.993,3.838l0.742,18.318c0.09,2.207-1.627,4.069-3.834,4.159
			l-9.325,0.378c-0.056,0.002-0.11,0.003-0.165,0.003c-2.135,0-3.906-1.686-3.994-3.838l-0.742-18.318
			c-0.09-2.208,1.627-4.069,3.834-4.159l9.326-0.378C469.647,141.474,469.702,141.473,469.757,141.473 M469.757,136.473
			c-0.122,0-0.244,0.002-0.368,0.007l-9.325,0.378c-2.402,0.098-4.623,1.125-6.252,2.892c-1.63,1.768-2.474,4.064-2.376,6.466
			l0.742,18.317c0.197,4.842,4.146,8.635,8.99,8.635c0.122,0,0.244-0.002,0.367-0.007l9.325-0.378
			c2.402-0.098,4.623-1.125,6.252-2.892c1.63-1.768,2.474-4.064,2.376-6.466l-0.742-18.317
			C478.549,140.266,474.601,136.473,469.757,136.473L469.757,136.473z"/>
	</g>
	<g>
		<path fill="#F5F5F5" d="M386.135,208.084c-21.891,0-39.923-2.75-49.471-7.544l-0.425-0.213l-0.317-0.354
			c-9.604-10.735-11.812-65.194-3.108-76.673l0.146-0.192l0.18-0.161c11.684-10.442,37.952-17.189,66.922-17.189
			c23.668,0,43.051,4.497,53.179,12.337l0.128,0.099l0.114,0.114c3.587,3.605,7.725,15.489,8.58,38.033
			c0.558,14.701-0.569,32.605-5.406,38.769l-0.278,0.354l-0.385,0.235C442.002,204.254,410.825,208.084,386.135,208.084z"/>
		<path fill="#3D3A3A" d="M400.062,108.257c21.114,0,41.317,3.816,51.648,11.814c9.042,9.086,10.91,63.388,2.979,73.495
			c-12.714,7.774-41.754,12.018-68.555,12.018c-19.863,0-38.493-2.329-48.35-7.278c-8.736-9.765-10.896-63.055-2.979-73.495
			C346.903,113.999,374.167,108.257,400.062,108.257 M400.063,103.257h-0.001c-22.439,0-53.867,4.668-68.588,17.825l-0.36,0.322
			l-0.292,0.385c-6.516,8.593-6.062,32.96-5.767,40.224c0.294,7.264,1.814,31.589,9.004,39.626l0.634,0.708l0.849,0.426
			c14.039,7.049,40.058,7.81,50.593,7.81c13.804,0,28.146-1.123,40.382-3.162c9.467-1.577,22.491-4.521,30.781-9.59l0.769-0.47
			l0.557-0.709c6.612-8.427,6.217-33.058,5.938-40.407c-0.325-8.584-1.209-16.632-2.555-23.272
			c-1.652-8.15-3.86-13.524-6.752-16.429l-0.228-0.229l-0.256-0.198C444.213,107.945,424.272,103.257,400.063,103.257
			L400.063,103.257z"/>
	</g>
	<g>
		<path fill="#3D3A3A" d="M367.076,137.969c8.093,0,14.813,6.393,15.144,14.553c0.34,8.369-6.171,15.429-14.54,15.769
			c-0.209,0.008-0.418,0.013-0.625,0.013c-8.094,0-14.813-6.392-15.144-14.553c-0.34-8.369,6.17-15.429,14.54-15.769
			C366.66,137.974,366.869,137.969,367.076,137.969 M367.077,132.969L367.077,132.969c-0.275,0-0.552,0.005-0.829,0.017
			c-5.382,0.218-10.358,2.52-14.009,6.48c-3.652,3.96-5.542,9.105-5.324,14.487c0.439,10.851,9.286,19.35,20.14,19.35
			c0.274,0,0.551-0.005,0.828-0.017c5.382-0.218,10.357-2.52,14.009-6.479c3.652-3.96,5.543-9.106,5.325-14.488
			C386.776,141.469,377.931,132.969,367.077,132.969L367.077,132.969z"/>
	</g>
	<g>
		<path fill="#3D3A3A" d="M421.032,133.782c8.093,0,14.812,6.392,15.144,14.552c0.339,8.37-6.171,15.43-14.54,15.769
			c-0.209,0.008-0.418,0.013-0.625,0.013c-8.095,0-14.813-6.393-15.145-14.553c-0.339-8.369,6.171-15.429,14.541-15.768
			C420.616,133.787,420.825,133.782,421.032,133.782 M421.033,128.782L421.033,128.782c-0.275,0-0.552,0.005-0.828,0.017
			c-11.111,0.451-19.785,9.856-19.335,20.966c0.44,10.852,9.287,19.351,20.141,19.351c0.274,0,0.551-0.005,0.827-0.017
			c11.11-0.451,19.783-9.856,19.334-20.967C440.731,137.281,431.885,128.782,421.033,128.782L421.033,128.782z"/>
	</g>
	<circle fill="#3D3A3A" cx="367.905" cy="152.269" r="3.667"/>
	<circle fill="#3D3A3A" cx="419.862" cy="148.123" r="3.667"/>
	
		<line fill="#F5F5F5" stroke="#3D3A3A" stroke-width="5" stroke-linecap="round" stroke-miterlimit="10" x1="344.586" y1="69.813" x2="359.583" y2="110.573"/>
	
		<line fill="#F5F5F5" stroke="#3D3A3A" stroke-width="5" stroke-linecap="round" stroke-miterlimit="10" x1="427.599" y1="43.763" x2="417.481" y2="106.891"/>
	<g>
		<path fill="#F5F5F5" d="M342.312,68.067c-2.6,0-4.718-2.038-4.824-4.638c-0.108-2.663,1.971-4.917,4.633-5.025l0.201-0.004
			c2.6,0,4.719,2.037,4.825,4.638c0.052,1.291-0.401,2.524-1.276,3.473c-0.875,0.949-2.068,1.5-3.358,1.553L342.312,68.067z"/>
		<path fill="#3D3A3A" d="M342.323,60.899c1.253,0,2.275,0.984,2.326,2.239c0.034,0.84-0.371,1.411-0.616,1.677
			c-0.245,0.265-0.781,0.716-1.622,0.75l-0.1,0.002c-1.253,0-2.275-0.984-2.326-2.24c-0.052-1.286,0.951-2.374,2.237-2.426
			L342.323,60.899 M342.323,55.899c-0.1,0-0.201,0.002-0.302,0.006c-4.047,0.164-7.194,3.578-7.03,7.625
			c0.16,3.946,3.409,7.037,7.322,7.037c0.1,0,0.201-0.002,0.302-0.006c4.048-0.164,7.195-3.578,7.031-7.625
			C349.485,58.99,346.237,55.899,342.323,55.899L342.323,55.899z"/>
	</g>
	<g>
		<path fill="#F5F5F5" d="M428.323,41.896c-2.6,0-4.719-2.038-4.824-4.638c-0.108-2.663,1.971-4.917,4.634-5.025l0.201-0.004
			c2.6,0,4.719,2.038,4.824,4.638c0.053,1.29-0.4,2.523-1.276,3.473c-0.875,0.949-2.067,1.5-3.358,1.553L428.323,41.896z"/>
		<path fill="#3D3A3A" d="M428.334,34.728c1.254,0,2.275,0.984,2.326,2.24c0.034,0.84-0.371,1.411-0.616,1.676
			c-0.244,0.265-0.78,0.716-1.622,0.75l-0.099,0.002c-1.254,0-2.275-0.984-2.326-2.24c-0.053-1.286,0.951-2.374,2.237-2.426
			L428.334,34.728 M428.334,29.728c-0.101,0-0.202,0.002-0.303,0.006c-4.047,0.164-7.194,3.578-7.03,7.625
			c0.16,3.946,3.408,7.037,7.322,7.037c0.1,0,0.201-0.002,0.302-0.006c4.048-0.164,7.195-3.578,7.031-7.625
			C435.496,32.818,432.247,29.728,428.334,29.728L428.334,29.728z"/>
	</g>
	<g>
		<g>
			<path fill="#3D3A3A" d="M356.425,274.708c-6.065,0-11-4.935-11-11s4.935-11,11-11s11,4.935,11,11S362.49,274.708,356.425,274.708
				z"/>
			<path fill="#3D3A3A" d="M356.425,255.208c4.687,0,8.5,3.813,8.5,8.5s-3.813,8.5-8.5,8.5s-8.5-3.813-8.5-8.5
				S351.738,255.208,356.425,255.208 M356.425,250.208c-7.456,0-13.5,6.044-13.5,13.5s6.044,13.5,13.5,13.5s13.5-6.044,13.5-13.5
				S363.881,250.208,356.425,250.208L356.425,250.208z"/>
		</g>
		<g>
			<path fill="#3D3A3A" d="M396.425,274.708c-6.065,0-11-4.935-11-11s4.935-11,11-11s11,4.935,11,11S402.49,274.708,396.425,274.708
				z"/>
			<path fill="#3D3A3A" d="M396.425,255.208c4.687,0,8.5,3.813,8.5,8.5s-3.813,8.5-8.5,8.5c-4.687,0-8.5-3.813-8.5-8.5
				S391.738,255.208,396.425,255.208 M396.425,250.208c-7.456,0-13.5,6.044-13.5,13.5s6.044,13.5,13.5,13.5s13.5-6.044,13.5-13.5
				S403.881,250.208,396.425,250.208L396.425,250.208z"/>
		</g>
		<g>
			<path fill="#3D3A3A" d="M436.425,274.708c-6.065,0-11-4.935-11-11s4.935-11,11-11s11,4.935,11,11S442.49,274.708,436.425,274.708
				z"/>
			<path fill="#3D3A3A" d="M436.425,255.208c4.687,0,8.5,3.813,8.5,8.5s-3.813,8.5-8.5,8.5s-8.5-3.813-8.5-8.5
				S431.738,255.208,436.425,255.208 M436.425,250.208c-7.456,0-13.5,6.044-13.5,13.5s6.044,13.5,13.5,13.5s13.5-6.044,13.5-13.5
				S443.881,250.208,436.425,250.208L436.425,250.208z"/>
		</g>
	</g>
	<g>
		<g>
			<path fill="#F5F5F5" d="M396.424,361.124c-21.264,0-38.562-14.214-38.562-31.685c0-17.472,17.299-31.685,38.562-31.685
				c21.265,0,38.564,14.213,38.564,31.685C434.988,346.91,417.688,361.124,396.424,361.124z"/>
			<path fill="#3D3A3A" d="M396.424,300.254c19.886,0,36.064,13.092,36.064,29.185s-16.179,29.185-36.064,29.185
				c-19.885,0-36.062-13.092-36.062-29.185S376.539,300.254,396.424,300.254 M396.424,295.254
				c-22.678,0-41.062,15.305-41.062,34.185s18.385,34.185,41.062,34.185c22.68,0,41.064-15.305,41.064-34.185
				S419.104,295.254,396.424,295.254L396.424,295.254z"/>
		</g>
		<g>
			
				<line fill="none" stroke="#3D3A3A" stroke-width="5" stroke-linecap="round" stroke-miterlimit="10" x1="373.674" y1="305.209" x2="373.674" y2="354.209"/>
			
				<line fill="none" stroke="#3D3A3A" stroke-width="5" stroke-linecap="round" stroke-miterlimit="10" x1="388.842" y1="299.208" x2="388.842" y2="359.209"/>
			
				<line fill="none" stroke="#3D3A3A" stroke-width="5" stroke-linecap="round" stroke-miterlimit="10" x1="404.008" y1="299.708" x2="404.008" y2="359.709"/>
			
				<line fill="none" stroke="#3D3A3A" stroke-width="5" stroke-linecap="round" stroke-miterlimit="10" x1="419.174" y1="304.209" x2="419.174" y2="353.709"/>
		</g>
	</g>
	<path fill="#F5F5F5" stroke="#3D3A3A" stroke-width="5" stroke-miterlimit="10" d="M313.5,545.209c4.5,12,50,15,61.5-3"/>
	<path fill="#F5F5F5" stroke="#3D3A3A" stroke-width="5" stroke-miterlimit="10" d="M402.5,537.209c3.5,12,46,22.5,61.5,7.5"/>
</g>
</svg>
