<?xml version="1.0" encoding="utf-8"?>
<!-- Generator: Adobe Illustrator 16.0.4, SVG Export Plug-In . SVG Version: 6.00 Build 0)  -->
<!DOCTYPE svg PUBLIC "-//W3C//DTD SVG 1.1//EN" "http://www.w3.org/Graphics/SVG/1.1/DTD/svg11.dtd">
<svg version="1.1" id="Layer_1" xmlns="http://www.w3.org/2000/svg" xmlns:xlink="http://www.w3.org/1999/xlink" x="0px" y="0px"
	 width="800px" height="600px" viewBox="0 0 800 600" enable-background="new 0 0 800 600" xml:space="preserve">
<rect fill="#F5F6F6" width="800" height="600"/>
<g>
	<path fill="#3D3A3A" d="M540.237,368.551c-1.323,0-2.608,0.135-3.85,0.373c5.4-22.947,7.737-61.637,6.246-88.499
		c-2.233-40.223-14.068-72.274-26.436-71.587c-12.367,0.687-20.581,33.851-18.349,74.074c2.074,37.368,14.045,96.661,25.651,104.342
		c0.818,0.883,1.979,1.445,3.279,1.445h26.912c2.478,0,4.485-2.008,4.485-4.486C558.178,375.578,550.13,368.551,540.237,368.551z"/>
	<path fill="#3D3A3A" d="M283.801,208.838c-12.366-0.687-24.202,31.364-26.435,71.587c-1.491,26.862,0.847,65.551,6.246,88.499
		c-1.241-0.238-2.527-0.373-3.849-0.373c-9.893,0-17.941,7.027-17.941,15.662c0,2.479,2.008,4.486,4.485,4.486h26.911
		c1.3,0,2.461-0.562,3.281-1.445c11.605-7.682,23.577-66.975,25.651-104.342C304.383,242.688,296.169,209.524,283.801,208.838z"/>
	<g>
		<path fill="#F4F6F7" d="M400.048,320.744c-63.685,0-115.497-59.357-115.497-132.316c0-34.646,12.009-65.877,33.814-87.941
			c21.134-21.385,50.143-33.162,81.682-33.162s60.548,11.777,81.683,33.162c21.806,22.064,33.813,53.295,33.813,87.941
			C515.545,261.387,463.732,320.744,400.048,320.744z"/>
		<path fill="#3E3A3A" d="M400.048,70.688c61.929,0,112.132,46.521,112.132,117.739c0,71.218-50.203,128.951-112.132,128.951
			s-112.133-57.733-112.133-128.951C287.916,117.209,338.119,70.688,400.048,70.688 M400.048,63.96
			c-32.445,0-62.304,12.132-84.075,34.162c-10.999,11.129-19.58,24.383-25.504,39.394c-6.159,15.604-9.282,32.733-9.282,50.912
			c0,36.067,12.25,70.018,34.494,95.598c22.476,25.848,52.438,40.082,84.366,40.082s61.89-14.234,84.367-40.082
			c22.244-25.58,34.493-59.531,34.493-95.598c0-18.178-3.123-35.307-9.28-50.912c-5.927-15.011-14.507-28.265-25.505-39.394
			C462.352,76.093,432.493,63.96,400.048,63.96L400.048,63.96z"/>
	</g>
	<path fill="#F4F6F7" d="M286.233,190.97c-0.308,0-0.754-0.453-0.754-1.163v-59.304c0-0.71,0.446-1.163,0.754-1.163h94.327
		c0.349,0,0.755,0.508,0.755,1.163v59.304c0,0.655-0.406,1.163-0.755,1.163H286.233z"/>
	<path fill="#3E3A3A" d="M376.829,133.826v52.66h-86.865v-52.66H376.829 M380.56,124.855h-94.327c-2.893,0-5.24,2.53-5.24,5.648
		v59.304c0,3.119,2.348,5.648,5.24,5.648h94.327c2.893,0,5.24-2.529,5.24-5.648v-59.304
		C385.799,127.385,383.453,124.855,380.56,124.855L380.56,124.855z"/>
	<circle fill="#3D3A3A" cx="347.346" cy="170.248" r="11.774"/>
	<path fill="#F4F6F7" d="M419.537,190.97c-0.308,0-0.755-0.453-0.755-1.163v-59.304c0-0.71,0.447-1.163,0.755-1.163h94.326
		c0.35,0,0.755,0.508,0.755,1.163v59.304c0,0.72-0.439,1.163-0.755,1.163H419.537z"/>
	<path fill="#3E3A3A" d="M510.133,133.826v52.66h-86.865v-52.66H510.133 M513.863,124.855h-94.326c-2.893,0-5.24,2.53-5.24,5.648
		v59.304c0,3.119,2.348,5.648,5.24,5.648h94.326c2.895,0,5.24-2.529,5.24-5.648v-59.304
		C519.104,127.385,516.758,124.855,513.863,124.855L513.863,124.855z"/>
	<circle fill="#3D3A3A" cx="453.872" cy="170.248" r="11.774"/>
	<path fill="#F4F6F7" d="M400.068,434.623c-16.646,0-35.532-1.641-50.521-4.389c-26.141-4.791-27.317-10.273-27.674-12.412
		l-45.1-217.465c-0.048-0.235-0.072-0.472-0.07-0.707c0.004-2.936,0.076-11.809,37.916-18.667
		c22.852-4.141,53.191-6.421,85.43-6.421c42.651,0,123.318,5.246,123.345,25.102c0,0.23-0.022,0.466-0.07,0.692l-45.06,217.466
		c-0.357,2.139-1.535,7.623-27.674,12.412C435.602,432.982,416.715,434.623,400.068,434.623z"/>
	<g>
		<path fill="#3D3A3A" d="M400.048,177.925c66.254,0,119.964,9.734,119.982,21.742v0.001c0,0.001,0,0.002,0,0.004l-45.074,217.532
			c-1.188,7.186-40.443,14.053-74.888,14.053c-34.444,0-73.701-6.867-74.888-14.053l-45.114-217.532c0.001-0.001,0-0.003,0-0.004
			v-0.001C280.083,187.659,333.793,177.925,400.048,177.925 M400.048,171.197c-32.434,0-62.986,2.3-86.03,6.477
			c-28.08,5.089-40.63,11.857-40.679,21.942c-0.004,0.473,0.042,0.951,0.14,1.423l45.093,217.439
			c1.287,6.98,10.116,11.354,30.367,15.066c15.178,2.781,34.291,4.443,51.128,4.443c16.838,0,35.952-1.662,51.128-4.443
			c20.253-3.713,29.082-8.088,30.367-15.07l45.055-217.436c0.093-0.449,0.14-0.907,0.14-1.365c-0.015-10.124-12.56-16.904-40.68-22
			C463.034,173.497,432.482,171.197,400.048,171.197L400.048,171.197z"/>
	</g>
	<g>
		<circle fill="#3D3A3A" cx="339.805" cy="220.369" r="5.693"/>
		<circle fill="#3D3A3A" cx="339.805" cy="237.189" r="5.693"/>
	</g>
	<g>
		<circle fill="#3D3A3A" cx="361.951" cy="220.369" r="5.693"/>
		<circle fill="#3D3A3A" cx="361.951" cy="237.189" r="5.693"/>
	</g>
	<g>
		<circle fill="#3D3A3A" cx="384.097" cy="220.369" r="5.693"/>
		<circle fill="#3D3A3A" cx="384.097" cy="237.189" r="5.693"/>
	</g>
	<g>
		<circle fill="#3D3A3A" cx="406.244" cy="220.369" r="5.693"/>
		<circle fill="#3D3A3A" cx="406.244" cy="237.189" r="5.693"/>
	</g>
	<path fill="#3D3A3A" d="M466.855,239.517c0,2.477-2.008,4.485-4.485,4.485h-34.641c-2.477,0-4.484-2.008-4.484-4.485v-21.198
		c0-2.479,2.008-4.486,4.484-4.486h34.641c2.478,0,4.485,2.007,4.485,4.486V239.517z"/>
	<path fill="#C1E3D9" d="M416.743,492.988"/>
	<path fill="#3D3A3A" d="M450.718,427.945c-2.477,0-4.484,2.01-4.484,4.484v64.324h-3.392c-1.44-8.137-6.751-14.025-13.282-14.025
		c-1.48,0-2.896,0.309-4.222,0.871v-2.297c0-3.098-2.51-5.607-5.606-5.607h-39.31c-3.096,0-5.607,2.51-5.607,5.607v44.715
		c0,6.316,7.628,8.029,10.135,8.592c4.104,0.922,9.476,1.43,15.127,1.43c5.652,0,11.024-0.508,15.127-1.43
		c2.506-0.562,10.134-2.275,10.134-8.592v-7.211c1.325,0.561,2.741,0.871,4.222,0.871c6.511,0,11.809-5.852,13.269-13.953h7.89
		c2.477,0,4.485-2.008,4.485-4.484V432.43C455.203,429.955,453.194,427.945,450.718,427.945z M434.661,505.725h1.285
		c-1.151,4.408-3.876,7.225-6.387,7.225c-1.45,0-2.973-0.939-4.222-2.578v-18.336c1.249-1.639,2.771-2.578,4.222-2.578
		c2.523,0,5.264,2.848,6.404,7.297h-1.303c-2.477,0-4.485,2.008-4.485,4.486C430.176,503.717,432.185,505.725,434.661,505.725z"/>
	<path fill="#F4F6F7" d="M400.077,487.014c-22.458,0-22.458-4.668-22.458-6.203c0-1.533,0-6.201,22.458-6.201
		c22.458,0,22.458,4.668,22.458,6.201C422.535,482.346,422.535,487.014,400.077,487.014z"/>
	<path fill="#3D3A3A" d="M400.077,477.412c10.855,0,19.655,1.521,19.655,3.398c0,1.879-8.8,3.398-19.655,3.398
		s-19.655-1.52-19.655-3.398C380.422,478.934,389.222,477.412,400.077,477.412 M400.077,471.807c-5.561,0-10.835,0.381-14.853,1.076
		c-2.847,0.492-10.409,1.801-10.409,7.928c0,6.129,7.562,7.438,10.409,7.928c4.017,0.695,9.292,1.078,14.853,1.078
		c5.561,0,10.835-0.383,14.853-1.078c2.848-0.49,10.408-1.799,10.408-7.928c0-6.127-7.561-7.436-10.408-7.928
		C410.912,472.188,405.638,471.807,400.077,471.807L400.077,471.807z"/>
	<path fill="#3E3A3A" d="M396.987,433.025c2.243,7.85,3.083,19.904,1.962,26.072s-2.243,20.463-0.561,27.752l4.798-0.004
		c-1.463-7.336,0.054-21.594,1.36-27.725c1.307-6.129,2.074-21.299,1.13-27.217L396.987,433.025z"/>
	<path fill="#3D3A3A" stroke="#3E3A3A" stroke-linejoin="round" stroke-miterlimit="10" d="M381.299,455.182
		c1.475-1.23,2.132-2.369,2.017-3.48c-0.164-1.586-1.926-2.721-3.628-3.623c-1.085-0.578-1.648-1.602-1.468-2.676
		c0.195-1.148,1.293-2.516,3.8-2.904c0.184-0.025,0.319-0.186,0.318-0.373c-0.003-0.188-0.139-0.346-0.323-0.371
		c-3.184-0.459-5.553,0.514-6.353,2.543c-0.568,1.445-0.185,3.195,0.928,4.254c0.411,0.391,0.838,0.736,1.252,1.074
		c1.814,1.475,3.016,2.449,1.032,5.223c-1.911,2.67-2.515,4.375-1.954,5.518c0.428,0.883,1.51,1.344,3.305,1.416
		c0.007,0,0.013,0,0.019,0c0.002,0,0.004,0,0.006,0c0.222,0.008,0.377-0.172,0.374-0.381c-0.001-0.135-0.07-0.25-0.175-0.314
		c-1.022-0.912-1.476-1.674-1.465-2.471C378.996,457.611,379.775,456.459,381.299,455.182z"/>
	<path fill="#3D3A3A" stroke="#3E3A3A" stroke-linejoin="round" stroke-miterlimit="10" d="M391.667,462.906
		c-0.474-0.533-1.022-1-1.55-1.451c-1.754-1.496-3.021-2.578-0.966-5.004c2.258-2.668,3.081-4.494,2.591-5.752
		c-0.357-0.906-1.336-1.447-2.996-1.652c-0.157-0.02-0.312,0.064-0.385,0.207c-0.07,0.143-0.043,0.316,0.067,0.43
		c0.829,0.859,1.208,1.74,1.125,2.611c-0.112,1.174-1.05,2.395-2.793,3.625c-1.411,0.994-2.085,1.979-2.062,3.008
		c0.04,1.762,2.236,3.168,3.842,4.195c1.257,0.807,1.925,2.049,1.658,3.088c-0.273,1.072-1.479,1.764-3.309,1.893
		c-0.187,0.014-0.334,0.16-0.35,0.348c-0.015,0.184,0.11,0.355,0.293,0.396c0.866,0.199,1.663,0.293,2.367,0.287
		c2.302-0.025,3.144-1.158,3.443-1.83C393.218,465.998,392.818,464.189,391.667,462.906z"/>
	<path fill="#3D3A3A" d="M461.678,261.131H338.332c-4.329,0-7.85,3.521-7.85,7.849v0.221l11.217,85.153
		c0.133,4.211,3.601,7.598,7.845,7.598h100.92c4.243,0,7.712-3.387,7.845-7.598l11.188-84.934l0.03-0.439
		C469.527,264.652,466.005,261.131,461.678,261.131z M430.477,279.472c-7.693-6.609-17.442-4.9-24.652-0.628
		c-7.538,4.467-12.334,3.364-20.464-0.28c-7.105-3.186-11.128-3.136-15.873,0.865l-11.57-11.57h84.173L430.477,279.472z
		 M451.613,353.664l-0.028,0.438c0,0.619-0.502,1.121-1.12,1.121h-100.92c-0.618,0-1.121-0.502-1.121-1.121v-0.219l-11.204-85.05
		c0.073-0.549,0.543-0.974,1.112-0.974h14.01c0.209,0.695,0.578,1.345,1.113,1.88l43.378,43.376
		c0.216,0.217,0.454,0.406,0.706,0.572c2.047,5.484,0.835,9.275-0.192,11.225c-0.452,0.574-0.732,1.291-0.732,2.078
		c0,1.871,1.517,3.389,3.387,3.389s3.387-1.518,3.387-3.389c0-0.732-0.238-1.406-0.635-1.961c-0.977-1.992-2.333-5.781-0.278-11.344
		c0.25-0.166,0.485-0.354,0.701-0.57l43.377-43.376c0.535-0.535,0.903-1.186,1.112-1.88h14.013c0.567,0,1.039,0.425,1.111,0.974
		L451.613,353.664z"/>
	<circle fill="#3D3A3A" cx="400.001" cy="337.084" r="2.826"/>
	<circle fill="#3D3A3A" cx="400.001" cy="347.176" r="2.826"/>
</g>
</svg>
