<?xml version="1.0" encoding="utf-8"?>
<!-- Generator: Adobe Illustrator 16.0.0, SVG Export Plug-In . SVG Version: 6.00 Build 0)  -->
<!DOCTYPE svg PUBLIC "-//W3C//DTD SVG 1.1//EN" "http://www.w3.org/Graphics/SVG/1.1/DTD/svg11.dtd">
<svg version="1.1" id="Layer_1" xmlns="http://www.w3.org/2000/svg" xmlns:xlink="http://www.w3.org/1999/xlink" x="0px" y="0px"
	 width="800px" height="600px" viewBox="0 0 800 600" enable-background="new 0 0 800 600" xml:space="preserve">
<rect fill="#F5F6F6" width="800" height="600"/>
<g>
	<g>
		<polygon fill="#3D3A3A" points="326.08,84.538 330.56,120.802 359.114,118.027 361.21,131.993 386.038,134.584 366.217,128.77 
			363.007,109.207 338.468,114.946 		"/>
		<path fill="#3D3A3A" d="M386.039,135.623c-0.037,0-0.073-0.001-0.108-0.005l-24.828-2.592c-0.471-0.048-0.85-0.411-0.92-0.878
			l-1.949-12.99l-27.573,2.678c-0.536,0.079-1.062-0.346-1.131-0.906l-4.48-36.264c-0.063-0.518,0.265-1.002,0.769-1.132
			c0.5-0.135,1.026,0.13,1.225,0.612l12.052,29.586l23.677-5.537c0.279-0.065,0.573-0.012,0.813,0.148
			c0.239,0.16,0.402,0.411,0.448,0.695l3.104,18.918l19.194,5.63c0.516,0.151,0.831,0.671,0.728,1.198
			C386.96,135.276,386.529,135.623,386.039,135.623z M362.118,131.044l12.665,1.321l-8.858-2.598
			c-0.384-0.113-0.668-0.435-0.733-0.828l-3.03-18.468l-23.458,5.486c-0.498,0.116-1.005-0.148-1.198-0.619l-9.436-23.163
			l3.396,27.495l27.547-2.676c0.553-0.061,1.045,0.333,1.128,0.878L362.118,131.044z"/>
	</g>
	<g>
		<polygon fill="#3D3A3A" points="505.884,93.265 497.915,128.924 469.762,123.397 466.324,137.095 441.361,137.269 
			461.652,133.403 466.74,114.24 490.609,122.331 		"/>
		<path fill="#3D3A3A" d="M441.361,138.307c-0.535,0-0.983-0.404-1.034-0.936c-0.052-0.535,0.312-1.022,0.839-1.123l19.65-3.742
			l4.919-18.532c0.073-0.278,0.261-0.513,0.514-0.649c0.249-0.136,0.551-0.162,0.825-0.069l23.027,7.807l14.861-28.281
			c0.242-0.461,0.79-0.671,1.279-0.491c0.488,0.179,0.768,0.692,0.653,1.201l-7.968,35.659c-0.119,0.547-0.651,0.907-1.214,0.793
			l-27.184-5.336l-3.198,12.741c-0.114,0.46-0.527,0.783-0.999,0.786l-24.963,0.173
			C441.366,138.307,441.364,138.307,441.361,138.307z M467.46,115.58l-4.803,18.089c-0.104,0.386-0.418,0.68-0.81,0.754
			l-9.069,1.727l12.734-0.088l3.242-12.917c0.133-0.535,0.648-0.878,1.208-0.767l27.159,5.332l6.04-27.037l-11.633,22.141
			c-0.238,0.453-0.766,0.664-1.254,0.501L467.46,115.58z"/>
	</g>
	<g>
		<path fill="#3D3A3A" d="M405.308,509.63c-0.003,0,0,0-0.003,0c-2.959,0-6.062-0.079-9.218-0.231
			c-16.782-0.814-30.188-3.424-39.846-7.754c-14.564-6.529-17.238-15.776-16.917-22.384c0.432-8.886,6.453-20.079,15.802-29.481
			c-12.304-86.496-30.754-233.248-17.955-256.018c8.592-15.286,49.285-16.474,61.551-16.474c4.091,0,8.274,0.103,12.435,0.304
			l0.331,0.017l0.298,2.787l0.128-2.767l0.271,0.012c29.146,1.417,65.51,8.359,72.077,23.261
			c4.523,10.259,4.998,56.691-42.438,252.155c8.912,10.506,14.13,22.601,13.683,31.843C454.729,500.846,436.9,509.63,405.308,509.63
			z M398.722,182.828c-29.797,0-52.063,5.358-56.725,13.649c-8.683,15.447-1.652,110.365,18.809,253.903l0.199,1.398l-1.017,0.982
			c-8.817,8.527-14.757,19.037-15.133,26.771c-0.346,7.103,4.248,12.845,13.652,17.061c8.898,3.988,21.985,6.506,37.848,7.273
			c3.066,0.149,6.08,0.226,8.949,0.226c16.331,0,43.846-2.527,44.668-19.461c0.392-8.055-4.812-19.44-13.253-29.008l-0.956-1.084
			l0.342-1.403c34.615-142.468,50.32-233.59,43.091-249.999c-4.428-10.045-32.093-18.251-67.274-19.959l-1.032-0.052
			C406.817,182.926,402.724,182.828,398.722,182.828z"/>
	</g>
	<g>
		<path fill="#F5F5F5" d="M401.844,258.745c-1.037,21.39-19.219,37.886-40.606,36.847c-21.388-1.037-37.886-19.218-36.846-40.605
			c1.037-21.388,19.216-37.886,40.606-36.848C386.382,219.177,402.881,237.357,401.844,258.745z"/>
		<path fill="#3D3A3A" d="M363.149,298.348c-0.679,0-1.357-0.017-2.043-0.05c-11.067-0.538-21.261-5.353-28.707-13.558
			c-7.447-8.205-11.25-18.819-10.713-29.886c1.106-22.812,20.374-40.573,43.444-39.421c22.844,1.109,40.529,20.598,39.42,43.443
			C403.475,281.01,385.292,298.348,363.149,298.348z M363.086,220.8c-19.248,0-35.057,15.074-35.99,34.317
			c-0.467,9.622,2.84,18.848,9.314,25.982c6.474,7.134,15.338,11.32,24.959,11.787c20.011,0.963,36.81-14.44,37.768-34.274
			c0.964-19.862-14.411-36.804-34.271-37.769C364.269,220.815,363.677,220.8,363.086,220.8z"/>
	</g>
	<g>
		<circle fill="#F5F5F5" cx="452.328" cy="261.195" r="38.772"/>
		<path fill="#3D3A3A" d="M452.359,302.677c-0.679,0-1.357-0.016-2.042-0.049c-11.068-0.537-21.263-5.353-28.71-13.558
			c-7.443-8.206-11.25-18.819-10.712-29.887c1.107-22.809,20.456-40.545,43.44-39.421c22.846,1.109,40.533,20.598,39.426,43.445
			C492.684,285.34,474.499,302.677,452.359,302.677z M452.297,225.129c-19.249,0-35.057,15.074-35.988,34.317
			c-0.469,9.621,2.84,18.849,9.312,25.984c6.473,7.133,15.337,11.32,24.958,11.786c20.009,0.963,36.807-14.44,37.77-34.273
			c0.964-19.862-14.41-36.806-34.272-37.771C453.478,225.144,452.887,225.129,452.297,225.129z"/>
	</g>
	<g>
		<circle fill="#3D3A3A" cx="367.072" cy="253.938" r="14.194"/>
	</g>
	<g>
		<circle fill="#3D3A3A" cx="450.057" cy="257.966" r="14.194"/>
	</g>
	<g>
		<path fill="#3D3A3A" d="M377.977,318.6c0.168,0,0.342,0.005,0.514,0.011l52.556,2.552c5.729,0.277,10.149,5.147,9.869,10.876
			c-0.269,5.561-4.859,9.882-10.362,9.882c-0.171,0-0.342-0.002-0.514-0.01l-52.557-2.553c-5.728-0.276-10.148-5.147-9.871-10.875
			C367.884,322.924,372.471,318.6,377.977,318.6 M377.977,313.062c-8.502,0-15.485,6.657-15.898,15.151
			c-0.207,4.249,1.254,8.321,4.113,11.474c2.858,3.151,6.773,4.997,11.022,5.204l52.558,2.552c0.26,0.011,0.521,0.02,0.781,0.02
			c8.503,0,15.486-6.657,15.896-15.155c0.206-4.249-1.254-8.32-4.112-11.471c-2.859-3.151-6.771-5-11.021-5.207l-52.557-2.549
			C378.496,313.066,378.238,313.062,377.977,313.062L377.977,313.062z"/>
	</g>
	<g>
		
			<rect x="373.8" y="317.84" transform="matrix(0.9988 0.049 -0.049 0.9988 16.6067 -18.0596)" fill="#3D3A3A" width="5.539" height="23.54"/>
	</g>
	<g>
		
			<rect x="387.631" y="318.51" transform="matrix(0.9988 0.0481 -0.0481 0.9988 16.3491 -18.4074)" fill="#3D3A3A" width="5.539" height="23.541"/>
	</g>
	<g>
		<polygon fill="#3D3A3A" points="406.427,342.84 400.894,342.574 402.034,319.064 407.566,319.33 		"/>
	</g>
	<g>
		<polygon fill="#3D3A3A" points="420.259,343.514 414.726,343.248 415.866,319.734 421.398,320 		"/>
	</g>
	<g>
		
			<rect x="429.125" y="320.523" transform="matrix(0.9988 0.048 -0.048 0.9988 16.4305 -20.3273)" fill="#3D3A3A" width="5.54" height="23.542"/>
	</g>
	<g>
		<path fill="#3D3A3A" d="M402.536,527.246c-22.494,0-46.495-5.175-55.094-14.704c-1.282-1.417-1.169-3.608,0.25-4.89
			c1.421-1.278,3.612-1.164,4.89,0.253c13.028,14.433,72.619,17.307,87.337,4.205c1.425-1.268,3.615-1.143,4.889,0.285
			c1.271,1.431,1.144,3.619-0.285,4.889C436.906,524.059,420.186,527.246,402.536,527.246z"/>
	</g>
	<g>
		<path fill="#3D3A3A" d="M400.855,546.63c-20.147,0-41.646-4.637-49.347-13.17c-1.281-1.42-1.168-3.608,0.25-4.89
			c1.421-1.281,3.611-1.164,4.889,0.253c11.175,12.38,64.562,14.953,77.196,3.717c1.426-1.268,3.613-1.148,4.887,0.288
			c1.271,1.428,1.144,3.616-0.288,4.886C431.626,543.776,416.656,546.63,400.855,546.63z"/>
	</g>
	<g>
		<path fill="#3D3A3A" d="M398.2,565.504c-15.108,0-31.157-3.573-37.122-10.184c-1.281-1.42-1.168-3.608,0.25-4.89
			c1.423-1.278,3.611-1.164,4.89,0.253c8.104,8.976,46.82,10.834,55.987,2.685c1.429-1.268,3.616-1.147,4.888,0.288
			c1.27,1.428,1.143,3.616-0.288,4.887C421.485,563.272,410.136,565.504,398.2,565.504z"/>
	</g>
	<g>
		<circle fill="#3D3A3A" cx="475.425" cy="320.892" r="14.194"/>
	</g>
	<g>
		<circle fill="#3D3A3A" cx="521.423" cy="365.754" r="10.386"/>
	</g>
	<g>
		<polygon fill="#3D3A3A" points="525.94,408.34 516.271,407.704 518.793,369.183 478.034,329.869 484.762,322.892 528.761,365.328 
					"/>
	</g>
	<g>
		<g>
			<path fill="#F5F5F5" d="M537.856,443.294c-1.322-0.065-2.379-1.124-2.441-2.443c-0.619-12.937-6.307-21.551-14.491-21.947
				c-0.192-0.011-0.38-0.017-0.567-0.017c-7.898,0-14.172,8.03-15.982,20.457c-0.185,1.268-1.273,2.196-2.538,2.196
				c-0.044,0-0.085,0-0.129-0.003c-1.318-0.062-2.375-1.121-2.44-2.44c-0.086-1.824-0.086-3.66,0-5.446
				c0.831-17.131,9.226-28.196,21.388-28.196c0.305,0,0.614,0.005,0.921,0.021c5.948,0.288,11.15,3.329,14.642,8.562
				c3.586,5.382,5.259,12.863,4.832,21.638c-0.087,1.792-0.266,3.616-0.529,5.422c-0.185,1.268-1.271,2.196-2.538,2.196
				C537.94,443.294,537.899,443.294,537.856,443.294z"/>
		</g>
		<g>
			<g>
				<path fill="#3D3A3A" d="M520.654,408.02c0.265,0,0.53,0.005,0.796,0.019c10.121,0.494,17.878,10.138,17.033,27.513
					c-0.084,1.77-0.258,3.497-0.502,5.177c-0.718-14.978-7.841-23.947-16.933-24.393c-0.233-0.011-0.465-0.017-0.692-0.017
					c-8.802,0-16.417,8.193-18.524,22.653c-0.081-1.694-0.087-3.432,0-5.196C502.652,416.854,510.879,408.02,520.654,408.02
					 M520.654,402.886L520.654,402.886c-6.554,0-12.525,3.019-16.815,8.503c-4.228,5.408-6.695,13.064-7.135,22.138
					c-0.093,1.87-0.093,3.787,0,5.692c0.125,2.642,2.237,4.754,4.879,4.885c0.084,0.002,0.168,0.005,0.253,0.005
					c2.535,0,4.707-1.862,5.076-4.393c1.618-11.094,6.896-18.261,13.444-18.261c0.146,0,0.293,0.006,0.442,0.011
					c6.667,0.323,11.512,8.161,12.052,19.507c0.129,2.641,2.24,4.754,4.881,4.884c0.084,0.003,0.168,0.005,0.253,0.005
					c2.532,0,4.709-1.861,5.076-4.393c0.274-1.889,0.461-3.795,0.552-5.668c0.453-9.328-1.365-17.348-5.262-23.186
					c-3.956-5.929-9.869-9.376-16.653-9.705C521.353,402.895,520.999,402.886,520.654,402.886L520.654,402.886L520.654,402.886z"/>
			</g>
		</g>
	</g>
	<g>
		<g>
			<circle fill="#3D3A3A" cx="335.385" cy="314.094" r="14.192"/>
		</g>
		<g>
			<circle fill="#3D3A3A" cx="285.257" cy="354.292" r="10.384"/>
		</g>
		<g>
			<polygon fill="#3D3A3A" points="286.325,396.543 276.635,396.24 277.997,353.157 325.898,315.182 331.919,322.778 
				287.542,357.957 			"/>
		</g>
		<g>
			<g>
				<path fill="#F5F5F5" d="M297.541,431.631c-1.322-0.065-2.375-1.124-2.441-2.443c-0.619-12.937-6.307-21.551-14.492-21.95
					c-0.19-0.009-0.38-0.014-0.57-0.014c-7.897,0-14.169,8.031-15.98,20.454c-0.184,1.271-1.271,2.199-2.538,2.199
					c-0.041,0-0.084,0-0.125-0.002c-1.322-0.063-2.378-1.122-2.44-2.441c-0.089-1.824-0.089-3.654-0.002-5.446
					c0.831-17.131,9.228-28.196,21.387-28.196c0.304,0,0.611,0.005,0.921,0.021c10.397,0.505,20.451,10.037,19.474,30.2
					c-0.087,1.794-0.266,3.619-0.529,5.424c-0.182,1.266-1.271,2.194-2.539,2.194C297.625,431.631,297.582,431.631,297.541,431.631z
					"/>
			</g>
			<g>
				<g>
					<path fill="#3D3A3A" d="M280.339,396.355c0.264,0,0.53,0.007,0.795,0.021c10.121,0.493,17.878,10.137,17.033,27.512
						c-0.084,1.771-0.258,3.496-0.502,5.178c-0.717-14.979-7.84-23.948-16.933-24.393c-0.233-0.012-0.464-0.017-0.695-0.017
						c-8.801,0-16.411,8.193-18.521,22.652c-0.081-1.694-0.087-3.431,0-5.196C262.337,405.191,270.563,396.355,280.339,396.355
						 M280.339,391.222c-6.556,0-12.526,3.02-16.813,8.504c-4.229,5.408-6.698,13.063-7.138,22.137c-0.092,1.873-0.092,3.79,0,5.696
						c0.128,2.639,2.24,4.75,4.882,4.881c0.084,0,0.168,0.006,0.25,0.006c2.536,0,4.708-1.862,5.079-4.393
						c1.616-11.094,6.891-18.26,13.439-18.26c0.149,0,0.296,0.005,0.445,0.01c6.665,0.323,11.511,8.162,12.051,19.507
						c0.128,2.642,2.24,4.754,4.881,4.884c0.084,0.003,0.168,0.006,0.252,0.006c2.533,0,4.708-1.862,5.077-4.393
						c0.277-1.884,0.461-3.793,0.551-5.669c1.064-21.936-10.238-32.323-21.912-32.891
						C281.037,391.23,280.684,391.222,280.339,391.222L280.339,391.222z"/>
				</g>
			</g>
		</g>
	</g>
	<g>
		<path fill="#3D3A3A" d="M428.309,138.375c0.38-7.83-5.661-14.484-13.491-14.864c-7.828-0.38-14.482,5.659-14.863,13.488
			c-0.309,6.386,3.651,11.986,9.369,14.043l-1.414,29.165l8.299,0.403l1.415-29.165
			C423.515,149.953,427.999,144.763,428.309,138.375z"/>
	</g>
	<g>
		<polygon fill="#3D3A3A" points="416.146,35.535 435.784,59.362 419.632,77.988 425.943,90.771 406.276,96.056 417.986,111.874 
			397.421,92.854 416.396,87.537 410.876,72.709 427.386,61.034 		"/>
		<path fill="#3D3A3A" d="M417.986,112.913c-0.253,0-0.505-0.092-0.706-0.276l-20.563-19.021c-0.277-0.255-0.394-0.641-0.306-1.005
			c0.089-0.366,0.368-0.656,0.73-0.757l17.886-5.012l-5.126-13.77c-0.162-0.441-0.011-0.938,0.375-1.211l15.816-11.185
			l-10.897-24.722c-0.209-0.475-0.035-1.032,0.405-1.303c0.445-0.271,1.016-0.179,1.347,0.223L436.586,58.7
			c0.323,0.393,0.314,0.958-0.017,1.342L420.87,78.147l6.005,12.164c0.139,0.28,0.144,0.605,0.017,0.888
			c-0.131,0.284-0.378,0.494-0.679,0.575l-18.193,4.888l10.801,14.594c0.32,0.43,0.258,1.033-0.142,1.391
			C418.483,112.824,418.233,112.913,417.986,112.913z M399.49,93.352l11.079,10.248l-5.126-6.926
			c-0.206-0.275-0.261-0.635-0.146-0.959c0.111-0.324,0.381-0.571,0.712-0.661l18.444-4.956L418.7,78.448
			c-0.185-0.375-0.127-0.825,0.147-1.14l15.577-17.964l-14.294-17.34l8.205,18.61c0.197,0.452,0.052,0.983-0.351,1.268
			l-15.857,11.214l5.242,14.078c0.101,0.273,0.082,0.574-0.049,0.833c-0.133,0.259-0.366,0.451-0.646,0.529L399.49,93.352z"/>
	</g>
</g>
</svg>
