<?xml version="1.0" encoding="utf-8"?>
<!-- Generator: Adobe Illustrator 17.1.0, SVG Export Plug-In . SVG Version: 6.00 Build 0)  -->
<!DOCTYPE svg PUBLIC "-//W3C//DTD SVG 1.1//EN" "http://www.w3.org/Graphics/SVG/1.1/DTD/svg11.dtd">
<svg version="1.1" id="Layer_1" xmlns="http://www.w3.org/2000/svg" xmlns:xlink="http://www.w3.org/1999/xlink" x="0px" y="0px"
	 viewBox="0 0 800 600" enable-background="new 0 0 800 600" xml:space="preserve">
<rect fill="#F5F6F6" width="800" height="600"/>
<g>
	<g>
		<path fill="#F5F5F5" d="M374,315.4c-14.7,0-26.1-3.6-31.4-9.8c-2.7-3.2-3.7-7-3-11.3c4-23.5-16.4-105.3-16.7-106.1
			c-0.1-0.6,0-1.2,0.4-1.6c0.3-0.4,0.8-0.6,1.3-0.6c0.1,0,0.1,0,0.2,0c18.9,1.9,35.5,2.8,52.3,2.8c16.8,0,33.8-0.9,52-2.8
			c0.1,0,0.1,0,0.2,0c0.5,0,1,0.2,1.3,0.6c0.4,0.4,0.5,1,0.4,1.6c-0.2,0.8-20.6,83.7-16.7,106.1c0.6,3.4-0.3,6.5-2.7,9.4
			C404.9,311.8,387.9,315.4,374,315.4z"/>
		<path fill="#3D3A3A" d="M429.4,187.8c0,0-20.7,83.8-16.7,106.8c2.1,11.9-18.9,19-38.7,19c-17.9,0-34.9-5.8-32.6-19
			c4.1-24.1-16.7-106.8-16.7-106.8c17.9,1.8,34.9,2.8,52.5,2.8C393.8,190.7,410.8,189.8,429.4,187.8 M429.4,184.3
			c-0.1,0-0.2,0-0.4,0c-18.2,1.9-35.1,2.8-51.8,2.8c-16.8,0-33.4-0.9-52.2-2.8c-0.1,0-0.2,0-0.4,0c-1,0-2,0.4-2.7,1.2
			c-0.8,0.9-1,2.1-0.8,3.2c0.2,0.8,20.6,82.2,16.6,105.4c-0.8,4.7,0.4,9.1,3.4,12.7c7.9,9.4,25.5,10.4,32.7,10.4
			c7.8,0,15.8-1.1,22.5-3c7.6-2.2,13.3-5.4,16.6-9.3c2.7-3.2,3.8-7,3.1-10.8c-3.8-22.1,16.4-104.5,16.6-105.4c0.3-1.1,0-2.3-0.8-3.2
			C431.4,184.7,430.4,184.3,429.4,184.3L429.4,184.3z"/>
	</g>
	
		<rect x="315.3" y="188.2" transform="matrix(-0.9913 -0.1317 0.1317 -0.9913 607.0971 532.2718)" fill="#3D3A3A" width="11.7" height="115.7"/>
	
		<path fill="#3D3A3A" stroke="#3D3A3A" stroke-width="2.8296" stroke-linecap="round" stroke-linejoin="round" stroke-miterlimit="10" d="
		M416,315.2c-2,18.7,1.8,52.7,8.9,78.2l-3.2,2.1c-17.5-13.9-38.8-59.4-37.8-76.3"/>
	
		<path fill="#3D3A3A" stroke="#3D3A3A" stroke-width="2.8296" stroke-linecap="round" stroke-linejoin="round" stroke-miterlimit="10" d="
		M338.3,315.2c5,13.4-0.8,55.3-7.5,81.1l4,0.7c14-12,35.3-60.8,34.3-77.7"/>
	<g>
		<path fill="#F5F5F5" d="M351,330.4c-4.6,0-8.3-4-8.3-8.8V299c0-4.9,3.7-8.8,8.3-8.8h51.9c4.6,0,8.3,4,8.3,8.8v22.6
			c0,4.9-3.7,8.8-8.3,8.8H351z"/>
		<g>
			<path fill="#3D3A3A" d="M402.8,291.9c3.6,0,6.6,3.2,6.6,7.1v22.6c0,3.9-2.9,7.1-6.6,7.1H351c-3.6,0-6.6-3.2-6.6-7.1V299
				c0-3.9,2.9-7.1,6.6-7.1H402.8 M402.8,288.3H351c-5.6,0-10.1,4.8-10.1,10.6v22.6c0,5.9,4.5,10.6,10.1,10.6h51.9
				c5.6,0,10.1-4.8,10.1-10.6V299C412.9,293.1,408.4,288.3,402.8,288.3L402.8,288.3z"/>
		</g>
	</g>
	
		<rect x="443.4" y="184.9" transform="matrix(0.9106 -0.4132 0.4132 0.9106 -60.162 207.3386)" fill="#3D3A3A" width="11.7" height="115.7"/>
	<path fill="#F5F5F5" stroke="#3D3A3A" stroke-width="3.5369" stroke-linejoin="round" stroke-miterlimit="10" d="M387.6,191.4H365
		c0,0,1.4-25.5-1.4-33.2s29.3-9.3,25.5,0C385.8,166.1,387.6,191.4,387.6,191.4z"/>
	<g>
		<path fill="#F5F5F5" d="M376,151.4c-26.4,0-31.4-13.4-31.4-38.1c0-19.5,0-52.2,31.4-52.2c31.4,0,31.4,32.7,31.4,52.2
			C407.3,138,402.3,151.4,376,151.4z"/>
		<path fill="#3D3A3A" d="M376,62.9c28,0,29.6,26.5,29.6,50.4c0,24-4.7,36.3-29.6,36.3c-24.9,0-29.6-12.3-29.6-36.3
			C346.4,89.4,348,62.9,376,62.9 M376,59.4c-14,0-23.6,6.2-28.6,18.4c-4.2,10.4-4.6,23.8-4.6,35.5c0,18.1,3.1,24.9,6.1,29.2
			c5.1,7.3,13.7,10.7,27,10.7c13.3,0,21.9-3.4,27-10.7c5.4-7.6,6.1-19,6.1-29.2c0-11.7-0.4-25.1-4.6-35.5
			C399.6,65.6,390,59.4,376,59.4L376,59.4z"/>
	</g>
	<g>
		<path fill="#F5F5F5" d="M359.3,159.9c-0.1,0-0.3,0-0.4,0c-21.3-4.7-17.9-32.2-17.9-32.4c0.1-0.9,0.9-1.5,1.8-1.5h66.2
			c0.9,0,1.6,0.7,1.8,1.5c0,0.3,3.5,27.7-17.9,32.4c-0.1,0-0.3,0-0.4,0H359.3z"/>
		<path fill="#3D3A3A" d="M409.1,127.7c0,0,3.5,26.1-16.5,30.5c0,0-8.4,0-16.3,0c-0.2,0-0.5,0-0.7,0c-7.9,0-16.3,0-16.3,0
			c-20-4.4-16.5-30.5-16.5-30.5h32.8h0.7H409.1 M409.1,124.1h-32.8h-0.7h-32.8c-1.8,0-3.3,1.3-3.5,3.1c0,0.3-0.9,7.2,0.8,14.8
			c2.5,10.7,8.8,17.4,18.4,19.6c0.3,0.1,0.5,0.1,0.8,0.1h16.3h0.7h16.3c0.3,0,0.5,0,0.8-0.1c9.6-2.1,16-8.9,18.4-19.6
			c1.7-7.6,0.8-14.6,0.8-14.8C412.4,125.4,410.9,124.1,409.1,124.1L409.1,124.1z"/>
	</g>
	<g>
		<path fill="#F5F5F5" d="M390,101.4c-5.1,0-9.3-4.2-9.3-9.3s4.2-9.3,9.3-9.3s9.3,4.2,9.3,9.3S395.1,101.4,390,101.4z"/>
		<path fill="#3D3A3A" d="M390,84.5c4.2,0,7.5,3.4,7.5,7.5c0,4.2-3.4,7.5-7.5,7.5c-4.2,0-7.5-3.4-7.5-7.5
			C382.5,87.9,385.8,84.5,390,84.5 M390,81c-6.1,0-11.1,5-11.1,11.1c0,6.1,5,11.1,11.1,11.1c6.1,0,11.1-5,11.1-11.1
			C401.1,86,396.1,81,390,81L390,81z"/>
	</g>
	<g>
		<path fill="#F5F5F5" d="M390,101.8c-5.3,0-9.7-4.3-9.7-9.7c0-5.3,4.3-9.7,9.7-9.7c5.3,0,9.7,4.3,9.7,9.7
			C399.7,97.4,395.3,101.8,390,101.8z"/>
		<path fill="#3D3A3A" d="M390,84.5c4.2,0,7.5,3.4,7.5,7.5c0,4.2-3.4,7.5-7.5,7.5c-4.2,0-7.5-3.4-7.5-7.5
			C382.5,87.9,385.8,84.5,390,84.5 M390,80.3c-6.5,0-11.8,5.3-11.8,11.8c0,6.5,5.3,11.8,11.8,11.8c6.5,0,11.8-5.3,11.8-11.8
			C401.8,85.6,396.5,80.3,390,80.3L390,80.3z"/>
	</g>
	<g>
		<path fill="#F5F5F5" d="M362.4,101.4c-5.1,0-9.3-4.2-9.3-9.3s4.2-9.3,9.3-9.3s9.3,4.2,9.3,9.3S367.6,101.4,362.4,101.4z"/>
		<path fill="#3D3A3A" d="M362.4,84.5c4.2,0,7.5,3.4,7.5,7.5c0,4.2-3.4,7.5-7.5,7.5c-4.2,0-7.5-3.4-7.5-7.5
			C354.9,87.9,358.2,84.5,362.4,84.5 M362.4,81c-6.1,0-11.1,5-11.1,11.1c0,6.1,5,11.1,11.1,11.1c6.1,0,11.1-5,11.1-11.1
			C373.5,86,368.5,81,362.4,81L362.4,81z"/>
	</g>
	<circle fill="#3D3A3A" cx="362.4" cy="94.9" r="2.4"/>
	
		<rect x="379.3" y="87.5" transform="matrix(0.818 -0.5753 0.5753 0.818 19.5235 239.5812)" fill="#3D3A3A" width="18" height="2.8"/>
	
		<rect x="382.1" y="90.3" transform="matrix(0.818 -0.5753 0.5753 0.818 18.2433 241.7546)" fill="#3D3A3A" width="18" height="3.5"/>
	<path fill="#3D3A3A" d="M402.7,95.9c1.2,0.6,1.6,2.3,0.8,3.6l0,0c-0.7,1.4-2.3,2-3.5,1.4l-1.6-0.9c-1.2-0.6-1.6-2.3-0.8-3.6l0,0
		c0.7-1.4,2.3-2,3.5-1.4L402.7,95.9z"/>
	<g>
		<path fill="#3D3A3A" d="M411.3,74.8c-0.1-2.8-1.2-5-2.6-5h-65.4c-1.4,0-2.5,2.2-2.6,5H411.3z"/>
	</g>
	<rect x="349.4" y="20.4" fill="#3D3A3A" width="53.1" height="52.8"/>
	<ellipse fill="#3D3A3A" cx="376" cy="20.3" rx="26.5" ry="2"/>
	<g>
		<polygon fill="#F5F5F5" points="349.7,186.9 360.7,177.3 376.1,188.9 357.5,204.6 		"/>
		<path fill="#3D3A3A" d="M360.8,179.6l12.5,9.4l-15.1,12.7l-6.4-14.4L360.8,179.6 M360.6,175l-2.2,1.9l-9,7.8l-2,1.7l1.1,2.4
			l6.4,14.4l1.9,4.3l3.6-3l15.1-12.7l3.4-2.9l-3.5-2.7l-12.5-9.4L360.6,175L360.6,175z"/>
	</g>
	<g>
		<polygon fill="#F5F5F5" points="376.6,188.9 392,177.3 403,186.9 395.1,204.6 		"/>
		<path fill="#3D3A3A" d="M391.9,179.6l9,7.8l-6.4,14.4L379.4,189L391.9,179.6 M392,175l-2.3,1.7l-12.5,9.4l-3.5,2.7l3.4,2.9
			l15.1,12.7l3.6,3l1.9-4.3l6.4-14.4l1.1-2.4l-2-1.7l-9-7.8L392,175L392,175z"/>
	</g>
	
		<polygon fill="#3D3A3A" stroke="#3D3A3A" stroke-width="2.8296" stroke-linecap="round" stroke-linejoin="round" stroke-miterlimit="10" points="
		481.5,340 501,356.6 494.2,367.9 488.9,366.5 493.6,356.5 477.2,346.2 480.4,349 480.6,357.8 486.2,358.9 483.7,364 475.1,361.5 
		475.8,342.4 	"/>
	<g>
		<path fill="#F5F5F5" d="M470.2,346.3c-6.6-8-11.3-18.5-15.5-35.3c-5.9-23.6-6.5-48.9,3.9-51.5c0.5-0.1,1.1-0.2,1.6-0.2
			c10.4,0,20.8,22.7,26.1,43.8c4.2,16.7,5.1,28.2,3,38.4l-0.2,1.1l-18.1,4.5L470.2,346.3z"/>
		<path fill="#3D3A3A" d="M460.2,261.2c7.7,0,18,17.3,24.3,42.4c4.3,17.3,4.9,28.2,3,37.6l-16,4c-6.1-7.4-10.8-17.2-15.1-34.6
			c-6.6-26.4-5.2-47.4,2.6-49.3C459.4,261.2,459.8,261.2,460.2,261.2 M460.2,257.6c-0.7,0-1.4,0.1-2,0.3c-3.8,1-8.6,5-9.4,18.7
			c-0.5,9.5,1,21.9,4.2,34.9c4.3,17,9,27.8,15.8,36l1.4,1.7l2.2-0.5l16-4l2.2-0.5l0.4-2.2c2.1-10.4,1.2-22.2-3-39.2
			C482.3,280.3,471.6,257.6,460.2,257.6L460.2,257.6z"/>
	</g>
	<path fill="#F5F5F5" stroke="#3D3A3A" stroke-width="3.5369" stroke-linejoin="round" stroke-miterlimit="10" d="M471.8,264.6
		c1.5,5.8-20.5,11.3-22,5.5c-1.5-5.8,2.3-11.7,8.4-13.2C464.2,255.3,470.3,258.8,471.8,264.6z"/>
	<path fill="#3D3A3A" d="M411.9,131.9c0,0.8-0.6,1.4-1.4,1.4H394c-0.8,0-1.4-0.6-1.4-1.4l0,0c0-0.8,0.6-1.4,1.4-1.4h16.5
		C411.3,130.5,411.9,131.2,411.9,131.9L411.9,131.9z"/>
	<path fill="#3D3A3A" d="M411.9,138.3c0,0.8-0.6,1.4-1.4,1.4H394c-0.8,0-1.4-0.6-1.4-1.4l0,0c0-0.8,0.6-1.4,1.4-1.4h16.5
		C411.3,136.9,411.9,137.5,411.9,138.3L411.9,138.3z"/>
	<path fill="#3D3A3A" d="M409.8,144.7c0,0.8-0.6,1.4-1.4,1.4H394c-0.8,0-1.4-0.6-1.4-1.4l0,0c0-0.8,0.6-1.4,1.4-1.4h14.4
		C409.2,143.3,409.8,143.9,409.8,144.7L409.8,144.7z"/>
	<path fill="#3D3A3A" d="M478.3,277.1c0.2,0.8-0.3,1.7-1.1,1.9l-4.8,1.2c-0.8,0.2-1.7-0.3-1.9-1.1l0,0c-0.2-0.8,0.3-1.7,1.1-1.9
		l4.8-1.2C477.3,275.8,478.1,276.3,478.3,277.1L478.3,277.1z"/>
	<path fill="#3D3A3A" d="M480,284c0.2,0.8-0.3,1.7-1.1,1.9l-4.8,1.2c-0.8,0.2-1.7-0.3-1.9-1.1l0,0c-0.2-0.8,0.3-1.7,1.1-1.9l4.8-1.2
		C479,282.7,479.8,283.2,480,284L480,284z"/>
	<path fill="#3D3A3A" d="M483.1,290.5c0.2,0.8-0.3,1.7-1.1,1.9l-6.2,1.5c-0.8,0.2-1.7-0.3-1.9-1.1l0,0c-0.2-0.8,0.3-1.7,1.1-1.9
		l6.2-1.5C482.1,289.2,482.9,289.7,483.1,290.5L483.1,290.5z"/>
	<path fill="#3D3A3A" d="M485.5,297.2c0.2,0.8-0.3,1.7-1.1,1.9l-6.9,1.7c-0.8,0.2-1.7-0.3-1.9-1.1l0,0c-0.2-0.8,0.3-1.7,1.1-1.9
		l6.9-1.7C484.5,295.9,485.3,296.4,485.5,297.2L485.5,297.2z"/>
	<path fill="#3D3A3A" d="M486.6,304.2c0.2,0.8-0.3,1.7-1.1,1.9l-6.2,1.5c-0.8,0.2-1.7-0.3-1.9-1.1l0,0c-0.2-0.8,0.3-1.7,1.1-1.9
		l6.2-1.5C485.5,302.9,486.4,303.4,486.6,304.2L486.6,304.2z"/>
	<path fill="#3D3A3A" d="M488.3,311.1c0.2,0.8-0.3,1.7-1.1,1.9l-6.2,1.5c-0.8,0.2-1.7-0.3-1.9-1.1l0,0c-0.2-0.8,0.3-1.7,1.1-1.9
		l6.2-1.5C487.2,309.8,488.1,310.3,488.3,311.1L488.3,311.1z"/>
	<path fill="#3D3A3A" d="M490,318c0.2,0.8-0.3,1.7-1.1,1.9l-6.2,1.5c-0.8,0.2-1.7-0.3-1.9-1.1l0,0c-0.2-0.8,0.3-1.7,1.1-1.9l6.2-1.5
		C489,316.6,489.8,317.1,490,318L490,318z"/>
	<path fill="#3D3A3A" d="M490.3,325.2c0.2,0.8-0.3,1.7-1.1,1.9l-4.8,1.2c-0.8,0.2-1.7-0.3-1.9-1.1l0,0c-0.2-0.8,0.3-1.7,1.1-1.9
		l4.8-1.2C489.3,323.8,490.1,324.3,490.3,325.2L490.3,325.2z"/>
	<path fill="#3D3A3A" d="M492.1,332c0.2,0.8-0.3,1.7-1.1,1.9l-4.8,1.2c-0.8,0.2-1.7-0.3-1.9-1.1l0,0c-0.2-0.8,0.3-1.7,1.1-1.9
		l4.8-1.2C491,330.7,491.9,331.2,492.1,332L492.1,332z"/>
	<g>
		
			<path fill="#3D3A3A" stroke="#3D3A3A" stroke-width="1.4148" stroke-linecap="round" stroke-linejoin="round" stroke-miterlimit="10" d="
			M359.8,125l0,1.3c-7.7-5.7-18.7-4.4-23.6,4c-1.9,3.2-5,8.6-4.7,3.8c0.2-1.5,0.3-3.2,0.3-5c0-2.5-0.3-4.9-0.7-6.9c0,0,0,0,0,0
			c-0.7-0.8-14.7-0.7-15.4,0c0,0,0,0,0,0c0,0,0,0,0,0c-0.5,2.1-0.8,4.4-0.9,7c-0.4,7.2,1.9,13,4.4,15.2c4.9,4.4,17.1,5.5,23.8-10.2
			c4-9.3,12.9-7.8,16.5-7.6"/>
	</g>
	
		<path fill="#3D3A3A" stroke="#3D3A3A" stroke-width="1.4148" stroke-linecap="round" stroke-linejoin="round" stroke-miterlimit="10" d="
		M313,96.2c3.6,2.3,1.9,5.6,0.3,8.2c-1.7,2.9-0.2,6.8,1.6,8.9c-1.3-3.4-2.3-5.3-0.1-8.4C316.8,102,318.3,97.9,313,96.2z"/>
	
		<path fill="#3D3A3A" stroke="#3D3A3A" stroke-width="1.4148" stroke-linecap="round" stroke-linejoin="round" stroke-miterlimit="10" d="
		M318.5,92.5c5.5,3.5,2.8,8.5,0.5,12.4c-2.6,4.4-0.4,10.3,2.5,13.4c-1.9-5.1-3.5-8.1-0.2-12.7C324.3,101.3,326.6,95.2,318.5,92.5z"
		/>
	<g>
		<g>
			
				<rect x="480.1" y="371.4" transform="matrix(0.9996 2.856275e-02 -2.856275e-02 0.9996 13.8085 -13.6204)" fill="#3D3A3A" width="7.2" height="210.2"/>
		</g>
		<path fill="#F5F5F5" stroke="#3D3A3A" stroke-width="3.5369" stroke-linejoin="round" stroke-miterlimit="10" d="M495.8,361.2
			c0.1-3-3.8-5.5-8.6-5.6c-4.9-0.1-8.9,2.2-8.9,5.1c0,0.7,0.2,1.4,0.6,2l2.2,9.3l11.5,0.3l2.7-9.1
			C495.5,362.5,495.7,361.9,495.8,361.2z"/>
	</g>
	
		<rect x="477.2" y="574.8" transform="matrix(0.9996 2.856310e-02 -2.856310e-02 0.9996 16.7114 -13.4961)" fill="#3D3A3A" stroke="#3D3A3A" stroke-width="2.8355" stroke-linejoin="round" stroke-miterlimit="10" width="7.2" height="6.8"/>
	
		<path fill="#3D3A3A" stroke="#3D3A3A" stroke-width="2.1222" stroke-linecap="round" stroke-linejoin="round" stroke-miterlimit="10" d="
		M415,109.5c0,1.6-1.3,2.8-2.8,2.8h-1.9c-1.6,0-2.8-1.3-2.8-2.8v-4.2c0-1.6,1.3-2.8,2.8-2.8h1.9c1.6,0,2.8,1.3,2.8,2.8V109.5z"/>
	
		<path fill="#3D3A3A" stroke="#3D3A3A" stroke-width="2.1222" stroke-linecap="round" stroke-linejoin="round" stroke-miterlimit="10" d="
		M344.3,109.5c0,1.6-1.3,2.8-2.8,2.8h-1.9c-1.6,0-2.8-1.3-2.8-2.8v-4.2c0-1.6,1.3-2.8,2.8-2.8h1.9c1.6,0,2.8,1.3,2.8,2.8V109.5z"/>
	
		<path fill="none" stroke="#3D3A3A" stroke-width="2.1222" stroke-linecap="round" stroke-linejoin="round" stroke-miterlimit="10" d="
		M402.1,98.8c4.1,8.1-4.9,92.8,5.8,72c4.5-8.7,9.4-24.5,7.1-63.7"/>
	<path fill="none" stroke="#3D3A3A" stroke-width="5.6591" stroke-linecap="round" stroke-miterlimit="10" d="M369.9,335.4
		c-12.9,15.6-14.4,108.2-11.1,129.5"/>
	<path fill="none" stroke="#3D3A3A" stroke-width="5.6591" stroke-linecap="round" stroke-miterlimit="10" d="M382.1,335.4
		c12.9,15.6,14.4,108.2,11.1,129.5"/>
	<g>
		<path fill="#3D3A3A" d="M363.8,465.6c0,6.7,0,12.2-1.7,12.2c-1.7,0-1.7-5.4-1.7-12.2c0-6.7-0.1-12.2,1.7-12.2
			C363.9,453.5,363.8,458.9,363.8,465.6z"/>
		<path fill="#3D3A3A" d="M375.4,465.6c0,1-0.8,1.9-1.9,1.9h-10.8c-1,0-1.9-0.8-1.9-1.9l0,0c0-1,0.8-1.9,1.9-1.9h10.8
			C374.6,463.7,375.4,464.6,375.4,465.6L375.4,465.6z"/>
	</g>
	<g>
		<path fill="#3D3A3A" d="M388.3,465.6c0,6.7,0,12.2,1.7,12.2c1.7,0,1.7-5.4,1.7-12.2c0-6.7,0.1-12.2-1.7-12.2
			C388.2,453.5,388.3,458.9,388.3,465.6z"/>
		<path fill="#3D3A3A" d="M376.7,465.6c0,1,0.8,1.9,1.9,1.9h10.8c1,0,1.9-0.8,1.9-1.9l0,0c0-1-0.8-1.9-1.9-1.9h-10.8
			C377.5,463.7,376.7,464.6,376.7,465.6L376.7,465.6z"/>
	</g>
	<path fill="#3D3A3A" d="M379.6,579c0,1.4-1.6,2.6-3.6,2.6l0,0c-2,0-3.6-1.2-3.6-2.6V352.2c0-1.4,1.6-2.6,3.6-2.6l0,0
		c2,0,3.6,1.2,3.6,2.6V579z"/>
	<path fill="none" stroke="#3D3A3A" stroke-width="1.4148" stroke-linecap="round" stroke-miterlimit="10" d="M373.4,356.7
		c-2.4,6.1-10.6,74.7-10.6,98.6"/>
	<path fill="none" stroke="#3D3A3A" stroke-width="1.4148" stroke-linecap="round" stroke-miterlimit="10" d="M378.7,356.7
		c2.4,6.1,10.6,74.7,10.6,98.6"/>
	<g>
		<path fill="none" stroke="#3D3A3A" stroke-width="1.4148" stroke-linecap="round" stroke-miterlimit="10" d="M373.4,383.5
			c-2.4,4.9-10.6,59.7-10.6,78.8"/>
		<path fill="none" stroke="#3D3A3A" stroke-width="1.4148" stroke-linecap="round" stroke-miterlimit="10" d="M378.7,383.5
			c2.4,4.9,10.6,59.7,10.6,78.8"/>
		<path fill="none" stroke="#3D3A3A" stroke-width="1.4148" stroke-linecap="round" stroke-miterlimit="10" d="M373.4,415.1
			c-2.4,3.3-10.6,39.7-10.6,52.4"/>
		<path fill="none" stroke="#3D3A3A" stroke-width="1.4148" stroke-linecap="round" stroke-miterlimit="10" d="M378.7,415.1
			c2.4,3.3,10.6,39.7,10.6,52.4"/>
		<path fill="none" stroke="#3D3A3A" stroke-width="1.4148" stroke-linecap="round" stroke-miterlimit="10" d="M373.4,443.4
			c-2.4,1.6-10.6,19.1-10.6,25.2"/>
		<path fill="none" stroke="#3D3A3A" stroke-width="1.4148" stroke-linecap="round" stroke-miterlimit="10" d="M378.7,443.4
			c2.4,1.6,10.6,19.1,10.6,25.2"/>
	</g>
	<g>
		<path fill="none" stroke="#3D3A3A" stroke-width="1.4148" stroke-linecap="round" stroke-miterlimit="10" d="M373.4,547.7
			c-2.4-4.9-10.6-59.7-10.6-78.8"/>
		<path fill="none" stroke="#3D3A3A" stroke-width="1.4148" stroke-linecap="round" stroke-miterlimit="10" d="M378.7,547.7
			c2.4-4.9,10.6-59.7,10.6-78.8"/>
		<path fill="none" stroke="#3D3A3A" stroke-width="1.4148" stroke-linecap="round" stroke-miterlimit="10" d="M373.4,516.1
			c-2.4-3.3-10.6-39.7-10.6-52.4"/>
		<path fill="none" stroke="#3D3A3A" stroke-width="1.4148" stroke-linecap="round" stroke-miterlimit="10" d="M378.7,516.1
			c2.4-3.3,10.6-39.7,10.6-52.4"/>
		<path fill="none" stroke="#3D3A3A" stroke-width="1.4148" stroke-linecap="round" stroke-miterlimit="10" d="M373.4,487.8
			c-2.4-1.6-10.6-19.1-10.6-25.2"/>
		<path fill="none" stroke="#3D3A3A" stroke-width="1.4148" stroke-linecap="round" stroke-miterlimit="10" d="M378.7,487.8
			c2.4-1.6,10.6-19.1,10.6-25.2"/>
	</g>
	<g>
		<path fill="none" stroke="#3D3A3A" stroke-width="1.4148" stroke-linecap="round" stroke-miterlimit="10" d="M373.4,574.8
			c-2.4-6.1-10.6-74.7-10.6-98.6"/>
		<path fill="none" stroke="#3D3A3A" stroke-width="1.4148" stroke-linecap="round" stroke-miterlimit="10" d="M378.7,574.8
			c2.4-6.1,10.6-74.7,10.6-98.6"/>
	</g>
	<line fill="none" stroke="#3D3A3A" stroke-width="3.5369" stroke-miterlimit="10" x1="342.4" y1="324" x2="411" y2="324"/>
	<line fill="none" stroke="#3D3A3A" stroke-width="3.5369" stroke-miterlimit="10" x1="342.4" y1="317.6" x2="411" y2="317.6"/>
	
		<path fill="#3D3A3A" stroke="#3D3A3A" stroke-width="2.8296" stroke-linecap="round" stroke-linejoin="round" stroke-miterlimit="10" d="
		M402.7,304.9l11,17.6c2.4-3.3,5.1-12.9,1.3-25.3C410.5,282.3,402.7,304.9,402.7,304.9z"/>
	
		<path fill="#3D3A3A" stroke="#3D3A3A" stroke-width="2.8296" stroke-linecap="round" stroke-linejoin="round" stroke-miterlimit="10" d="
		M353.9,304.9l-13.1,17.6c-2.4-3.3-5.1-13.6-1.3-26.1C344,281.6,353.9,304.9,353.9,304.9z"/>
	<path fill="#F5F5F5" stroke="#3D3A3A" stroke-width="3.5369" stroke-miterlimit="10" d="M393.2,335.2c0,2.4-1.4,4.3-3,4.3h-27
		c-1.7,0-3-1.9-3-4.3l0,0c0-2.4,1.4-4.3,3-4.3h27C391.9,330.9,393.2,332.8,393.2,335.2L393.2,335.2z"/>
	
		<polygon fill="#3D3A3A" stroke="#3D3A3A" stroke-width="2.8296" stroke-linecap="round" stroke-linejoin="round" stroke-miterlimit="10" points="
		307.9,363.3 310.3,388.7 323.5,389.7 325.4,384.5 314.6,382.6 315.5,363.3 316,367.5 323,372.7 320.7,377.9 326.3,378.8 
		329.2,370.3 313.1,360 	"/>
	<g>
		<path fill="#F5F5F5" d="M306.6,364.7l-0.5-1c-4.5-9.3-6.4-20.7-6.4-38c0-24.3,5.6-49,16.3-49c10.7,0,16.3,24.6,16.3,49
			c0,17.3-1.9,28.6-6.4,38l-0.5,1H306.6z"/>
		<path fill="#3D3A3A" d="M316,278.5c8,0,14.5,20,14.5,47.2c0,17.8-2.1,28.5-6.2,37.2h-16.5c-4.2-8.7-6.2-19.3-6.2-37.2
			C301.5,298.5,308,278.5,316,278.5 M316,275c-4,0-9.5,2.8-13.6,15.9c-2.8,9.1-4.4,21.5-4.4,34.9c0,17.5,2,29.1,6.6,38.7l1,2h2.2
			h16.5h2.2l1-2c4.6-9.6,6.6-21.2,6.6-38.7c0-13.4-1.6-25.8-4.4-34.9C325.5,277.7,319.9,275,316,275L316,275z"/>
	</g>
	<path fill="#F5F5F5" stroke="#3D3A3A" stroke-width="3.5369" stroke-linejoin="round" stroke-miterlimit="10" d="M304.4,284.8
		c0,6,22.6,6,22.6,0c0-6-5.1-10.8-11.3-10.8C309.5,274,304.4,278.8,304.4,284.8z"/>
	<g>
		<path fill="#3D3A3A" d="M301.1,298.5c0,0.8,0.7,1.5,1.5,1.5h5c0.8,0,1.5-0.7,1.5-1.5l0,0c0-0.8-0.7-1.5-1.5-1.5h-5
			C301.8,297,301.1,297.7,301.1,298.5L301.1,298.5z"/>
		<path fill="#3D3A3A" d="M301.1,305.6c0,0.8,0.7,1.5,1.5,1.5h5c0.8,0,1.5-0.7,1.5-1.5l0,0c0-0.8-0.7-1.5-1.5-1.5h-5
			C301.8,304.1,301.1,304.8,301.1,305.6L301.1,305.6z"/>
		<path fill="#3D3A3A" d="M299.7,312.7c0,0.8,0.7,1.5,1.5,1.5h6.4c0.8,0,1.5-0.7,1.5-1.5l0,0c0-0.8-0.7-1.5-1.5-1.5h-6.4
			C300.4,311.1,299.7,311.8,299.7,312.7L299.7,312.7z"/>
		<path fill="#3D3A3A" d="M299,319.7c0,0.8,0.7,1.5,1.5,1.5h7.1c0.8,0,1.5-0.7,1.5-1.5l0,0c0-0.8-0.7-1.5-1.5-1.5h-7.1
			C299.7,318.2,299,318.9,299,319.7L299,319.7z"/>
		<path fill="#3D3A3A" d="M299.7,326.8c0,0.8,0.7,1.5,1.5,1.5h6.4c0.8,0,1.5-0.7,1.5-1.5l0,0c0-0.8-0.7-1.5-1.5-1.5h-6.4
			C300.4,325.3,299.7,326,299.7,326.8L299.7,326.8z"/>
		<path fill="#3D3A3A" d="M299.7,333.9c0,0.8,0.7,1.5,1.5,1.5h6.4c0.8,0,1.5-0.7,1.5-1.5l0,0c0-0.8-0.7-1.5-1.5-1.5h-6.4
			C300.4,332.4,299.7,333,299.7,333.9L299.7,333.9z"/>
		<path fill="#3D3A3A" d="M299.7,341c0,0.8,0.7,1.5,1.5,1.5h6.4c0.8,0,1.5-0.7,1.5-1.5l0,0c0-0.8-0.7-1.5-1.5-1.5h-6.4
			C300.4,339.4,299.7,340.1,299.7,341L299.7,341z"/>
		<path fill="#3D3A3A" d="M301.1,348c0,0.8,0.7,1.5,1.5,1.5h5c0.8,0,1.5-0.7,1.5-1.5l0,0c0-0.8-0.7-1.5-1.5-1.5h-5
			C301.8,346.5,301.1,347.2,301.1,348L301.1,348z"/>
		<path fill="#3D3A3A" d="M301.1,355.1c0,0.8,0.7,1.5,1.5,1.5h5c0.8,0,1.5-0.7,1.5-1.5l0,0c0-0.8-0.7-1.5-1.5-1.5h-5
			C301.8,353.6,301.1,354.3,301.1,355.1L301.1,355.1z"/>
	</g>
	<g>
		<rect x="370.7" y="196.9" fill="#F5F5F5" width="10.6" height="103.6"/>
		<path fill="#3D3A3A" d="M380.3,198v101.5h-8.5V198H380.3 M382.4,195.8h-2.1h-8.5h-2.1v2.1v101.5v2.1h2.1h8.5h2.1v-2.1V198V195.8
			L382.4,195.8z"/>
	</g>
	<rect x="355.5" y="280.2" fill="#F5F5F5" width="50" height="19.8"/>
	<path fill="#F5F5F5" stroke="#3D3A3A" stroke-width="2.8296" stroke-linejoin="round" stroke-miterlimit="10" d="M354.6,188
		c-0.2,14,13.6,95.1,24.5,101.9v11.4c-4.7,6.9-15.5,8.5-25.9,7l-22.5-119.7L354.6,188z"/>
	<path fill="#F5F5F5" stroke="#3D3A3A" stroke-width="2.8296" stroke-linejoin="round" stroke-miterlimit="10" d="M401.1,188
		c0.2,14-15.7,96.5-26.6,103.4v11.4c5.8,7,15.4,7,29.5,7l16.1-122L401.1,188z"/>
	
		<path fill="none" stroke="#3D3A3A" stroke-width="2.8296" stroke-linecap="round" stroke-linejoin="round" stroke-miterlimit="10" d="
		M375.2,291.3c3.9,0.4,19.1-6.1,27.1-27.3"/>
	
		<path fill="none" stroke="#3D3A3A" stroke-width="2.8296" stroke-linecap="round" stroke-linejoin="round" stroke-miterlimit="10" d="
		M376.1,289.9c-3.9,0.4-17.6-2.6-25.7-23.8"/>
	<g>
		<defs>
			<path id="SVGID_1_" d="M413.5,296.4c4.1,23.6-77.1,24.1-72.9,0c4.2-24.7-17.1-110-17.1-110c35.4,3.6,67.8,4.1,107.1,0
				C430.6,186.4,409.4,272.8,413.5,296.4z"/>
		</defs>
		<clipPath id="SVGID_2_">
			<use xlink:href="#SVGID_1_"  overflow="visible"/>
		</clipPath>
		
			<polygon clip-path="url(#SVGID_2_)" fill="#3D3A3A" stroke="#3D3A3A" stroke-width="2.1222" stroke-linecap="round" stroke-linejoin="round" stroke-miterlimit="10" points="
			411.3,186.9 439,172.4 431.8,276.1 414.2,314.3 390.1,305.4 390.2,292.1 		"/>
		
			<polygon clip-path="url(#SVGID_2_)" fill="#3D3A3A" stroke="#3D3A3A" stroke-width="2.1222" stroke-linecap="round" stroke-linejoin="round" stroke-miterlimit="10" points="
			365.5,304.8 366.2,292.9 340.2,186.9 313.9,172.4 321.1,276.1 342.2,311.4 		"/>
	</g>
	<polygon fill="#F5F5F5" points="408.2,225.7 420,225.7 417,215.6 	"/>
	
		<polygon fill="#F5F5F5" stroke="#3D3A3A" stroke-width="4.2443" stroke-linecap="round" stroke-linejoin="round" stroke-miterlimit="10" points="
		402,210.5 376.5,197 376.5,189.2 404.2,181.5 	"/>
	
		<polygon fill="#F5F5F5" stroke="#3D3A3A" stroke-width="4.2443" stroke-linecap="round" stroke-linejoin="round" stroke-miterlimit="10" points="
		350.6,210.5 375.5,197 375.5,189.2 347.8,181.5 	"/>
	
		<rect x="370.5" y="185.9" fill="#F5F5F5" stroke="#3D3A3A" stroke-width="4.2443" stroke-linecap="round" stroke-linejoin="round" stroke-miterlimit="10" width="11.1" height="14.1"/>
	<g>
		
			<line fill="none" stroke="#3D3A3A" stroke-width="1.4148" stroke-linecap="round" stroke-miterlimit="10" x1="378.2" y1="295.5" x2="381.7" y2="295.5"/>
		
			<line fill="none" stroke="#3D3A3A" stroke-width="1.4148" stroke-linecap="round" stroke-miterlimit="10" x1="378.2" y1="300.5" x2="381.7" y2="300.5"/>
		<circle fill="#3D3A3A" cx="378.9" cy="295.5" r="1.4"/>
		<circle fill="#3D3A3A" cx="378.9" cy="300.5" r="1.4"/>
	</g>
	<circle fill="#3D3A3A" cx="376" cy="210.6" r="2.1"/>
	<circle fill="#3D3A3A" cx="376" cy="231.9" r="2.1"/>
	<circle fill="#3D3A3A" cx="376" cy="253.1" r="2.1"/>
	<line fill="none" stroke="#3D3A3A" stroke-width="3.5369" stroke-miterlimit="10" x1="342.4" y1="311.3" x2="409.8" y2="311.3"/>
	
		<polygon fill="#3D3A3A" stroke="#3D3A3A" stroke-width="2.1222" stroke-linecap="round" stroke-linejoin="round" stroke-miterlimit="10" points="
		414.1,287.6 417.2,310.6 398.1,321.9 390,305.6 390.2,293.1 	"/>
	
		<polygon fill="#3D3A3A" stroke="#3D3A3A" stroke-width="2.1222" stroke-linecap="round" stroke-linejoin="round" stroke-miterlimit="10" points="
		339.4,287.6 337.7,309.8 357.5,321.9 365.6,304.9 365.9,293.9 	"/>
</g>
</svg>
