<?xml version="1.0" encoding="utf-8"?>
<!-- Generator: Adobe Illustrator 17.1.0, SVG Export Plug-In . SVG Version: 6.00 Build 0)  -->
<!DOCTYPE svg PUBLIC "-//W3C//DTD SVG 1.1//EN" "http://www.w3.org/Graphics/SVG/1.1/DTD/svg11.dtd">
<svg version="1.1" xmlns="http://www.w3.org/2000/svg" xmlns:xlink="http://www.w3.org/1999/xlink" x="0px" y="0px"
	 viewBox="0 0 800 600" enable-background="new 0 0 800 600" xml:space="preserve">
<g id="Layer_2">
</g>
<g id="Layer_1">
	<rect fill="#F5F6F6" width="800" height="600"/>
	<g>
		<g>
			<path fill="#F5F6F6" d="M320.2,509.6c-1.1,0-2.1-0.6-2.7-1.6c-0.6-1.2-15.7-30,0.8-42.8c7.2-5.6,24.8-8.4,52.1-8.4
				c14.2,0,25.9,0.8,26,0.8c1.6,0.1,2.8,1.4,2.8,3v46c0,1.7-1.3,3-3,3H320.2z"/>
			<path fill="#3E3B3B" d="M370.4,459.8c14.2,0,25.8,0.8,25.8,0.8v46h-76c0,0-14.7-27.7,0-39C328.5,461.2,351.8,459.8,370.4,459.8
				 M370.4,453.8C370.4,453.8,370.4,453.8,370.4,453.8c-28.4,0-46,3-53.9,9.1c-5.6,4.3-11.4,12.9-7.7,29.8c2,9,5.9,16.5,6.1,16.8
				c1,2,3.1,3.2,5.3,3.2h76c3.3,0,6-2.7,6-6v-46c0-3.1-2.4-5.8-5.6-6C396.1,454.6,384.7,453.8,370.4,453.8L370.4,453.8z"/>
		</g>
		<g>
			
				<line fill="#F5F6F6" stroke="#3E3B3B" stroke-width="2" stroke-linecap="round" stroke-linejoin="round" stroke-miterlimit="10" x1="317.2" y1="485.6" x2="317.2" y2="502.1"/>
			
				<line fill="#F5F6F6" stroke="#3E3B3B" stroke-width="2" stroke-linecap="round" stroke-linejoin="round" stroke-miterlimit="10" x1="321.2" y1="489.6" x2="321.2" y2="506.1"/>
			
				<line fill="#F5F6F6" stroke="#3E3B3B" stroke-width="2" stroke-linecap="round" stroke-linejoin="round" stroke-miterlimit="10" x1="325.2" y1="492.6" x2="325.2" y2="509.1"/>
			
				<line fill="#F5F6F6" stroke="#3E3B3B" stroke-width="2" stroke-linecap="round" stroke-linejoin="round" stroke-miterlimit="10" x1="329.2" y1="494.6" x2="329.2" y2="511.1"/>
			
				<line fill="#F5F6F6" stroke="#3E3B3B" stroke-width="2" stroke-linecap="round" stroke-linejoin="round" stroke-miterlimit="10" x1="333.2" y1="495.6" x2="333.2" y2="510.3"/>
			
				<line fill="#F5F6F6" stroke="#3E3B3B" stroke-width="2" stroke-linecap="round" stroke-linejoin="round" stroke-miterlimit="10" x1="337.2" y1="495.6" x2="337.2" y2="510.3"/>
			
				<line fill="#F5F6F6" stroke="#3E3B3B" stroke-width="2" stroke-linecap="round" stroke-linejoin="round" stroke-miterlimit="10" x1="341.2" y1="495.6" x2="341.2" y2="509.6"/>
			
				<line fill="#F5F6F6" stroke="#3E3B3B" stroke-width="2" stroke-linecap="round" stroke-linejoin="round" stroke-miterlimit="10" x1="345.2" y1="495.6" x2="345.2" y2="509.6"/>
			
				<line fill="#F5F6F6" stroke="#3E3B3B" stroke-width="2" stroke-linecap="round" stroke-linejoin="round" stroke-miterlimit="10" x1="349.2" y1="495.6" x2="349.2" y2="509.6"/>
			
				<line fill="#F5F6F6" stroke="#3E3B3B" stroke-width="2" stroke-linecap="round" stroke-linejoin="round" stroke-miterlimit="10" x1="353.2" y1="495.6" x2="353.2" y2="509.6"/>
			
				<line fill="#F5F6F6" stroke="#3E3B3B" stroke-width="2" stroke-linecap="round" stroke-linejoin="round" stroke-miterlimit="10" x1="357.2" y1="495.6" x2="357.2" y2="509.6"/>
			
				<line fill="#F5F6F6" stroke="#3E3B3B" stroke-width="2" stroke-linecap="round" stroke-linejoin="round" stroke-miterlimit="10" x1="361.2" y1="495.6" x2="361.2" y2="509.6"/>
			
				<line fill="#F5F6F6" stroke="#3E3B3B" stroke-width="2" stroke-linecap="round" stroke-linejoin="round" stroke-miterlimit="10" x1="365.2" y1="495.6" x2="365.2" y2="509.6"/>
			
				<line fill="#F5F6F6" stroke="#3E3B3B" stroke-width="2" stroke-linecap="round" stroke-linejoin="round" stroke-miterlimit="10" x1="369.2" y1="495.6" x2="369.2" y2="509.6"/>
			
				<line fill="#F5F6F6" stroke="#3E3B3B" stroke-width="2" stroke-linecap="round" stroke-linejoin="round" stroke-miterlimit="10" x1="373.2" y1="495.6" x2="373.2" y2="509.6"/>
			
				<line fill="#F5F6F6" stroke="#3E3B3B" stroke-width="2" stroke-linecap="round" stroke-linejoin="round" stroke-miterlimit="10" x1="377.2" y1="495.6" x2="377.2" y2="509.6"/>
			
				<line fill="#F5F6F6" stroke="#3E3B3B" stroke-width="2" stroke-linecap="round" stroke-linejoin="round" stroke-miterlimit="10" x1="381.2" y1="495.6" x2="381.2" y2="509.6"/>
			
				<line fill="#F5F6F6" stroke="#3E3B3B" stroke-width="2" stroke-linecap="round" stroke-linejoin="round" stroke-miterlimit="10" x1="385.2" y1="495.6" x2="385.2" y2="509.6"/>
			
				<line fill="#F5F6F6" stroke="#3E3B3B" stroke-width="2" stroke-linecap="round" stroke-linejoin="round" stroke-miterlimit="10" x1="389.2" y1="495.6" x2="389.2" y2="509.6"/>
			
				<line fill="#F5F6F6" stroke="#3E3B3B" stroke-width="2" stroke-linecap="round" stroke-linejoin="round" stroke-miterlimit="10" x1="393.2" y1="495.6" x2="393.2" y2="509.6"/>
		</g>
		<g>
			<path fill="#F5F6F6" d="M403.7,509.6c-1.7,0-3-1.3-3-3v-46c0-1.6,1.2-2.9,2.8-3c0.1,0,11.8-0.8,26-0.8c27.3,0,44.8,2.8,52.1,8.4
				c16.5,12.7,1.5,41.6,0.8,42.8c-0.5,1-1.5,1.6-2.7,1.6H403.7z"/>
			<path fill="#3E3B3B" d="M429.4,459.8c18.6,0,41.9,1.4,50.2,7.8c14.7,11.3,0,39,0,39h-76v-46C403.7,460.6,415.2,459.8,429.4,459.8
				 M429.4,453.8c-14.3,0-25.7,0.8-26.2,0.8c-3.1,0.2-5.6,2.8-5.6,6v46c0,3.3,2.7,6,6,6h76c2.2,0,4.3-1.2,5.3-3.2
				c0.2-0.3,4.1-7.7,6.1-16.8c3.7-16.8-2.1-25.5-7.7-29.8C475.5,456.8,457.8,453.8,429.4,453.8L429.4,453.8z"/>
		</g>
		<g>
			
				<line fill="#F5F6F6" stroke="#3E3B3B" stroke-width="2" stroke-linecap="round" stroke-linejoin="round" stroke-miterlimit="10" x1="482.7" y1="485.6" x2="482.7" y2="502.1"/>
			
				<line fill="#F5F6F6" stroke="#3E3B3B" stroke-width="2" stroke-linecap="round" stroke-linejoin="round" stroke-miterlimit="10" x1="478.7" y1="489.6" x2="478.7" y2="506.1"/>
			
				<line fill="#F5F6F6" stroke="#3E3B3B" stroke-width="2" stroke-linecap="round" stroke-linejoin="round" stroke-miterlimit="10" x1="474.7" y1="492.6" x2="474.7" y2="509.1"/>
			
				<line fill="#F5F6F6" stroke="#3E3B3B" stroke-width="2" stroke-linecap="round" stroke-linejoin="round" stroke-miterlimit="10" x1="470.7" y1="494.6" x2="470.7" y2="511.1"/>
			
				<line fill="#F5F6F6" stroke="#3E3B3B" stroke-width="2" stroke-linecap="round" stroke-linejoin="round" stroke-miterlimit="10" x1="466.7" y1="495.6" x2="466.7" y2="510.3"/>
			
				<line fill="#F5F6F6" stroke="#3E3B3B" stroke-width="2" stroke-linecap="round" stroke-linejoin="round" stroke-miterlimit="10" x1="462.7" y1="495.6" x2="462.7" y2="510.3"/>
			
				<line fill="#F5F6F6" stroke="#3E3B3B" stroke-width="2" stroke-linecap="round" stroke-linejoin="round" stroke-miterlimit="10" x1="458.7" y1="495.6" x2="458.7" y2="509.6"/>
			
				<line fill="#F5F6F6" stroke="#3E3B3B" stroke-width="2" stroke-linecap="round" stroke-linejoin="round" stroke-miterlimit="10" x1="454.7" y1="495.6" x2="454.7" y2="509.6"/>
			
				<line fill="#F5F6F6" stroke="#3E3B3B" stroke-width="2" stroke-linecap="round" stroke-linejoin="round" stroke-miterlimit="10" x1="450.7" y1="495.6" x2="450.7" y2="509.6"/>
			
				<line fill="#F5F6F6" stroke="#3E3B3B" stroke-width="2" stroke-linecap="round" stroke-linejoin="round" stroke-miterlimit="10" x1="446.7" y1="495.6" x2="446.7" y2="509.6"/>
			
				<line fill="#F5F6F6" stroke="#3E3B3B" stroke-width="2" stroke-linecap="round" stroke-linejoin="round" stroke-miterlimit="10" x1="442.7" y1="495.6" x2="442.7" y2="509.6"/>
			
				<line fill="#F5F6F6" stroke="#3E3B3B" stroke-width="2" stroke-linecap="round" stroke-linejoin="round" stroke-miterlimit="10" x1="438.7" y1="495.6" x2="438.7" y2="509.6"/>
			
				<line fill="#F5F6F6" stroke="#3E3B3B" stroke-width="2" stroke-linecap="round" stroke-linejoin="round" stroke-miterlimit="10" x1="434.7" y1="495.6" x2="434.7" y2="509.6"/>
			
				<line fill="#F5F6F6" stroke="#3E3B3B" stroke-width="2" stroke-linecap="round" stroke-linejoin="round" stroke-miterlimit="10" x1="430.7" y1="495.6" x2="430.7" y2="509.6"/>
			
				<line fill="#F5F6F6" stroke="#3E3B3B" stroke-width="2" stroke-linecap="round" stroke-linejoin="round" stroke-miterlimit="10" x1="426.7" y1="495.6" x2="426.7" y2="509.6"/>
			
				<line fill="#F5F6F6" stroke="#3E3B3B" stroke-width="2" stroke-linecap="round" stroke-linejoin="round" stroke-miterlimit="10" x1="422.7" y1="495.6" x2="422.7" y2="509.6"/>
			
				<line fill="#F5F6F6" stroke="#3E3B3B" stroke-width="2" stroke-linecap="round" stroke-linejoin="round" stroke-miterlimit="10" x1="418.7" y1="495.6" x2="418.7" y2="509.6"/>
			
				<line fill="#F5F6F6" stroke="#3E3B3B" stroke-width="2" stroke-linecap="round" stroke-linejoin="round" stroke-miterlimit="10" x1="414.7" y1="495.6" x2="414.7" y2="509.6"/>
			
				<line fill="#F5F6F6" stroke="#3E3B3B" stroke-width="2" stroke-linecap="round" stroke-linejoin="round" stroke-miterlimit="10" x1="410.7" y1="495.6" x2="410.7" y2="509.6"/>
			
				<line fill="#F5F6F6" stroke="#3E3B3B" stroke-width="2" stroke-linecap="round" stroke-linejoin="round" stroke-miterlimit="10" x1="406.7" y1="495.6" x2="406.7" y2="509.6"/>
		</g>
		<path fill="#F5F6F6" stroke="#3E3B3B" stroke-width="6" stroke-miterlimit="10" d="M350.2,428.6v40c0,2.8,11.2,5,25,5s25-2.2,25-5
			v-40H350.2z"/>
		<path fill="#F5F6F6" stroke="#3E3B3B" stroke-width="6" stroke-miterlimit="10" d="M400.2,428.6v40c0,2.8,11.2,5,25,5s25-2.2,25-5
			v-40H400.2z"/>
		<g>
			<path fill="#F5F6F6" d="M499.6,376.4c-6.9,0-14.4-4.5-20.4-12.4c-6.7-8.7-10.1-19.5-8.3-26.3c0.1-0.4,0.1-0.8,0.1-1.2l-2.9-17.9
				c3.9-0.9,7.7-1.3,11.3-1.3c21.2,0,31.9,15.5,34.8,30c2.6,12.8-0.9,24.7-8,27.8C503.9,376,501.8,376.4,499.6,376.4L499.6,376.4z"
				/>
			<path fill="#3E3B3B" d="M479.3,320.4c19.4,0,29.2,14.2,31.9,27.6c2.3,11.2-0.5,22-6.3,24.4c-1.7,0.7-3.5,1.1-5.3,1.1
				c-6,0-12.6-4.1-18-11.2c-6.1-7.9-9.3-17.8-7.8-23.7c0.2-0.8,0.3-1.7,0.1-2.5l-2.4-15C474.2,320.6,476.8,320.4,479.3,320.4
				 M479.3,314.4c-4.5,0-9.4,0.6-14.7,2.1l3.3,20.6c-3.9,14.7,12.7,42.4,31.6,42.4c2.5,0,5.1-0.5,7.7-1.6
				C526.9,369.6,520.6,314.4,479.3,314.4L479.3,314.4z"/>
		</g>
		<rect x="393" y="232.6" fill="#3E3B3B" width="14" height="50"/>
		<g>
			<path fill="#3E3B3B" d="M533.5,180.5c0.1,3.9-2.9,7-6.7,7.1l-19.5,0.3c-3.7,0.1-6.8-3-6.8-6.9l0,0c-0.1-3.9,2.9-7,6.7-7.1
				l19.5-0.3C530.4,173.6,533.4,176.7,533.5,180.5L533.5,180.5z"/>
			<path fill="#3E3B3B" d="M299.5,183.7c0.1,3.9-2.9,7-6.7,7.1l-19.5,0.3c-3.7,0.1-6.8-3-6.8-6.9l0,0c-0.1-3.9,2.9-7,6.7-7.1
				l19.5-0.3C296.4,176.7,299.5,179.8,299.5,183.7L299.5,183.7z"/>
		</g>
		<g>
			<path fill="#F5F6F6" d="M390.7,254.3c-39.6,0-77-2.8-90.8-6.8c-1.3-0.4-2.1-1.5-2.2-2.8l-1.6-118c0-1.2,0.7-2.3,1.8-2.8
				c15.7-7.1,59.1-12.9,100.9-13.5c2.4,0,4.9-0.1,7.3-0.1c39.9,0,79.5,4.5,94.2,10.8c1.1,0.5,1.8,1.5,1.8,2.7l1.6,118
				c0,1.3-0.8,2.5-2,2.9c-14.8,5-57.2,9-100.8,9.5C397.6,254.3,394.1,254.3,390.7,254.3z"/>
			<path fill="#3E3B3B" d="M406.2,113.4c40.1,0,78.9,4.5,93.1,10.5l1.6,118c-14.8,5-57.3,8.8-99.9,9.3c-3.4,0-6.8,0.1-10.2,0.1
				c-39,0-76.2-2.7-89.9-6.7l-1.6-118c15-6.8,57.3-12.6,99.7-13.2C401.3,113.4,403.8,113.4,406.2,113.4 M406.2,107.4v6V107.4
				c-2.4,0-4.9,0-7.3,0.1c-42.8,0.6-85.8,6.4-102.1,13.7c-2.2,1-3.6,3.2-3.5,5.6l1.6,118c0,2.6,1.8,4.9,4.3,5.7
				c14.3,4.2,51.1,7,91.6,7c3.4,0,6.9,0,10.3-0.1c44.5-0.5,86.4-4.5,101.7-9.7c2.5-0.8,4.1-3.2,4.1-5.8l-1.6-118
				c0-2.4-1.5-4.5-3.7-5.4C486.3,111.9,447,107.4,406.2,107.4L406.2,107.4z"/>
		</g>
		<g>
			<circle fill="#3E3B3B" cx="360.1" cy="191" r="20"/>
			<path fill="#3E3B3B" d="M360.1,163.5c15,0,27.3,12.1,27.5,27.1c0.2,15.2-11.9,27.7-27.1,27.9c-0.1,0-0.3,0-0.4,0
				c-15,0-27.3-12.1-27.5-27.1c-0.2-15.2,11.9-27.7,27.1-27.9C359.9,163.5,360,163.5,360.1,163.5 M360.1,157.5v6V157.5
				c-0.2,0-0.3,0-0.5,0c-18.5,0.2-33.3,15.5-33,33.9c0.1,8.9,3.7,17.2,10,23.4c6.3,6.2,14.7,9.6,23.5,9.6c0.2,0,0.3,0,0.5,0
				c8.9-0.1,17.3-3.7,23.6-10.1c6.2-6.4,9.6-14.9,9.5-23.8c-0.1-8.9-3.7-17.2-10-23.4C377.3,161,369,157.5,360.1,157.5L360.1,157.5z
				"/>
		</g>
		<g>
			<circle fill="#3E3B3B" cx="440.1" cy="190" r="20"/>
			<path fill="#3E3B3B" d="M440.1,162.5c15,0,27.3,12.1,27.5,27.1c0.2,15.2-11.9,27.7-27.1,27.9c-0.1,0-0.3,0-0.4,0
				c-15,0-27.3-12.1-27.5-27.1c-0.2-15.2,11.9-27.7,27.1-27.9C439.9,162.5,440,162.5,440.1,162.5 M440.1,156.5v6V156.5
				c-0.2,0-0.3,0-0.5,0c-18.5,0.2-33.3,15.5-33,33.9c0.1,8.9,3.7,17.2,10,23.4c6.3,6.2,14.7,9.6,23.5,9.6c0.2,0,0.3,0,0.5,0
				c8.9-0.1,17.3-3.7,23.6-10.1s9.6-14.9,9.5-23.8c-0.1-8.9-3.7-17.2-10-23.4C457.3,159.9,449,156.5,440.1,156.5L440.1,156.5z"/>
		</g>
		<g>
			<path fill="#F5F6F6" d="M294.1,368.6c-4.6,0-8.6-1.5-11.9-4.5c-4.5-4.2-5-12.6-1.4-21.9c5.1-13.1,18-26.3,35.3-26.3
				c6.9,0,14,2.1,21.1,6.2l-8.9,17.8c-0.2,0.3-0.3,0.7-0.3,1.1c-0.5,5.5-4.9,12.4-11.6,18.1C309.4,365.1,301,368.6,294.1,368.6z"/>
			<path fill="#3E3B3B" d="M316.2,312.9v6c5.6,0,11.3,1.5,17.1,4.5l-7.6,15.2c-0.3,0.7-0.5,1.4-0.6,2.1c-0.9,10-17.4,24.8-30.9,24.8
				c-3.9,0-7.1-1.2-9.8-3.7c-3.5-3.3-3.8-10.6-0.6-18.6c2.6-6.5,6.9-12.5,12.4-16.9c6-4.9,13-7.4,20.2-7.4L316.2,312.9 M316.1,312.9
				c-31.5,0-50,40.5-36,53.4c4,3.7,8.9,5.3,13.9,5.3c16.7,0,35.7-17.2,36.9-30.3l10.1-20.3C332.2,315.3,323.8,312.9,316.1,312.9
				L316.1,312.9z"/>
		</g>
		<g>
			
				<line fill="#F5F6F6" stroke="#3E3B3B" stroke-width="2" stroke-linecap="round" stroke-linejoin="round" stroke-miterlimit="10" x1="315.9" y1="342.5" x2="315.9" y2="359"/>
			
				<line fill="#F5F6F6" stroke="#3E3B3B" stroke-width="2" stroke-linecap="round" stroke-linejoin="round" stroke-miterlimit="10" x1="311.9" y1="345.5" x2="311.9" y2="362"/>
			
				<line fill="#F5F6F6" stroke="#3E3B3B" stroke-width="2" stroke-linecap="round" stroke-linejoin="round" stroke-miterlimit="10" x1="307.9" y1="348.5" x2="307.9" y2="365"/>
			
				<line fill="#F5F6F6" stroke="#3E3B3B" stroke-width="2" stroke-linecap="round" stroke-linejoin="round" stroke-miterlimit="10" x1="303.9" y1="350.5" x2="303.9" y2="367"/>
			
				<line fill="#F5F6F6" stroke="#3E3B3B" stroke-width="2" stroke-linecap="round" stroke-linejoin="round" stroke-miterlimit="10" x1="299.9" y1="352.5" x2="299.9" y2="369"/>
			
				<line fill="#F5F6F6" stroke="#3E3B3B" stroke-width="2" stroke-linecap="round" stroke-linejoin="round" stroke-miterlimit="10" x1="295.9" y1="354.5" x2="295.9" y2="369"/>
			
				<line fill="#F5F6F6" stroke="#3E3B3B" stroke-width="2" stroke-linecap="round" stroke-linejoin="round" stroke-miterlimit="10" x1="291.9" y1="354.5" x2="291.9" y2="369"/>
			
				<line fill="#F5F6F6" stroke="#3E3B3B" stroke-width="2" stroke-linecap="round" stroke-linejoin="round" stroke-miterlimit="10" x1="287.9" y1="353.5" x2="287.9" y2="368"/>
			
				<line fill="#F5F6F6" stroke="#3E3B3B" stroke-width="2" stroke-linecap="round" stroke-linejoin="round" stroke-miterlimit="10" x1="283.9" y1="351.5" x2="283.9" y2="366"/>
		</g>
		<g>
			
				<line fill="#F5F6F6" stroke="#3E3B3B" stroke-width="2" stroke-linecap="round" stroke-linejoin="round" stroke-miterlimit="10" x1="483.9" y1="352.5" x2="483.9" y2="369"/>
			
				<line fill="#F5F6F6" stroke="#3E3B3B" stroke-width="2" stroke-linecap="round" stroke-linejoin="round" stroke-miterlimit="10" x1="487.9" y1="355.5" x2="487.9" y2="372"/>
			
				<line fill="#F5F6F6" stroke="#3E3B3B" stroke-width="2" stroke-linecap="round" stroke-linejoin="round" stroke-miterlimit="10" x1="491.9" y1="358.5" x2="491.9" y2="375"/>
			
				<line fill="#F5F6F6" stroke="#3E3B3B" stroke-width="2" stroke-linecap="round" stroke-linejoin="round" stroke-miterlimit="10" x1="495.9" y1="361.5" x2="495.9" y2="378"/>
			
				<line fill="#F5F6F6" stroke="#3E3B3B" stroke-width="2" stroke-linecap="round" stroke-linejoin="round" stroke-miterlimit="10" x1="499.9" y1="363.5" x2="499.9" y2="376"/>
			
				<line fill="#F5F6F6" stroke="#3E3B3B" stroke-width="2" stroke-linecap="round" stroke-linejoin="round" stroke-miterlimit="10" x1="503.9" y1="364.5" x2="503.9" y2="373"/>
			
				<line fill="#F5F6F6" stroke="#3E3B3B" stroke-width="2" stroke-linecap="round" stroke-linejoin="round" stroke-miterlimit="10" x1="507.9" y1="363.5" x2="507.9" y2="372"/>
		</g>
		<g>
			<path fill="#F5F6F6" d="M399.9,437.3c-31.4,0-64.1-3.9-76-9.1c-1.1-0.5-1.8-1.6-1.8-2.8v-135c0-1.3,0.9-2.5,2.1-2.9
				c11.5-3.5,43.3-6.1,75.8-6.1l0.7,0c32.9,0,63.8,2.5,75.1,6.1c1.2,0.4,2.1,1.6,2.1,2.9v135c0,1.2-0.7,2.3-1.8,2.7
				c-11.8,5.2-44.5,9.1-76.1,9.1C400,437.3,399.9,437.3,399.9,437.3z"/>
			<path fill="#3E3B3B" d="M400.7,284.4c31.6,0,63.1,2.4,74.2,6v135c-11.2,4.9-43,8.9-74.9,8.9c0,0-0.1,0-0.1,0
				c-31.8,0-63.5-4-74.8-8.9v-135c11.2-3.4,43-6,74.9-6C400.2,284.4,400.5,284.4,400.7,284.4 M400.7,278.4l-0.7,0
				c-28.1,0-63.4,2.2-76.6,6.3c-2.5,0.8-4.2,3.1-4.2,5.7v135c0,2.4,1.4,4.6,3.6,5.5c12.5,5.4,44.9,9.4,77.2,9.4h0.1l0.1,0
				c32.4,0,64.9-3.9,77.3-9.4c2.2-1,3.6-3.1,3.6-5.5v-135c0-2.6-1.7-4.9-4.2-5.7C465.2,281,433.9,278.4,400.7,278.4L400.7,278.4z"/>
		</g>
		<path fill="#3E3B3B" d="M401.2,317.3c19.8,0,39.6,1.5,46.5,3.8v84.7c-7,3.1-27,5.6-47,5.6c0,0-0.1,0-0.1,0
			c-19.9,0-39.9-2.5-46.9-5.6V321c7-2.1,27-3.7,47-3.8C400.9,317.3,401,317.3,401.2,317.3 M401.2,311.3l-0.5,0
			c-17.2,0-39.8,1.3-48.7,4c-2.5,0.8-4.2,3.1-4.2,5.7v84.7c0,2.4,1.4,4.6,3.6,5.5c9.1,4,31.7,6.1,49.3,6.1c0,0,0.1,0,0.1,0
			c17.7,0,40.3-2.1,49.4-6.1c2.2-1,3.6-3.1,3.6-5.5V321c0-2.6-1.7-4.9-4.2-5.7C440.9,312.6,418.4,311.3,401.2,311.3L401.2,311.3z"/>
		<path fill="#3E3B3B" d="M415,278.6c0,5.5-6.7,10-15,10s-15-4.5-15-10H415z"/>
	</g>
</g>
</svg>
