<?xml version="1.0" encoding="utf-8"?>
<!-- Generator: Adobe Illustrator 16.0.0, SVG Export Plug-In . SVG Version: 6.00 Build 0)  -->
<!DOCTYPE svg PUBLIC "-//W3C//DTD SVG 1.1//EN" "http://www.w3.org/Graphics/SVG/1.1/DTD/svg11.dtd">
<svg version="1.1" id="Layer_1" xmlns="http://www.w3.org/2000/svg" xmlns:xlink="http://www.w3.org/1999/xlink" x="0px" y="0px"
	 width="800px" height="600px" viewBox="0 0 800 600" enable-background="new 0 0 800 600" xml:space="preserve">
<rect fill="#F5F6F6" width="800" height="600"/>
<g>
	<g>
		<g>
			<path fill="#F5F5F5" d="M403.759,454.135c-12.078,0-23.468-1.324-32.066-3.727c-9.922-2.775-14.953-6.597-14.953-11.36
				c0-0.023,0-39.859,0-39.859c0-1.488,1.209-2.697,2.698-2.697c0.911,0,1.736,0.455,2.228,1.169
				c2.852,1.814,20.485,6.551,42.094,6.551c21.597,0,39.226-4.73,42.087-6.551c0.492-0.714,1.312-1.169,2.223-1.169
				c1.488,0,2.708,1.209,2.708,2.697c0,0,0,39.836,0,39.859c0,4.764-5.031,8.585-14.954,11.36
				C427.223,452.811,415.835,454.135,403.759,454.135z"/>
		</g>
		<g>
			<path fill="#3D3A3A" d="M448.079,399.188v39.717h-0.008c0.002,0.05,0.008,0.098,0.008,0.143c0,6.843-19.844,12.39-44.32,12.39
				c-24.478,0-44.321-5.547-44.321-12.39c0-0.045,0.003-0.093,0.006-0.143h-0.006v-39.717h0.008
				c0.41,1.921,20.09,7.722,44.313,7.722c24.223,0,43.902-5.801,44.31-7.722H448.079 M448.079,393.794h-0.011
				c-1.545,0-2.96,0.656-3.954,1.725c-3.481,1.682-19.804,5.993-40.355,5.993c-20.556,0-36.878-4.312-40.359-5.993
				c-0.995-1.068-2.41-1.725-3.955-1.725c-2.978,0-5.403,2.418-5.403,5.395v39.717c0,0.024,0,0.05,0,0.071c0,0.021,0,0.048,0,0.071
				c0,6.124,5.692,10.818,16.923,13.958c8.832,2.466,20.478,3.827,32.794,3.827c12.314,0,23.958-1.361,32.79-3.827
				c11.231-3.14,16.926-7.834,16.926-13.958c0-0.023,0-0.051,0-0.071c0-0.021,0-0.047,0-0.071v-39.717
				C453.475,396.212,451.058,393.794,448.079,393.794L448.079,393.794z"/>
		</g>
	</g>
	<g>
		<path fill="#3D3A3A" d="M403.552,476.771c-19.709,0-39.375-3.959-47.246-11.876c-1.315-1.32-1.308-3.457,0.013-4.77
			c1.321-1.313,3.46-1.309,4.769,0.013c13.358,13.431,71.48,13.415,85.19-0.031c1.335-1.303,3.464-1.277,4.771,0.047
			c1.304,1.331,1.282,3.468-0.048,4.773C442.941,472.825,423.226,476.771,403.552,476.771z"/>
	</g>
	<g>
		<path fill="#3D3A3A" d="M403.567,495.697c-17.651,0-35.264-3.547-42.315-10.639c-1.313-1.319-1.308-3.457,0.014-4.769
			c1.321-1.314,3.456-1.308,4.769,0.013c11.458,11.524,63.534,11.501,75.294-0.029c1.326-1.31,3.465-1.285,4.77,0.046
			c1.306,1.329,1.284,3.464-0.047,4.769C438.84,492.161,421.185,495.697,403.567,495.697z"/>
	</g>
	<g>
		<path fill="#3D3A3A" d="M403.594,514.151c-13.272,0-26.518-2.758-31.999-8.271c-1.315-1.32-1.309-3.457,0.013-4.77
			c1.321-1.314,3.458-1.307,4.769,0.014c8.311,8.355,46.08,8.334,54.609-0.029c1.327-1.307,3.466-1.283,4.77,0.045
			c1.307,1.33,1.285,3.465-0.046,4.769C430.105,511.406,416.838,514.151,403.594,514.151z"/>
	</g>
	<g>
		<g>
			<path fill="#F5F5F5" d="M403.618,278.148c-25.417,0-49.365-3.14-67.438-8.845c-19.143-6.041-29.387-14.123-29.651-23.383
				c-0.005-0.073-0.008-0.149-0.008-0.225V140.463c0-0.076,0.003-0.153,0.008-0.227c0.267-9.259,10.512-17.342,29.651-23.383
				c18.074-5.705,42.022-8.844,67.438-8.844c25.417,0,49.366,3.14,67.438,8.844c19.143,6.041,29.386,14.124,29.651,23.383
				c0.004,0.075,0.008,0.151,0.008,0.227v105.233c0,0.075-0.004,0.152-0.008,0.226c-0.266,9.259-10.512,17.342-29.651,23.382
				C452.984,275.009,429.035,278.148,403.618,278.148z"/>
		</g>
		<g>
			<path fill="#3D3A3A" d="M403.618,110.668c52.018,0,94.208,13.328,94.435,29.795h0.004v105.233h-0.004
				c-0.227,16.467-42.417,29.792-94.435,29.792c-52.015,0-94.206-13.326-94.434-29.792h-0.005V140.463h0.005
				C309.412,123.996,351.603,110.668,403.618,110.668 M403.618,105.348c-25.681,0-49.915,3.185-68.24,8.97
				c-20.277,6.399-31.162,15.306-31.505,25.774c-0.008,0.123-0.013,0.246-0.013,0.371v105.233c0,0.124,0.005,0.247,0.013,0.37
				c0.344,10.467,11.228,19.375,31.505,25.776c18.325,5.783,42.559,8.968,68.24,8.968c25.681,0,49.915-3.185,68.239-8.968
				c20.28-6.401,31.165-15.309,31.509-25.776c0.007-0.123,0.011-0.248,0.011-0.37V140.463c0-0.125-0.004-0.249-0.011-0.373
				c-0.344-10.467-11.229-19.374-31.509-25.773C453.533,108.532,429.299,105.348,403.618,105.348L403.618,105.348z"/>
		</g>
	</g>
	<g>
		<g>
			<path fill="#F5F5F5" d="M403.618,248.605c-36.415,0-75.233-8.641-75.755-24.655c-0.005-0.074-0.008-0.147-0.008-0.225v-64.458
				c0-0.918,0.434-1.783,1.169-2.332c0.509-0.381,1.122-0.578,1.74-0.578c0.278,0,0.557,0.038,0.831,0.119
				c19.312,5.737,44.893,8.895,72.022,8.895c27.131,0,52.71-3.158,72.024-8.895c0.272-0.081,0.55-0.119,0.828-0.119
				c0.619,0,1.232,0.197,1.741,0.578c0.735,0.548,1.169,1.414,1.169,2.332v64.458c0,0.086-0.003,0.17-0.009,0.254
				C478.804,239.975,440.012,248.605,403.618,248.605z"/>
		</g>
		<g>
			<path fill="#3D3A3A" d="M476.471,159.267v64.458h-0.005c-0.175,12.142-32.722,21.97-72.848,21.97
				c-40.128,0-72.676-9.828-72.848-21.97h-0.006v-64.458c18.775,5.576,44.487,9.016,72.854,9.016
				C431.986,168.283,457.696,164.843,476.471,159.267 M476.471,153.447c-0.556,0-1.11,0.079-1.655,0.239
				c-19.056,5.659-44.337,8.775-71.197,8.775c-26.858,0-52.142-3.116-71.194-8.775c-0.545-0.16-1.103-0.239-1.659-0.239
				c-1.237,0-2.462,0.396-3.48,1.155c-1.473,1.098-2.338,2.827-2.338,4.665v64.458c0,0.128,0.003,0.257,0.011,0.381
				c0.229,6.078,4.927,14.501,25.572,20.729c14.278,4.307,33.132,6.68,53.089,6.68s38.811-2.373,53.089-6.68
				c20.595-6.212,25.319-14.61,25.57-20.685c0.01-0.14,0.013-0.281,0.013-0.426v-64.458c0-1.838-0.865-3.567-2.339-4.665
				C478.937,153.842,477.712,153.447,476.471,153.447L476.471,153.447z"/>
		</g>
	</g>
	<g>
		<g>
			<path fill="#3D3A3A" d="M393.708,210.594c-1.688,10.67-8.721,18.427-15.712,17.321c-6.994-1.104-11.295-10.65-9.609-21.321
				c1.687-10.672,8.721-18.429,15.714-17.323C391.092,190.377,395.392,199.921,393.708,210.594z"/>
		</g>
		<g>
			
				<ellipse transform="matrix(0.9909 -0.135 0.135 0.9909 -24.2509 59.4304)" fill="#3D3A3A" cx="426.243" cy="208.594" rx="12.817" ry="19.563"/>
		</g>
	</g>
	<g>
		<g>
			<path fill="#F5F5F5" d="M403.759,419.969c-28.017,0-54.394-3.467-74.273-9.765c-20.835-6.605-32.31-15.786-32.31-25.854
				c0-0.071,0.002-0.143,0.005-0.217c-0.003-0.053-0.005-0.106-0.005-0.159V278.442c0-1.491,1.209-2.697,2.701-2.697
				c1.161,0,2.195,0.742,2.571,1.812c3.6,4.16,46.178,18.699,101.312,18.699c55.125,0,97.7-14.534,101.311-18.697
				c0.369-1.072,1.387-1.814,2.549-1.814c1.49,0,2.721,1.206,2.721,2.697v105.532c0,0.053-0.004,0.104-0.006,0.154
				c0.002,0.074,0.006,0.147,0.006,0.222c0,10.067-11.476,19.248-32.31,25.854C458.151,416.502,431.775,419.969,403.759,419.969z"/>
		</g>
		<g>
			<path fill="#3D3A3A" d="M507.641,278.442v105.532h-0.016c0.004,0.124,0.016,0.251,0.016,0.376
				c0,18.183-46.511,32.921-103.882,32.921c-57.375,0-103.882-14.738-103.882-32.921c0-0.125,0.01-0.252,0.013-0.376h-0.013V278.442
				h0.021c0.955,5.1,47.087,20.514,103.861,20.514c56.773,0,102.903-15.414,103.859-20.514H507.641 M507.641,273.047h-0.022
				c-2.03,0-3.837,1.132-4.758,2.846c-5.27,4.026-44.686,17.666-99.102,17.666c-29.032,0-52.986-3.999-67.973-7.354
				c-18.902-4.229-28.887-8.653-31.138-10.32c-0.919-1.71-2.721-2.837-4.75-2.837c-2.981,0-5.42,2.416-5.42,5.396v105.532
				c0,0.059,0,0.117,0.003,0.176c-0.003,0.068-0.003,0.131-0.003,0.2c0,11.506,11.824,21.336,34.193,28.424
				c20.134,6.38,46.802,9.893,75.088,9.893c28.285,0,54.95-3.513,75.085-9.893c22.37-7.088,34.191-16.918,34.191-28.424
				c0-0.069,0-0.134-0.001-0.203c0.001-0.056,0.001-0.114,0.001-0.173V278.442C513.035,275.463,510.619,273.047,507.641,273.047
				L507.641,273.047z"/>
		</g>
	</g>
	<g>
		<g>
			<path fill="#F5F5F5" d="M561.737,381.076c-1.537,0-2.998-0.46-4.223-1.333c-1.521-1.085-2.512-2.728-2.718-4.51
				c-0.207-1.771,0.344-3.505,1.547-4.88c17.526-20.029,13.225-49.484,0.278-67.032c-8.652-11.728-20.503-18.187-33.366-18.187
				c-3.383,0-6.844,0.442-10.293,1.315c-0.599,0.149-1.209,0.226-1.823,0.226c-3.081,0-5.838-1.94-6.703-4.72
				c-0.51-1.645-0.322-3.383,0.527-4.896c0.901-1.608,2.491-2.801,4.358-3.273c4.592-1.16,9.244-1.748,13.828-1.748
				c17.658,0,33.625,8.455,44.951,23.806c8.633,11.704,13.558,26.199,13.865,40.818c0.336,16.021-4.793,30.55-14.831,42.022
				C565.806,380.203,563.837,381.076,561.737,381.076z"/>
		</g>
		<g>
			<path fill="#3D3A3A" d="M523.15,274.637c16.569-0.002,31.981,8.009,42.86,22.753c8.319,11.276,13.062,25.241,13.358,39.329
				c0.322,15.357-4.584,29.281-14.188,40.252c-0.869,0.989-2.151,1.508-3.444,1.508c-0.953,0-1.912-0.279-2.716-0.852
				c-1.9-1.356-2.227-3.846-0.723-5.561c18.419-21.052,13.963-51.927,0.412-70.289c-9.258-12.55-21.798-19.24-35.455-19.24
				c-3.58,0-7.236,0.46-10.932,1.393c-0.395,0.099-0.793,0.148-1.185,0.148c-1.918,0-3.677-1.145-4.222-2.893
				c-0.653-2.104,0.709-4.289,3.042-4.879C514.394,275.186,518.813,274.637,523.15,274.637 M523.156,269.44v5.196l-0.003-5.196
				c-4.801,0-9.668,0.616-14.466,1.829c-2.558,0.646-4.742,2.293-5.99,4.52c-1.201,2.142-1.464,4.604-0.741,6.937
				c1.198,3.855,4.973,6.549,9.184,6.549c0.828,0,1.653-0.103,2.457-0.306c3.244-0.819,6.491-1.235,9.659-1.235
				c12.02,0.001,23.126,6.083,31.273,17.127c12.347,16.736,16.492,44.777-0.141,63.785c-1.669,1.904-2.46,4.414-2.172,6.886
				c0.291,2.514,1.673,4.815,3.785,6.324c1.672,1.191,3.656,1.817,5.735,1.817c2.849,0,5.528-1.194,7.354-3.278
				c10.471-11.967,15.822-27.106,15.474-43.787c-0.318-15.149-5.421-30.175-14.371-42.305c-5.856-7.936-12.938-14.131-21.053-18.414
				C541.037,271.609,532.293,269.44,523.156,269.44L523.156,269.44z"/>
		</g>
	</g>
	<g>
		<circle fill="#3D3A3A" cx="556.963" cy="379.934" r="14.842"/>
	</g>
	<g>
		<path fill="#3D3A3A" d="M418.508,531.372c0,4.287-6.645,7.757-14.843,7.757c-8.196,0-14.838-3.47-14.838-7.757
			c0-4.283,6.642-7.759,14.838-7.759C411.863,523.613,418.508,527.089,418.508,531.372z"/>
	</g>
	<g>
		<g>
			<path fill="#F5F5F5" d="M234.083,368.507c-0.368,0-0.744-0.026-1.109-0.079c-2.084-0.302-3.925-1.424-5.049-3.076
				c-8.393-12.387-11.485-26.987-8.94-42.228c2.322-13.898,9.212-27.014,19.404-36.93c11.123-10.825,25.287-16.784,39.882-16.784
				c7.216,0,14.405,1.418,21.375,4.215c1.849,0.741,3.293,2.168,3.965,3.916c0.613,1.602,0.54,3.323-0.209,4.847
				c-1.106,2.248-3.568,3.703-6.282,3.703c-0.987,0-1.952-0.187-2.873-0.556c-5.185-2.081-10.475-3.135-15.722-3.135
				c-10.808,0-21.097,4.451-29.754,12.875c-15.145,14.739-23.409,41.956-8.892,63.37c1.018,1.505,1.346,3.344,0.894,5.042
				c-0.463,1.745-1.709,3.229-3.417,4.071c-1,0.489-2.129,0.748-3.269,0.748H234.083z"/>
		</g>
		<g>
			<path fill="#3D3A3A" d="M278.271,272.108c6.774,0,13.648,1.323,20.37,4.02c2.227,0.894,3.274,3.164,2.338,5.071
				c-0.68,1.383-2.214,2.192-3.859,2.192c-0.619,0-1.257-0.115-1.868-0.359c-5.56-2.233-11.188-3.331-16.727-3.331
				c-11.385,0-22.39,4.645-31.635,13.641c-15.931,15.501-24.586,44.186-9.247,66.817c1.251,1.846,0.59,4.163-1.479,5.179
				c-0.653,0.317-1.367,0.471-2.079,0.471c-0.246,0-0.487-0.016-0.728-0.053c-1.28-0.185-2.479-0.857-3.2-1.92
				c-7.997-11.8-10.94-25.724-8.512-40.269c2.228-13.337,8.842-25.922,18.624-35.439
				C251.096,277.596,264.475,272.108,278.271,272.108 M278.271,266.711c-15.304,0-30.135,6.232-41.766,17.55
				c-10.599,10.312-17.767,23.955-20.182,38.418c-2.661,15.938,0.577,31.217,9.369,44.183c1.549,2.286,4.063,3.828,6.895,4.238
				c0.492,0.068,0.998,0.104,1.498,0.104c1.547,0,3.092-0.354,4.457-1.023c2.413-1.185,4.174-3.297,4.838-5.8
				c0.653-2.454,0.188-5.098-1.27-7.248c-13.691-20.203-5.816-45.952,8.543-59.924c8.141-7.923,17.78-12.111,27.871-12.111
				c4.904,0,9.855,0.989,14.717,2.941c1.241,0.498,2.545,0.749,3.878,0.749c3.79,0,7.125-1.997,8.702-5.212
				c1.084-2.206,1.193-4.691,0.307-7.002c-0.936-2.444-2.936-4.434-5.478-5.453C293.361,268.193,285.831,266.711,278.271,266.711
				L278.271,266.711z"/>
		</g>
	</g>
	<g>
		<path fill="#3D3A3A" d="M226.436,371.216c-0.647,8.168,5.449,15.32,13.62,15.965c8.168,0.651,15.32-5.449,15.968-13.616
			c0.648-8.171-5.449-15.32-13.62-15.971C234.234,356.945,227.084,363.042,226.436,371.216z"/>
	</g>
	<g>
		<g>
			<path fill="#3D3A3A" d="M399.571,119.406c-0.559,0-1.013-0.453-1.013-1.012V90.677c-5.88-2.123-9.779-7.638-9.779-13.953
				c0-8.184,6.658-14.841,14.839-14.841c8.184,0,14.841,6.657,14.841,14.841c0,6.315-3.9,11.83-9.78,13.953v27.718
				c0,0.559-0.456,1.012-1.014,1.012H399.571z"/>
		</g>
		<g>
			<path fill="#3D3A3A" d="M403.618,62.896c7.636,0,13.828,6.19,13.828,13.828c0,6.228-4.118,11.492-9.781,13.222v28.448h-8.094
				V89.946c-5.663-1.73-9.782-6.995-9.782-13.222C389.79,69.086,395.982,62.896,403.618,62.896 M403.618,60.871
				c-8.742,0-15.852,7.111-15.852,15.853c0,6.503,3.872,12.213,9.781,14.646v27.025c0,1.119,0.908,2.023,2.024,2.023h8.094
				c1.119,0,2.024-0.905,2.024-2.023V91.37c5.908-2.432,9.78-8.143,9.78-14.646C419.47,67.982,412.359,60.871,403.618,60.871
				L403.618,60.871z"/>
		</g>
	</g>
	<g>
		<g>
			<path fill="#F5F5F5" d="M403.759,395.809c-39.565,0-82.41-8.795-82.963-23.017c-0.005-0.059-0.008-0.121-0.008-0.186v-58.19
				c0-0.619,0.284-1.206,0.773-1.59c0.36-0.283,0.801-0.432,1.251-0.432c0.156,0,0.315,0.016,0.473,0.054
				c27.792,6.707,54.864,10.106,80.474,10.106c25.606,0,52.678-3.399,80.471-10.106c0.158-0.038,0.316-0.054,0.476-0.054
				c0.449,0,0.891,0.148,1.251,0.432c0.486,0.384,0.772,0.971,0.772,1.59v58.19c0,0.077-0.005,0.153-0.013,0.23
				C486.075,387.033,443.28,395.809,403.759,395.809z"/>
		</g>
		<g>
			<path fill="#3D3A3A" d="M484.705,314.416v58.19h-0.009c-0.189,10.962-36.355,21.182-80.938,21.182
				c-44.585,0-80.752-10.22-80.944-21.182h-0.003v-58.19c20.859,5.033,49.428,10.161,80.947,10.161
				C435.276,324.577,463.847,319.449,484.705,314.416 M484.705,310.369c-0.317,0-0.635,0.036-0.95,0.111
				c-27.636,6.67-54.552,10.051-79.996,10.051c-25.449,0-52.362-3.381-79.998-10.051c-0.314-0.075-0.634-0.111-0.949-0.111
				c-0.899,0-1.785,0.301-2.505,0.867c-0.973,0.768-1.544,1.94-1.544,3.18v58.19c0,0.105,0.005,0.208,0.013,0.312
				c0.32,7.457,9.34,13.612,26.816,18.299c15.916,4.268,36.573,6.618,58.168,6.618c21.591,0,42.249-2.351,58.164-6.618
				c17.424-4.675,26.443-10.808,26.813-18.229c0.01-0.127,0.016-0.255,0.016-0.382v-58.19c0-1.239-0.568-2.412-1.546-3.18
				C486.488,310.67,485.603,310.369,484.705,310.369L484.705,310.369z"/>
		</g>
	</g>
	<g>
		<g>
			<line fill="#F5F5F5" x1="373.065" y1="419.731" x2="373.065" y2="437.271"/>
			<path fill="#3D3A3A" d="M373.065,439.294c-1.118,0-2.023-0.904-2.023-2.023v-17.539c0-1.119,0.906-2.024,2.023-2.024
				s2.024,0.905,2.024,2.024v17.539C375.089,438.39,374.183,439.294,373.065,439.294z"/>
		</g>
		<g>
			<line fill="#F5F5F5" x1="434.452" y1="419.731" x2="434.452" y2="437.271"/>
			<path fill="#3D3A3A" d="M434.452,439.294c-1.12,0-2.023-0.904-2.023-2.023v-17.539c0-1.119,0.903-2.024,2.023-2.024
				c1.118,0,2.022,0.905,2.022,2.024v17.539C436.475,438.39,435.57,439.294,434.452,439.294z"/>
		</g>
		<g>
			<line fill="#F5F5F5" x1="388.411" y1="421.08" x2="388.411" y2="442.666"/>
			<path fill="#3D3A3A" d="M388.411,444.689c-1.117,0-2.022-0.903-2.022-2.023V421.08c0-1.118,0.906-2.024,2.022-2.024
				c1.118,0,2.024,0.906,2.024,2.024v21.586C390.435,443.786,389.529,444.689,388.411,444.689z"/>
		</g>
		<g>
			<line fill="#F5F5F5" x1="403.759" y1="421.08" x2="403.759" y2="445.367"/>
			<path fill="#3D3A3A" d="M403.759,447.391c-1.12,0-2.024-0.904-2.024-2.023V421.08c0-1.118,0.904-2.024,2.024-2.024
				c1.118,0,2.022,0.906,2.022,2.024v24.287C405.781,446.486,404.877,447.391,403.759,447.391z"/>
		</g>
		<g>
			<line fill="#F5F5F5" x1="419.103" y1="421.08" x2="419.103" y2="442.666"/>
			<path fill="#3D3A3A" d="M419.103,444.689c-1.119,0-2.023-0.903-2.023-2.023V421.08c0-1.118,0.904-2.024,2.023-2.024
				c1.118,0,2.023,0.906,2.023,2.024v21.586C421.126,443.786,420.221,444.689,419.103,444.689z"/>
		</g>
	</g>
	<g>
		<g>
			<circle fill="#3D3A3A" cx="471.441" cy="370.348" r="4.553"/>
		</g>
		<g>
			<path fill="#3D3A3A" d="M458.791,375.744c0,2.513-2.039,4.555-4.551,4.555c-2.517,0-4.554-2.042-4.554-4.555
				c0-2.516,2.037-4.556,4.554-4.556C456.752,371.188,458.791,373.229,458.791,375.744z"/>
		</g>
		<g>
			<path fill="#3D3A3A" d="M441.591,379.117c0,2.515-2.04,4.551-4.553,4.551c-2.515,0-4.554-2.036-4.554-4.551
				c0-2.517,2.039-4.554,4.554-4.554C439.551,374.563,441.591,376.601,441.591,379.117z"/>
		</g>
	</g>
	<g>
		<path fill="#3D3A3A" d="M331.3,329.873c0,2.516,2.04,4.555,4.555,4.555c2.513,0,4.552-2.039,4.552-4.555
			c0-2.513-2.039-4.554-4.552-4.554C333.339,325.319,331.3,327.36,331.3,329.873z"/>
	</g>
	<g>
		<path fill="#3D3A3A" d="M348.503,333.92c0,2.513,2.037,4.555,4.552,4.555c2.512,0,4.552-2.042,4.552-4.555
			s-2.04-4.552-4.552-4.552C350.54,329.368,348.503,331.407,348.503,333.92z"/>
	</g>
	<g>
		<path fill="#3D3A3A" d="M365.704,335.946c0,2.513,2.037,4.55,4.553,4.55c2.512,0,4.554-2.037,4.554-4.55
			c0-2.516-2.042-4.555-4.554-4.555C367.741,331.392,365.704,333.431,365.704,335.946z"/>
	</g>
	<g>
		<g>
			<path fill="#3D3A3A" d="M352.217,379.257c-9.729-0.334-20.103-4.608-20.303-8.337c-0.003-0.027-0.003-0.054-0.003-0.08v-26.522
				c0-0.227,0.113-0.436,0.301-0.563c0.114-0.074,0.241-0.111,0.373-0.111c0.087,0,0.178,0.018,0.262,0.054
				c5.792,2.454,12.527,4.174,19.47,4.978c0.341,0.037,0.597,0.326,0.597,0.666v29.244c0,0.184-0.073,0.357-0.206,0.484
				c-0.127,0.122-0.293,0.188-0.468,0.188C352.232,379.257,352.225,379.257,352.217,379.257z"/>
		</g>
		<g>
			<path fill="#3D3A3A" d="M332.585,344.317c5.65,2.395,12.315,4.176,19.655,5.022v29.244c-9.789-0.338-19.586-4.719-19.655-7.744
				l0,0V344.317 M332.585,342.969c-0.262,0-0.521,0.077-0.746,0.225c-0.375,0.249-0.603,0.672-0.603,1.124v26.522
				c0,0.045,0,0.089,0.005,0.136c0.281,4.456,11.678,8.635,20.952,8.958c0.016,0,0.032,0,0.047,0c0.35,0,0.685-0.138,0.937-0.382
				c0.265-0.253,0.413-0.602,0.413-0.968V349.34c0-0.682-0.513-1.258-1.193-1.337c-6.882-0.794-13.55-2.5-19.285-4.929
				C332.942,343.003,332.763,342.969,332.585,342.969L332.585,342.969z"/>
		</g>
	</g>
	<g>
		<g>
			<path fill="#3D3A3A" d="M405.722,364.322c-4.474,0-9.095-0.147-13.747-0.441c-0.325-0.021-0.582-0.291-0.582-0.622v-13.49
				c0-0.171,0.071-0.335,0.196-0.454c0.117-0.105,0.268-0.167,0.426-0.167c0.014,0,0.026,0,0.04,0
				c4.624,0.291,9.223,0.439,13.667,0.439c21.855,0,44.962-3.412,68.681-10.139c0.056-0.016,0.111-0.024,0.17-0.024
				c0.132,0,0.267,0.043,0.375,0.124c0.153,0.12,0.246,0.303,0.246,0.498v13.49c0,0.28-0.186,0.524-0.453,0.6
				C450.915,360.895,427.691,364.322,405.722,364.322z"/>
		</g>
		<g>
			<path fill="#3D3A3A" d="M474.572,340.046v13.49c-17.743,5.034-42.044,10.162-68.851,10.162c-4.653,0-9.227-0.159-13.708-0.439
				v-13.49c4.481,0.282,9.054,0.439,13.708,0.439C432.528,350.208,456.829,345.077,474.572,340.046 M474.572,338.803
				c-0.114,0-0.229,0.017-0.341,0.048c-23.661,6.708-46.712,10.114-68.51,10.114c-4.434,0-9.018-0.147-13.628-0.438
				c-0.027,0-0.054,0-0.08,0c-0.315,0-0.619,0.118-0.851,0.336c-0.252,0.235-0.392,0.564-0.392,0.906v13.49
				c0,0.657,0.51,1.202,1.166,1.243c4.663,0.291,9.297,0.442,13.784,0.442c22.026,0,45.306-3.437,69.189-10.211
				c0.533-0.151,0.903-0.64,0.903-1.197v-13.49c0-0.392-0.182-0.757-0.492-0.995C475.103,338.887,474.839,338.803,474.572,338.803
				L474.572,338.803z"/>
		</g>
	</g>
	<g>
		<g>
			<path fill="#3D3A3A" d="M352.217,379.257c-9.729-0.334-20.103-4.608-20.303-8.337c-0.003-0.027-0.003-0.054-0.003-0.08v-26.522
				c0-0.227,0.113-0.436,0.301-0.563c0.114-0.074,0.241-0.111,0.373-0.111c0.087,0,0.178,0.018,0.262,0.054
				c5.792,2.454,12.527,4.174,19.47,4.978c0.341,0.037,0.597,0.326,0.597,0.666v29.244c0,0.184-0.073,0.357-0.206,0.484
				c-0.127,0.122-0.293,0.188-0.468,0.188C352.232,379.257,352.225,379.257,352.217,379.257z"/>
		</g>
		<g>
			<path fill="#3D3A3A" d="M332.585,344.317c5.65,2.395,12.315,4.176,19.655,5.022v29.244c-9.789-0.338-19.586-4.719-19.655-7.744
				l0,0V344.317 M332.585,342.969c-0.262,0-0.521,0.077-0.746,0.225c-0.375,0.249-0.603,0.672-0.603,1.124v26.522
				c0,0.045,0,0.089,0.005,0.136c0.281,4.456,11.678,8.635,20.952,8.958c0.016,0,0.032,0,0.047,0c0.35,0,0.685-0.138,0.937-0.382
				c0.265-0.253,0.413-0.602,0.413-0.968V349.34c0-0.682-0.513-1.258-1.193-1.337c-6.882-0.794-13.55-2.5-19.285-4.929
				C332.942,343.003,332.763,342.969,332.585,342.969L332.585,342.969z"/>
		</g>
	</g>
</g>
</svg>
