<?xml version="1.0" encoding="utf-8"?>
<!-- Generator: Adobe Illustrator 16.0.0, SVG Export Plug-In . SVG Version: 6.00 Build 0)  -->
<!DOCTYPE svg PUBLIC "-//W3C//DTD SVG 1.1//EN" "http://www.w3.org/Graphics/SVG/1.1/DTD/svg11.dtd">
<svg version="1.1" id="Layer_1" xmlns="http://www.w3.org/2000/svg" xmlns:xlink="http://www.w3.org/1999/xlink" x="0px" y="0px"
	 width="800px" height="600px" viewBox="0 0 800 600" enable-background="new 0 0 800 600" xml:space="preserve">
<rect fill="#F5F6F6" width="800" height="600"/>
<g>
	<g>
		<g>
			<g>
				<g>
					<path fill="#F5F5F5" d="M504.885,478.74c0,3.283-2.659,5.943-5.942,5.943h-196.64c-3.279,0-5.941-2.66-5.941-5.943V243.786
						c0-3.281,2.662-5.943,5.941-5.943h196.64c3.283,0,5.942,2.662,5.942,5.943V478.74z"/>
					<path fill="#3D3A3A" d="M498.942,487.061h-196.64c-4.587,0-8.318-3.732-8.318-8.32V243.786c0-4.587,3.731-8.32,8.318-8.32
						h196.64c4.586,0,8.319,3.733,8.319,8.32V478.74C507.262,483.328,503.528,487.061,498.942,487.061z M302.303,240.22
						c-1.966,0-3.564,1.6-3.564,3.566V478.74c0,1.967,1.599,3.568,3.564,3.568h196.64c1.967,0,3.565-1.602,3.565-3.568V243.786
						c0-1.966-1.599-3.566-3.565-3.566H302.303z"/>
				</g>
				<g>
					<g>
						<path fill="#F5F5F5" d="M515.555,305.613c0,2.627-2.129,4.754-4.753,4.754l0,0c-2.625,0-4.751-2.127-4.751-4.754v-41.587
							c0-2.625,2.126-4.753,4.751-4.753l0,0c2.624,0,4.753,2.128,4.753,4.753V305.613z"/>
						<path fill="#3D3A3A" d="M510.802,312.148c-3.603,0-6.532-2.934-6.532-6.535v-41.587c0-3.604,2.93-6.536,6.532-6.536
							s6.534,2.933,6.534,6.536v41.587C517.336,309.215,514.404,312.148,510.802,312.148z M510.802,261.055
							c-1.637,0-2.97,1.332-2.97,2.971v41.587c0,1.639,1.333,2.973,2.97,2.973c1.639,0,2.972-1.334,2.972-2.973v-41.587
							C513.773,262.387,512.44,261.055,510.802,261.055z"/>
					</g>
					<g>
						<path fill="#F5F5F5" d="M527.437,305.613c0,2.627-2.127,4.754-4.754,4.754l0,0c-2.624,0-4.751-2.127-4.751-4.754v-41.587
							c0-2.625,2.127-4.753,4.751-4.753l0,0c2.627,0,4.754,2.128,4.754,4.753V305.613z"/>
						<path fill="#3D3A3A" d="M522.683,312.148c-3.603,0-6.532-2.934-6.532-6.535v-41.587c0-3.604,2.93-6.536,6.532-6.536
							s6.535,2.933,6.535,6.536v41.587C529.218,309.215,526.285,312.148,522.683,312.148z M522.683,261.055
							c-1.636,0-2.97,1.332-2.97,2.971v41.587c0,1.639,1.334,2.973,2.97,2.973c1.639,0,2.973-1.334,2.973-2.973v-41.587
							C525.655,262.387,524.321,261.055,522.683,261.055z"/>
					</g>
					<g>
						<g>
							<path fill="#F5F5F5" d="M544.666,446.617c0,3.279-2.659,5.939-5.941,5.939h-4.754c-3.279,0-5.939-2.66-5.939-5.939V247.589
								c0-3.281,2.66-5.94,5.939-5.94h4.754c3.282,0,5.941,2.659,5.941,5.94V446.617z"/>
							<path fill="#3D3A3A" d="M538.725,454.934h-4.754c-4.586,0-8.315-3.73-8.315-8.316V247.589c0-4.586,3.729-8.317,8.315-8.317
								h4.754c4.586,0,8.318,3.731,8.318,8.317v199.028C547.043,451.203,543.311,454.934,538.725,454.934z M533.971,244.025
								c-1.964,0-3.562,1.599-3.562,3.564v199.028c0,1.963,1.599,3.562,3.562,3.562h4.754c1.967,0,3.565-1.6,3.565-3.562V247.589
								c0-1.965-1.599-3.564-3.565-3.564H533.971z"/>
						</g>
						<g>
							<path fill="#F5F5F5" d="M532.785,500.086c0,3.279-2.662,5.939-5.941,5.939h-2.38c-3.277,0-5.939-2.66-5.939-5.939v-33.865
								c0-3.281,2.662-5.941,5.939-5.941h2.38c3.279,0,5.941,2.66,5.941,5.941V500.086z"/>
							<path fill="#3D3A3A" d="M526.844,508.402h-2.38c-4.586,0-8.315-3.73-8.315-8.316v-33.865c0-4.586,3.729-8.318,8.315-8.318
								h2.38c4.586,0,8.318,3.732,8.318,8.318v33.865C535.162,504.672,531.43,508.402,526.844,508.402z M524.464,462.656
								c-1.964,0-3.562,1.598-3.562,3.564v33.865c0,1.963,1.599,3.562,3.562,3.562h2.38c1.966,0,3.564-1.6,3.564-3.562v-33.865
								c0-1.967-1.599-3.564-3.564-3.564H524.464z"/>
						</g>
						<g>
							<path fill="#F5F5F5" d="M554.171,500.086c0,3.279-2.659,5.939-5.939,5.939h-2.377c-3.282,0-5.941-2.66-5.941-5.939v-33.865
								c0-3.281,2.659-5.941,5.941-5.941h2.377c3.28,0,5.939,2.66,5.939,5.941V500.086z"/>
							<path fill="#3D3A3A" d="M548.231,508.402h-2.377c-4.586,0-8.318-3.73-8.318-8.316v-33.865c0-4.586,3.732-8.318,8.318-8.318
								h2.377c4.586,0,8.316,3.732,8.316,8.318v33.865C556.548,504.672,552.817,508.402,548.231,508.402z M545.854,462.656
								c-1.966,0-3.564,1.598-3.564,3.564v33.865c0,1.963,1.599,3.562,3.564,3.562h2.377c1.964,0,3.562-1.6,3.562-3.562v-33.865
								c0-1.967-1.599-3.564-3.562-3.564H545.854z"/>
						</g>
						<g>
							<path fill="#F5F5F5" d="M552.39,456.418c0,2.133-1.729,3.861-3.863,3.861h-24.953c-2.132,0-3.857-1.729-3.857-3.861l0,0
								c0-2.131,1.726-3.861,3.857-3.861h24.953C550.661,452.557,552.39,454.287,552.39,456.418L552.39,456.418z"/>
							<path fill="#3D3A3A" d="M548.526,462.061h-24.953c-3.109,0-5.639-2.529-5.639-5.643c0-3.111,2.529-5.643,5.639-5.643h24.953
								c3.112,0,5.645,2.531,5.645,5.643C554.171,459.531,551.639,462.061,548.526,462.061z M523.573,454.338
								c-1.144,0-2.076,0.932-2.076,2.08c0,1.146,0.933,2.08,2.076,2.08h24.953c1.148,0,2.082-0.934,2.082-2.08
								c0-1.148-0.934-2.08-2.082-2.08H523.573z"/>
						</g>
						<g>
							<path fill="#F5F5F5" d="M552.39,294.919c0,2.953-1.729,5.346-3.863,5.346l0,0c-2.131,0-3.86-2.393-3.86-5.346V274.72
								c0-2.955,1.729-5.348,3.86-5.348l0,0c2.135,0,3.863,2.393,3.863,5.348V294.919z"/>
							<path fill="#3D3A3A" d="M548.526,302.047c-3.164,0-5.642-3.13-5.642-7.128V274.72c0-3.998,2.478-7.13,5.642-7.13
								c3.165,0,5.645,3.132,5.645,7.13v20.199C554.171,298.917,551.691,302.047,548.526,302.047z M548.526,271.155
								c-0.98,0-2.079,1.525-2.079,3.565v20.199c0,2.04,1.099,3.564,2.079,3.564c0.983,0,2.082-1.524,2.082-3.564V274.72
								C550.608,272.68,549.51,271.155,548.526,271.155z"/>
						</g>
					</g>
				</g>
			</g>
			<g>
				<g>
					<path fill="#F5F5F5" d="M283.257,305.812c0,2.623-2.127,4.752-4.751,4.752l0,0c-2.627,0-4.754-2.129-4.754-4.752v-41.587
						c0-2.627,2.127-4.755,4.754-4.755l0,0c2.624,0,4.751,2.128,4.751,4.755V305.812z"/>
					<path fill="#3D3A3A" d="M278.506,312.346c-3.604,0-6.536-2.93-6.536-6.533v-41.587c0-3.605,2.932-6.538,6.536-6.538
						c3.603,0,6.533,2.932,6.533,6.538v41.587C285.039,309.416,282.108,312.346,278.506,312.346z M278.506,261.253
						c-1.639,0-2.972,1.333-2.972,2.972v41.587c0,1.637,1.333,2.971,2.972,2.971c1.637,0,2.968-1.334,2.968-2.971v-41.587
						C281.474,262.586,280.143,261.253,278.506,261.253z"/>
				</g>
				<g>
					<path fill="#F5F5F5" d="M295.141,305.812c0,2.623-2.127,4.752-4.754,4.752l0,0c-2.624,0-4.754-2.129-4.754-4.752v-41.587
						c0-2.627,2.13-4.755,4.754-4.755l0,0c2.627,0,4.754,2.128,4.754,4.755V305.812z"/>
					<path fill="#3D3A3A" d="M290.387,312.346c-3.604,0-6.536-2.93-6.536-6.533v-41.587c0-3.605,2.933-6.538,6.536-6.538
						s6.536,2.932,6.536,6.538v41.587C296.923,309.416,293.99,312.346,290.387,312.346z M290.387,261.253
						c-1.639,0-2.971,1.333-2.971,2.972v41.587c0,1.637,1.332,2.971,2.971,2.971s2.971-1.334,2.971-2.971v-41.587
						C293.357,262.586,292.025,261.253,290.387,261.253z"/>
				</g>
				<g>
					<g>
						<path fill="#F5F5F5" d="M255.336,446.617c0,3.279,2.659,5.939,5.939,5.939h4.754c3.282,0,5.938-2.66,5.938-5.939V247.589
							c0-3.281-2.656-5.94-5.938-5.94h-4.754c-3.28,0-5.939,2.659-5.939,5.94V446.617z"/>
						<path fill="#3D3A3A" d="M266.029,454.934h-4.754c-4.586,0-8.316-3.73-8.316-8.316V247.589c0-4.586,3.73-8.317,8.316-8.317
							h4.754c4.585,0,8.315,3.731,8.315,8.317v199.028C274.345,451.203,270.614,454.934,266.029,454.934z M261.275,244.025
							c-1.965,0-3.562,1.599-3.562,3.564v199.028c0,1.963,1.598,3.562,3.562,3.562h4.754c1.965,0,3.562-1.6,3.562-3.562V247.589
							c0-1.965-1.598-3.564-3.562-3.564H261.275z"/>
					</g>
					<g>
						<path fill="#F5F5F5" d="M267.22,500.086c0,3.279,2.657,5.939,5.939,5.939h2.377c3.279,0,5.939-2.66,5.939-5.939v-33.865
							c0-3.281-2.66-5.941-5.939-5.941h-2.377c-3.282,0-5.939,2.66-5.939,5.941V500.086z"/>
						<path fill="#3D3A3A" d="M275.536,508.402h-2.377c-4.586,0-8.316-3.73-8.316-8.316v-33.865c0-4.586,3.73-8.318,8.316-8.318
							h2.377c4.586,0,8.315,3.732,8.315,8.318v33.865C283.852,504.672,280.122,508.402,275.536,508.402z M273.159,462.656
							c-1.965,0-3.562,1.598-3.562,3.564v33.865c0,1.963,1.598,3.562,3.562,3.562h2.377c1.965,0,3.562-1.6,3.562-3.562v-33.865
							c0-1.967-1.598-3.564-3.562-3.564H273.159z"/>
					</g>
					<g>
						<path fill="#F5F5F5" d="M245.829,500.086c0,3.279,2.662,5.939,5.941,5.939h2.375c3.282,0,5.941-2.66,5.941-5.939v-33.865
							c0-3.281-2.659-5.941-5.941-5.941h-2.375c-3.279,0-5.941,2.66-5.941,5.941V500.086z"/>
						<path fill="#3D3A3A" d="M254.146,508.402h-2.375c-4.587,0-8.318-3.73-8.318-8.316v-33.865c0-4.586,3.731-8.318,8.318-8.318
							h2.375c4.587,0,8.318,3.732,8.318,8.318v33.865C262.464,504.672,258.732,508.402,254.146,508.402z M251.771,462.656
							c-1.966,0-3.564,1.598-3.564,3.564v33.865c0,1.963,1.599,3.562,3.564,3.562h2.375c1.966,0,3.564-1.6,3.564-3.562v-33.865
							c0-1.967-1.599-3.564-3.564-3.564H251.771z"/>
					</g>
					<g>
						<path fill="#F5F5F5" d="M247.61,456.418c0,2.133,1.731,3.861,3.863,3.861h24.953c2.131,0,3.862-1.729,3.862-3.861l0,0
							c0-2.131-1.731-3.861-3.862-3.861h-24.953C249.342,452.557,247.61,454.287,247.61,456.418L247.61,456.418z"/>
						<path fill="#3D3A3A" d="M276.427,462.061h-24.953c-3.112,0-5.646-2.529-5.646-5.643c0-3.111,2.533-5.643,5.646-5.643h24.953
							c3.112,0,5.646,2.531,5.646,5.643C282.072,459.531,279.539,462.061,276.427,462.061z M251.474,454.338
							c-1.147,0-2.081,0.932-2.081,2.08c0,1.146,0.934,2.08,2.081,2.08h24.953c1.146,0,2.08-0.934,2.08-2.08
							c0-1.148-0.934-2.08-2.08-2.08H251.474z"/>
					</g>
					<g>
						<path fill="#F5F5F5" d="M247.61,294.919c0,2.953,1.731,5.346,3.863,5.346l0,0c2.131,0,3.862-2.393,3.862-5.346V274.72
							c0-2.955-1.731-5.348-3.862-5.348l0,0c-2.132,0-3.863,2.393-3.863,5.348V294.919z"/>
						<path fill="#3D3A3A" d="M251.474,302.047c-3.167,0-5.646-3.13-5.646-7.128V274.72c0-3.998,2.479-7.13,5.646-7.13
							c3.166,0,5.645,3.132,5.645,7.13v20.199C257.118,298.917,254.64,302.047,251.474,302.047z M251.474,271.155
							c-0.982,0-2.081,1.525-2.081,3.565v20.199c0,2.04,1.099,3.564,2.081,3.564c0.981,0,2.08-1.524,2.08-3.564V274.72
							C253.554,272.68,252.455,271.155,251.474,271.155z"/>
					</g>
				</g>
			</g>
		</g>
		<g>
			<g>
				<g>
					<g>
						<path fill="#F5F5F5" d="M336.938,212.244c-1.283,0-2.324-1.041-2.324-2.324V104.175c0-1.284,1.041-2.324,2.324-2.324h125.945
							c1.283,0,2.324,1.041,2.324,2.324V209.92c0,1.284-1.041,2.324-2.324,2.324H336.938z"/>
					</g>
					<g>
						<path fill="#3D3A3A" d="M462.884,104.175V209.92H336.938V104.175H462.884 M462.884,99.526H336.938
							c-2.566,0-4.646,2.082-4.646,4.648V209.92c0,2.568,2.079,4.648,4.646,4.648h125.945c2.567,0,4.646-2.08,4.646-4.648V104.175
							C467.529,101.608,465.451,99.526,462.884,99.526L462.884,99.526z"/>
					</g>
				</g>
				<g>
					<g>
						<g>
							<circle fill="#F5F5F5" cx="369.913" cy="130.847" r="18.119"/>
							<path fill="#3D3A3A" d="M369.913,151.047c-11.138,0-20.197-9.062-20.197-20.2c0-11.137,9.06-20.196,20.197-20.196
								c11.137,0,20.197,9.059,20.197,20.196C390.11,141.985,381.05,151.047,369.913,151.047z M369.913,114.809
								c-8.845,0-16.04,7.195-16.04,16.038c0,8.845,7.195,16.042,16.04,16.042c8.844,0,16.039-7.196,16.039-16.042
								C385.952,122.004,378.757,114.809,369.913,114.809z"/>
						</g>
						<g>
							<circle fill="#3D3A3A" cx="369.913" cy="129.362" r="9.655"/>
						</g>
					</g>
					<g>
						<g>
							<circle fill="#F5F5F5" cx="429.699" cy="130.847" r="18.118"/>
							<path fill="#3D3A3A" d="M429.699,151.047c-11.138,0-20.197-9.062-20.197-20.2c0-11.137,9.06-20.196,20.197-20.196
								c11.139,0,20.197,9.059,20.197,20.196C449.896,141.985,440.838,151.047,429.699,151.047z M429.699,114.809
								c-8.844,0-16.039,7.195-16.039,16.038c0,8.845,7.195,16.042,16.039,16.042s16.039-7.196,16.039-16.042
								C445.738,122.004,438.543,114.809,429.699,114.809z"/>
						</g>
						<g>
							<path fill="#3D3A3A" d="M439.354,129.362c0,5.332-4.32,9.655-9.654,9.655c-5.329,0-9.654-4.323-9.654-9.655
								c0-5.333,4.325-9.653,9.654-9.653C435.033,119.708,439.354,124.029,439.354,129.362z"/>
						</g>
					</g>
				</g>
				<g>
					<path fill="#3D3A3A" d="M439.816,190.467h-79.811c-2.118,0-3.841-1.697-3.841-3.784v-22.557c0-2.085,1.723-3.783,3.841-3.783
						h79.811c2.117,0,3.841,1.697,3.841,3.783v22.557C443.657,188.77,441.934,190.467,439.816,190.467z M360.006,163.731
						c-0.251,0-0.453,0.178-0.453,0.396v22.557c0,0.219,0.202,0.396,0.453,0.396h79.811c0.251,0,0.453-0.178,0.453-0.396v-22.557
						c0-0.218-0.202-0.396-0.453-0.396H360.006z"/>
				</g>
				<g>
					<path fill="#3D3A3A" d="M433.462,183.277h-67.104c-1.703,0-2.989-0.959-2.989-2.233v-11.278c0-1.273,1.286-2.233,2.989-2.233
						h67.104c1.706,0,2.995,0.959,2.995,2.233v11.278C436.457,182.317,435.168,183.277,433.462,183.277z M365.745,180.788
						c0.122,0.054,0.335,0.112,0.612,0.112h67.104c0.28,0,0.493-0.059,0.618-0.112v-10.764c-0.125-0.055-0.338-0.114-0.618-0.114
						h-67.104c-0.277,0-0.49,0.059-0.612,0.113V180.788z"/>
				</g>
				<g>
					<g>
						<rect x="368.97" y="169.613" fill="#3D3A3A" width="2.472" height="11.881"/>
					</g>
					<g>
						<rect x="374.368" y="169.613" fill="#3D3A3A" width="2.472" height="11.881"/>
					</g>
					<g>
						<rect x="379.772" y="169.613" fill="#3D3A3A" width="2.472" height="11.881"/>
					</g>
					<g>
						<rect x="385.172" y="169.613" fill="#3D3A3A" width="2.472" height="11.881"/>
					</g>
					<g>
						<rect x="390.573" y="169.613" fill="#3D3A3A" width="2.472" height="11.881"/>
					</g>
					<g>
						<rect x="395.975" y="169.613" fill="#3D3A3A" width="2.472" height="11.881"/>
					</g>
					<g>
						<rect x="401.376" y="169.613" fill="#3D3A3A" width="2.472" height="11.881"/>
					</g>
					<g>
						<rect x="406.777" y="169.613" fill="#3D3A3A" width="2.472" height="11.881"/>
					</g>
					<g>
						<rect x="412.177" y="169.613" fill="#3D3A3A" width="2.472" height="11.881"/>
					</g>
					<g>
						<rect x="417.578" y="169.613" fill="#3D3A3A" width="2.472" height="11.881"/>
					</g>
					<g>
						<rect x="422.979" y="169.613" fill="#3D3A3A" width="2.472" height="11.881"/>
					</g>
					<g>
						<rect x="428.381" y="169.613" fill="#3D3A3A" width="2.472" height="11.881"/>
					</g>
				</g>
				<g>
					<path fill="#3D3A3A" d="M492.506,135.872c-0.12-2.01-1.999-3.617-4.301-3.617h-1.774c-0.567,0-1.11,0.1-1.61,0.279
						c-0.266-2.161-2.282-3.846-4.722-3.846h-2.079c-0.463,0-0.91,0.066-1.333,0.182V45.01c3.045-0.812,5.296-3.586,5.296-6.883
						c0-3.93-3.199-7.129-7.13-7.129s-7.13,3.199-7.13,7.129c0,3.334,2.302,6.131,5.398,6.909v80.837
						c-0.407-0.117-0.836-0.19-1.283-0.19h-2.079c-2.619,0-4.751,2.132-4.751,4.753v35.94c0,2.622,2.132,4.753,4.751,4.753h2.079
						c2.109,0,3.9-1.38,4.521-3.285c0.519,0.177,1.076,0.279,1.661,0.279h2.079c2.439,0,4.456-1.685,4.722-3.846
						c0.5,0.18,1.043,0.28,1.61,0.28h1.774c2.302,0,4.181-1.605,4.301-3.618c4.956-0.638,8.839-6.014,8.839-12.534
						C501.345,141.889,497.462,136.51,492.506,135.872z M471.287,38.127c0-1.964,1.599-3.563,3.565-3.563s3.562,1.6,3.562,3.563
						c0,1.965-1.596,3.565-3.562,3.565S471.287,40.093,471.287,38.127z M473.026,166.377c0,0.657-0.53,1.189-1.188,1.189h-2.079
						c-0.655,0-1.186-0.533-1.186-1.189v-35.94c0-0.655,0.53-1.187,1.186-1.187h2.079c0.658,0,1.188,0.532,1.188,1.187V166.377z
						 M481.287,163.799c0,0.357-0.51,0.76-1.188,0.76h-2.079c-0.68,0-1.188-0.403-1.188-0.76v-30.782
						c0-0.36,0.508-0.762,1.188-0.762h2.079c0.679,0,1.188,0.401,1.188,0.762V163.799z M488.205,160.994h-1.774
						c-0.442,0-0.713-0.205-0.745-0.256l-0.008-24.626c0.04-0.085,0.311-0.292,0.753-0.292h1.774c0.442,0,0.715,0.208,0.748,0.256
						l0.005,24.625C488.92,160.789,488.647,160.994,488.205,160.994z M493.227,157.261v-17.71c2.712,1.075,4.705,4.637,4.705,8.856
						C497.932,152.625,495.938,156.19,493.227,157.261z"/>
				</g>
				<g>
					<path fill="#3D3A3A" d="M298.658,148.407c0,6.52,3.88,11.896,8.836,12.534c0.12,2.013,2.002,3.618,4.301,3.618h1.771
						c0.57,0,1.116-0.1,1.613-0.28c0.266,2.161,2.279,3.846,4.722,3.846h2.079c0.588,0,1.146-0.103,1.663-0.279
						c0.621,1.905,2.409,3.285,4.519,3.285h2.079c2.622,0,4.753-2.132,4.753-4.753v-35.94c0-2.622-2.131-4.753-4.753-4.753h-2.079
						c-0.448,0-0.873,0.074-1.283,0.19V45.037c3.095-0.778,5.398-3.575,5.398-6.909c0-3.93-3.197-7.129-7.13-7.129
						c-3.931,0-7.128,3.199-7.128,7.129c0,3.296,2.249,6.071,5.294,6.883v83.86c-0.423-0.115-0.868-0.182-1.333-0.182h-2.079
						c-2.442,0-4.456,1.685-4.722,3.846c-0.497-0.179-1.043-0.279-1.613-0.279h-1.771c-2.299,0-4.181,1.606-4.301,3.617
						C302.538,136.51,298.658,141.889,298.658,148.407z M325.147,41.693c-1.964,0-3.562-1.6-3.562-3.565
						c0-1.964,1.599-3.563,3.562-3.563c1.967,0,3.565,1.6,3.565,3.563C328.713,40.093,327.114,41.693,325.147,41.693z
						 M326.974,130.437c0-0.655,0.533-1.187,1.188-1.187h2.079c0.655,0,1.186,0.532,1.186,1.187v35.94
						c0,0.657-0.53,1.189-1.186,1.189h-2.079c-0.655,0-1.188-0.533-1.188-1.189V130.437z M318.713,133.017
						c0-0.36,0.51-0.762,1.188-0.762h2.079c0.68,0,1.188,0.401,1.188,0.762v30.782c0,0.357-0.508,0.76-1.188,0.76h-2.079
						c-0.679,0-1.188-0.403-1.188-0.76V133.017z M311.042,160.701l0.005-24.625c0.032-0.049,0.306-0.256,0.748-0.256h1.771
						c0.445,0,0.718,0.208,0.756,0.292l-0.008,24.626c-0.03,0.051-0.303,0.256-0.748,0.256h-1.771
						C311.353,160.994,311.079,160.789,311.042,160.701z M302.067,148.407c0-4.219,1.997-7.782,4.706-8.856v17.71
						C304.064,156.19,302.067,152.625,302.067,148.407z"/>
				</g>
			</g>
			<g>
				<path fill="#F5F5F5" d="M430.433,221.506c0,1.64-1.329,2.971-2.97,2.971h-51.983c-1.642,0-2.97-1.331-2.97-2.971v-3.861
					c0-1.64,1.328-2.971,2.97-2.971h51.983c1.641,0,2.97,1.331,2.97,2.971V221.506z"/>
				<path fill="#3D3A3A" d="M427.463,226.854h-51.983c-2.948,0-5.347-2.399-5.347-5.348v-3.861c0-2.949,2.398-5.348,5.347-5.348
					h51.983c2.947,0,5.347,2.399,5.347,5.348v3.861C432.81,224.455,430.41,226.854,427.463,226.854z M375.479,217.05
					c-0.328,0-0.593,0.267-0.593,0.594v3.861c0,0.328,0.265,0.594,0.593,0.594h51.983c0.328,0,0.593-0.266,0.593-0.594v-3.861
					c0-0.328-0.265-0.594-0.593-0.594H375.479z"/>
			</g>
			<g>
				<path fill="#F5F5F5" d="M430.433,232.2c0,1.64-1.329,2.97-2.97,2.97h-51.983c-1.642,0-2.97-1.33-2.97-2.97v-3.863
					c0-1.639,1.328-2.97,2.97-2.97h51.983c1.641,0,2.97,1.331,2.97,2.97V232.2z"/>
				<path fill="#3D3A3A" d="M427.463,237.546h-51.983c-2.948,0-5.347-2.398-5.347-5.346v-3.863c0-2.948,2.398-5.347,5.347-5.347
					h51.983c2.947,0,5.347,2.398,5.347,5.347v3.863C432.81,235.148,430.41,237.546,427.463,237.546z M375.479,227.745
					c-0.328,0-0.593,0.265-0.593,0.593v3.863c0,0.328,0.265,0.593,0.593,0.593h51.983c0.328,0,0.593-0.265,0.593-0.593v-3.863
					c0-0.328-0.265-0.593-0.593-0.593H375.479z"/>
			</g>
		</g>
		<g>
			<g>
				<g>
					<rect x="319.075" y="265.468" fill="#F5F5F5" width="19.267" height="15.679"/>
				</g>
				<g>
					<path fill="#3D3A3A" d="M336.559,267.25v12.114h-15.702V267.25H336.559 M340.123,263.685h-22.831v19.246h22.831V263.685
						L340.123,263.685z"/>
				</g>
			</g>
			<g>
				<rect x="317.292" y="287.013" fill="#3D3A3A" width="22.831" height="19.243"/>
			</g>
			<g>
				<rect x="317.292" y="310.342" fill="#3D3A3A" width="22.831" height="19.244"/>
			</g>
			<g>
				<rect x="352.94" y="263.685" fill="#3D3A3A" width="22.829" height="19.246"/>
			</g>
			<g>
				<rect x="352.94" y="287.013" fill="#3D3A3A" width="22.829" height="19.243"/>
			</g>
			<g>
				<rect x="352.94" y="310.342" fill="#3D3A3A" width="22.829" height="19.244"/>
			</g>
			<g>
				<rect x="388.587" y="263.685" fill="#3D3A3A" width="22.829" height="19.246"/>
			</g>
			<g>
				<rect x="388.587" y="287.013" fill="#3D3A3A" width="22.829" height="19.243"/>
			</g>
			<g>
				<rect x="388.587" y="310.342" fill="#3D3A3A" width="22.829" height="19.244"/>
			</g>
			<g>
				<g>
					<rect x="426.014" y="265.468" fill="#F5F5F5" width="19.268" height="15.679"/>
				</g>
				<g>
					<path fill="#3D3A3A" d="M443.497,267.25v12.114h-15.699V267.25H443.497 M447.062,263.685h-22.83v19.246h22.83V263.685
						L447.062,263.685z"/>
				</g>
			</g>
			<g>
				<rect x="424.232" y="287.013" fill="#3D3A3A" width="22.83" height="19.243"/>
			</g>
			<g>
				<rect x="424.232" y="310.342" fill="#3D3A3A" width="22.83" height="19.244"/>
			</g>
			<g>
				<g>
					<rect x="461.66" y="265.468" fill="#F5F5F5" width="19.267" height="15.679"/>
				</g>
				<g>
					<path fill="#3D3A3A" d="M479.146,267.25v12.114h-15.701V267.25H479.146 M482.708,263.685h-22.829v19.246h22.829V263.685
						L482.708,263.685z"/>
				</g>
			</g>
			<g>
				<g>
					<rect x="461.66" y="288.795" fill="#F5F5F5" width="19.267" height="15.679"/>
				</g>
				<g>
					<path fill="#3D3A3A" d="M479.146,290.578v12.113h-15.701v-12.113H479.146 M482.708,287.013h-22.829v19.243h22.829V287.013
						L482.708,287.013z"/>
				</g>
			</g>
			<g>
				<rect x="459.879" y="310.342" fill="#3D3A3A" width="22.829" height="19.244"/>
			</g>
		</g>
		<g>
			<path fill="#3D3A3A" d="M413.697,393.242l-14.851-8.576c-0.103-0.057-0.218-0.088-0.33-0.088c-0.115,0-0.228,0.031-0.331,0.088
				c-0.205,0.119-0.33,0.336-0.33,0.57v5.719l-10.893-6.289c-0.101-0.057-0.215-0.088-0.33-0.088s-0.226,0.031-0.328,0.088
				c-0.205,0.119-0.333,0.336-0.333,0.57v17.152c0,0.236,0.128,0.455,0.333,0.57c0.103,0.061,0.213,0.09,0.328,0.09
				s0.229-0.029,0.33-0.09l10.893-6.283v5.713c0,0.236,0.125,0.455,0.33,0.57c0.104,0.061,0.216,0.09,0.331,0.09
				c0.112,0,0.228-0.029,0.33-0.09l14.851-8.574c0.205-0.117,0.33-0.336,0.33-0.572
				C414.027,393.578,413.902,393.359,413.697,393.242z"/>
		</g>
		<g>
			<path fill="#3D3A3A" d="M413.697,384.666c-0.1-0.057-0.215-0.088-0.33-0.088c-0.112,0-0.225,0.031-0.33,0.088l-10.891,6.289
				v-5.719c0-0.234-0.127-0.451-0.33-0.57c-0.103-0.057-0.218-0.088-0.33-0.088c-0.115,0-0.228,0.031-0.33,0.088l-14.852,8.576
				c-0.205,0.117-0.333,0.336-0.333,0.57c0,0.236,0.128,0.455,0.333,0.572l14.852,8.574c0.103,0.061,0.215,0.09,0.33,0.09
				c0.112,0,0.228-0.029,0.33-0.09c0.203-0.115,0.33-0.334,0.33-0.57v-5.713l10.891,6.283c0.105,0.061,0.218,0.09,0.33,0.09
				c0.115,0,0.23-0.029,0.33-0.09c0.205-0.115,0.33-0.334,0.33-0.57v-17.152C414.027,385.002,413.902,384.785,413.697,384.666z"/>
		</g>
		<g>
			<g>
				<g>
					<path fill="#F5F5F5" d="M400,437.777c-24.24,0-43.965-19.723-43.965-43.965c0-24.24,19.725-43.963,43.965-43.963
						c24.243,0,43.965,19.723,43.965,43.963C443.965,418.055,424.243,437.777,400,437.777z"/>
				</g>
				<g>
					<path fill="#3D3A3A" d="M400,352.227c22.97,0,41.588,18.619,41.588,41.586c0,22.973-18.618,41.588-41.588,41.588
						s-41.588-18.615-41.588-41.588C358.412,370.846,377.03,352.227,400,352.227 M400,347.475
						c-25.552,0-46.339,20.787-46.339,46.338c0,25.555,20.787,46.342,46.339,46.342s46.342-20.787,46.342-46.342
						C446.342,368.262,425.552,347.475,400,347.475L400,347.475z"/>
				</g>
			</g>
			<g>
				<g>
					<path fill="#3D3A3A" d="M372.968,409.844c-0.101,0-0.205-0.027-0.296-0.082c-0.185-0.105-0.297-0.303-0.297-0.512v-30.871
						c0-0.213,0.112-0.408,0.297-0.516c0.091-0.053,0.195-0.078,0.296-0.078c0.104,0,0.205,0.025,0.298,0.078L400,393.301
						c0.186,0.104,0.298,0.303,0.298,0.512c0,0.215-0.112,0.41-0.298,0.516l-26.734,15.434
						C373.173,409.816,373.072,409.844,372.968,409.844z"/>
				</g>
				<g>
					<path fill="#3D3A3A" d="M372.968,378.379l26.734,15.434l-26.734,15.438V378.379 M372.968,377.191
						c-0.205,0-0.41,0.051-0.593,0.16c-0.368,0.209-0.594,0.602-0.594,1.027v30.871c0,0.424,0.226,0.814,0.594,1.027
						c0.183,0.107,0.388,0.16,0.593,0.16s0.41-0.053,0.595-0.16l26.735-15.434c0.37-0.211,0.596-0.605,0.596-1.031
						c0-0.422-0.226-0.814-0.596-1.027l-26.735-15.434C373.378,377.242,373.173,377.191,372.968,377.191L372.968,377.191z"/>
				</g>
			</g>
			<g>
				<rect x="407.128" y="377.477" fill="#3D3A3A" width="8.914" height="32.678"/>
				<path fill="#3D3A3A" d="M416.042,410.748h-8.914c-0.328,0-0.593-0.266-0.593-0.594v-32.678c0-0.328,0.265-0.594,0.593-0.594
					h8.914c0.327,0,0.593,0.266,0.593,0.594v32.678C416.635,410.482,416.369,410.748,416.042,410.748z M407.721,409.562h7.729
					v-31.494h-7.729V409.562z"/>
			</g>
			<g>
				<rect x="420.793" y="377.477" fill="#3D3A3A" width="8.914" height="32.678"/>
				<path fill="#3D3A3A" d="M429.707,410.748h-8.914c-0.328,0-0.593-0.266-0.593-0.594v-32.678c0-0.328,0.265-0.594,0.593-0.594
					h8.914c0.328,0,0.593,0.266,0.593,0.594v32.678C430.3,410.482,430.035,410.748,429.707,410.748z M421.386,409.562h7.729v-31.494
					h-7.729V409.562z"/>
			</g>
		</g>
		<g>
			<g>
				<path fill="#3D3A3A" d="M482.879,464.439c0,3.279-2.66,5.939-5.939,5.939H323.063c-3.28,0-5.942-2.66-5.942-5.939l0,0
					c0-3.281,2.662-5.939,5.942-5.939h153.876C480.219,458.5,482.879,461.158,482.879,464.439L482.879,464.439z"/>
			</g>
			<g>
				<g>
					<path fill="#F5F5F5" d="M434.163,468.598v-8.318h42.776c2.291,0,4.158,1.865,4.158,4.16c0,2.291-1.867,4.158-4.158,4.158
						H434.163z"/>
				</g>
				<g>
					<g>
						<path fill="#3D3A3A" d="M476.939,462.062c1.309,0,2.374,1.066,2.374,2.377s-1.065,2.377-2.374,2.377h-40.995v-4.754H476.939
							 M476.939,458.5h-44.559v11.879h44.559c3.279,0,5.939-2.66,5.939-5.939C482.879,461.158,480.219,458.5,476.939,458.5
							L476.939,458.5z"/>
					</g>
				</g>
			</g>
			<g>
				<circle fill="#F5F5F5" cx="435.053" cy="463.549" r="9.802"/>
				<path fill="#3D3A3A" d="M435.054,475.133c-6.388,0-11.584-5.197-11.584-11.584s5.196-11.584,11.584-11.584
					c6.387,0,11.583,5.197,11.583,11.584S441.44,475.133,435.054,475.133z M435.054,455.527c-4.424,0-8.021,3.598-8.021,8.021
					s3.598,8.021,8.021,8.021c4.423,0,8.021-3.598,8.021-8.021S439.477,455.527,435.054,455.527z"/>
			</g>
		</g>
	</g>
	<g>
		<g>
			<path fill="#3D3A3A" d="M481.638,513.898c3.28,0,5.939,1.664,5.939,3.715c0,2.049-2.659,3.711-5.939,3.711h-42.776
				c-3.282,0-5.942-1.662-5.942-3.711c0-2.051,2.66-3.715,5.942-3.715H481.638 M481.638,509.145h-42.776
				c-6,0-10.695,3.721-10.695,8.469c0,4.744,4.695,8.467,10.695,8.467h42.776c5.994,0,10.692-3.723,10.692-8.467
				C492.33,512.865,487.632,509.145,481.638,509.145L481.638,509.145z"/>
		</g>
		<g>
			<path fill="#3D3A3A" d="M481.638,502.018c3.28,0,5.939,1.66,5.939,3.713c0,2.049-2.659,3.713-5.939,3.713h-42.776
				c-3.282,0-5.942-1.664-5.942-3.713c0-2.053,2.66-3.713,5.942-3.713H481.638 M481.638,497.264h-42.776
				c-6,0-10.695,3.719-10.695,8.467c0,4.746,4.695,8.465,10.695,8.465h42.776c5.994,0,10.692-3.719,10.692-8.465
				C492.33,500.982,487.632,497.264,481.638,497.264L481.638,497.264z"/>
		</g>
		<g>
			<path fill="#3D3A3A" d="M481.638,490.133c3.28,0,5.939,1.664,5.939,3.713c0,2.053-2.659,3.713-5.939,3.713h-42.776
				c-3.282,0-5.942-1.66-5.942-3.713c0-2.049,2.66-3.713,5.942-3.713H481.638 M481.638,485.381h-42.776
				c-6,0-10.695,3.719-10.695,8.465c0,4.75,4.695,8.467,10.695,8.467h42.776c5.994,0,10.692-3.717,10.692-8.467
				C492.33,489.1,487.632,485.381,481.638,485.381L481.638,485.381z"/>
		</g>
		<g>
			<path fill="#3D3A3A" d="M497.795,527.416l10.577,36.832h-96.245l10.575-36.832H497.795 M497.795,522.662h-75.093
				c-2.119,0-3.985,1.4-4.568,3.439l-10.575,36.836c-0.413,1.436-0.128,2.977,0.771,4.172c0.897,1.191,2.304,1.893,3.798,1.893
				h96.245c1.491,0,2.897-0.701,3.796-1.893c0.897-1.195,1.183-2.736,0.772-4.172l-10.577-36.836
				C501.777,524.062,499.913,522.662,497.795,522.662L497.795,522.662z"/>
		</g>
	</g>
	<g>
		<g>
			<path fill="#3D3A3A" d="M362.815,513.898c3.279,0,5.938,1.664,5.938,3.715c0,2.049-2.659,3.711-5.938,3.711h-42.777
				c-3.282,0-5.941-1.662-5.941-3.711c0-2.051,2.659-3.715,5.941-3.715H362.815 M362.815,509.145h-42.777
				c-5.996,0-10.692,3.721-10.692,8.469c0,4.744,4.696,8.467,10.692,8.467h42.777c5.994,0,10.692-3.723,10.692-8.467
				C373.508,512.865,368.81,509.145,362.815,509.145L362.815,509.145z"/>
		</g>
		<g>
			<path fill="#3D3A3A" d="M362.815,502.018c3.279,0,5.938,1.66,5.938,3.713c0,2.049-2.659,3.713-5.938,3.713h-42.777
				c-3.282,0-5.941-1.664-5.941-3.713c0-2.053,2.659-3.713,5.941-3.713H362.815 M362.815,497.264h-42.777
				c-5.996,0-10.692,3.719-10.692,8.467c0,4.746,4.696,8.465,10.692,8.465h42.777c5.994,0,10.692-3.719,10.692-8.465
				C373.508,500.982,368.81,497.264,362.815,497.264L362.815,497.264z"/>
		</g>
		<g>
			<path fill="#3D3A3A" d="M362.815,490.133c3.279,0,5.938,1.664,5.938,3.713c0,2.053-2.659,3.713-5.938,3.713h-42.777
				c-3.282,0-5.941-1.66-5.941-3.713c0-2.049,2.659-3.713,5.941-3.713H362.815 M362.815,485.381h-42.777
				c-5.996,0-10.692,3.719-10.692,8.465c0,4.75,4.696,8.467,10.692,8.467h42.777c5.994,0,10.692-3.717,10.692-8.467
				C373.508,489.1,368.81,485.381,362.815,485.381L362.815,485.381z"/>
		</g>
		<g>
			<path fill="#3D3A3A" d="M378.972,527.416l10.578,36.832h-96.246l10.575-36.832H378.972 M378.972,522.662h-75.093
				c-2.119,0-3.982,1.4-4.568,3.439l-10.575,36.836c-0.41,1.436-0.125,2.977,0.771,4.172c0.898,1.191,2.307,1.893,3.798,1.893
				h96.246c1.491,0,2.897-0.701,3.795-1.893c0.898-1.195,1.184-2.736,0.773-4.172l-10.578-36.836
				C382.955,524.062,381.094,522.662,378.972,522.662L378.972,522.662z"/>
		</g>
	</g>
</g>
</svg>
